<svg width="81" height="40" viewBox="0 0 81 40" fill="none" xmlns="http://www.w3.org/2000/svg">
<path d="M34.5662 33.4507V39.7908H32.03V33.9736C32.03 31.15 33.4558 29.7447 36.2942 29.7447C37.3517 29.6811 38.3994 29.9786 39.264 30.5879C40.1374 30.0008 41.1817 29.7181 42.2338 29.7839C45.0721 29.7839 46.4847 31.1892 46.465 34.0129V39.7908H45.1509C44.3231 39.732 43.9092 39.3398 43.9092 38.5555V33.4703C43.85 32.4442 43.2915 31.9343 42.1812 31.9343C41.0708 31.9343 40.5057 32.4376 40.4926 33.4703V39.7908H38.0222V33.4507C37.963 32.4245 37.4046 31.9147 36.2942 31.9147C35.1838 31.9147 34.5859 32.4245 34.5662 33.4507Z" fill="#5C94BC"/>
<path d="M56.8859 34.8756C56.8859 38.2809 55.3616 40 52.3524 40C49.3432 40 47.8386 38.2809 47.8386 34.8756C47.8386 31.4702 49.3432 29.7316 52.3524 29.7316C55.3616 29.7316 56.8859 31.431 56.8859 34.8756ZM50.3813 34.8756C50.3813 36.8038 51.0384 37.7711 52.3524 37.7711C53.6665 37.7711 54.271 36.7645 54.2906 34.7972C54.3103 32.8297 53.6336 31.9147 52.3721 31.9147C51.1106 31.9147 50.3813 32.9082 50.3813 34.8756Z" fill="#5C94BC"/>
<path d="M67.2602 28.3067V35.4965C67.2602 38.4705 65.7026 39.9477 62.5948 39.9281C59.4871 39.9085 57.9958 38.209 57.9958 34.9148C57.9958 31.6206 59.31 29.8296 61.9381 29.7381C62.5068 29.7136 63.0715 29.8436 63.5715 30.1142C64.0715 30.3848 64.4881 30.7858 64.7766 31.2741V27.0583H66.0184C66.3476 27.065 66.6617 27.1992 66.8931 27.4322C67.125 27.6652 67.2567 27.9789 67.2602 28.3067ZM60.5518 34.7972C60.5518 36.7972 61.2085 37.8104 62.6409 37.8104C64.0732 37.8104 64.783 36.8038 64.783 34.7972C64.783 32.7905 64.0342 31.9539 62.6805 31.9539C61.3268 31.9539 60.6304 32.8886 60.5518 34.7972Z" fill="#5C94BC"/>
<path d="M70.966 32.4637H68.4626C68.765 30.6336 70.0593 29.7316 72.3523 29.7316C75.0988 29.7316 76.4851 30.6271 76.5439 32.4637V35.8299C76.5439 38.562 74.8884 39.7516 72.2008 39.9608C69.8163 40.1503 68.1602 39.0457 68.1602 36.8561C68.2196 34.4834 69.9474 33.8428 72.4636 33.5879C73.5347 33.4572 74.0801 33.1369 74.0801 32.5944C74.0801 32.0519 73.4957 31.7513 72.4636 31.7513C71.5901 31.7709 71.0971 31.9931 70.966 32.4637ZM74.1262 35.7318V34.8168C73.4898 35.079 72.8296 35.2803 72.1548 35.4181C71.1566 35.6077 70.6508 36.0717 70.6508 36.8038C70.6414 36.9667 70.6682 37.1297 70.73 37.281C70.7912 37.4323 70.8856 37.5681 71.0062 37.6787C71.1268 37.7894 71.2708 37.8721 71.4275 37.9208C71.5837 37.9695 71.7492 37.9831 71.9118 37.9607C72.2154 37.9904 72.5219 37.9526 72.8092 37.85C73.0965 37.7473 73.357 37.5824 73.572 37.3671C73.787 37.1518 73.9514 36.8917 74.0528 36.6055C74.1547 36.3193 74.1909 36.0141 74.1588 35.7122L74.1262 35.7318Z" fill="#5C94BC"/>
<path d="M80.6305 28.274V39.7908H78.1008V27.0583H79.4149C79.7377 27.0617 80.046 27.1911 80.2733 27.4185C80.5005 27.646 80.6287 27.9532 80.6305 28.274Z" fill="#5C94BC"/>
<path d="M4.71748 12.2031H0.505914C1.01183 9.11153 3.19974 7.62782 7.07619 7.62782C11.6754 7.62782 14.0539 9.14423 14.1459 12.2031V17.8831C14.1459 22.4585 11.3535 24.537 6.81997 24.8573C2.79238 25.171 0 23.3082 0 19.6283C0.0985549 15.6216 3.01577 14.5496 7.26016 14.1379C9.06705 13.9156 9.98689 13.3796 9.98689 12.4646C9.98689 11.5495 9.00131 11.0463 7.26016 11.0463C5.76873 11.0397 4.94087 11.4188 4.71748 12.2031ZM10.046 17.6936V16.151C8.95977 16.5933 7.83322 16.9303 6.68198 17.1576C5 17.4714 4.14586 18.2622 4.14586 19.491C4.12993 19.7659 4.1752 20.0407 4.27843 20.2961C4.38166 20.5515 4.54032 20.781 4.74305 20.9683C4.94578 21.1556 5.1876 21.2961 5.45122 21.3797C5.71484 21.4633 5.99377 21.4879 6.26806 21.4519C8.62027 21.4453 10.046 20.0596 10.046 17.6936Z" fill="#073142"/>
<path d="M15.1838 16.2099C15.1838 10.6606 17.8119 7.88273 22.9827 7.7847C28.1536 7.68661 30.8671 10.2162 30.8671 15.2295V25.1056C30.8671 29.3019 28.2061 31.4131 22.8448 31.5111C19.0406 31.5111 16.6293 29.7463 15.6175 26.2103H20.2824C20.5649 27.4064 21.5504 27.975 23.2916 27.975C25.5123 27.975 26.6555 26.6678 26.6555 24.0925V22.3931C26.1443 23.1826 25.4331 23.8242 24.5934 24.2533C23.7537 24.6824 22.8153 24.8839 21.8724 24.8376C17.4046 24.8376 15.1838 21.9552 15.1838 16.2099ZM26.6621 16.3406C26.6621 12.9679 25.5189 11.2946 23.1076 11.2946C20.6963 11.2946 19.5268 12.9613 19.5268 16.3406C19.6253 19.5564 20.762 21.1643 23.0485 21.1643C25.3349 21.1643 26.5373 19.5564 26.6621 16.3406Z" fill="#073142"/>
<path d="M32.1089 15.9286C32.2074 10.5297 35.0918 7.84337 40.7094 7.84337H41.3073V12.1965H39.8816C37.5359 12.1965 36.3599 13.4253 36.3599 15.8568V24.5369H32.1089V15.9286Z" fill="#073142"/>
<path d="M50.0261 24.9161C44.9538 24.7592 42.4177 21.8245 42.4177 16.1445C42.4177 10.4645 44.9867 7.64743 50.0919 7.59514C55.4204 7.59514 57.9236 10.8633 57.6083 17.3994H46.7607C46.9184 19.9551 48.0287 21.2493 50.0919 21.2493C51.1242 21.2257 52.1049 20.7955 52.8185 20.0532C52.9982 19.8562 53.2188 19.7004 53.465 19.5966C53.7111 19.4928 53.977 19.4434 54.2443 19.4518H57.352C56.4191 22.9618 54.1523 24.9161 50.0261 24.9161ZM46.8264 14.3797H53.1339C52.8777 12.1704 51.8198 11.0332 50.0261 11.0332C48.2325 11.0332 47.1418 12.1704 46.8264 14.3797Z" fill="#073142"/>
<path d="M66.3273 24.9161C61.2546 24.7592 58.7185 21.8245 58.7185 16.1445C58.7185 10.4645 61.2878 7.64743 66.3925 7.59514C71.721 7.59514 74.2245 10.8633 73.9092 17.3994H63.0552C63.2125 19.9551 64.3232 21.2493 66.3861 21.2493C67.4187 21.2257 68.3989 20.7955 69.1127 20.0532C69.2928 19.8562 69.5131 19.7004 69.759 19.5966C70.0055 19.4928 70.2712 19.4434 70.5387 19.4518H73.6464C72.7263 22.9618 70.4466 24.9161 66.3273 24.9161ZM63.1205 14.3797H69.428C69.1722 12.1704 68.1139 11.0332 66.3203 11.0332C64.5266 11.0332 63.4363 12.1704 63.1205 14.3797Z" fill="#073142"/>
<path fill-rule="evenodd" clip-rule="evenodd" d="M31.9252 8.67345C32.5629 8.61815 33.1736 8.39229 33.6927 8.01983C34.3628 7.54162 34.8181 6.82128 34.9608 6.01322C35.0118 5.74323 35.0118 5.46616 34.9608 5.19619C34.9477 5.05077 34.9235 4.90656 34.8884 4.76479C34.7302 4.19156 34.5099 3.6371 34.2314 3.11113L32.0435 5.22886C31.8464 5.41188 31.9121 5.47071 31.9121 5.93478C31.9121 6.39884 31.9121 6.8433 31.9121 7.32046L31.9252 8.67345Z" fill="#22A64A"/>
<path fill-rule="evenodd" clip-rule="evenodd" d="M28.6399 4.09163L31.3928 6.70609C31.4257 6.54273 31.3928 4.09163 31.3928 3.68639C31.3928 3.58834 31.4322 3.30075 31.3534 3.23539L29.9014 1.87585C29.3826 2.55463 28.9582 3.29995 28.6399 4.09163Z" fill="#22A64A"/>
<path fill-rule="evenodd" clip-rule="evenodd" d="M31.3665 8.69321C31.4183 8.35588 31.4314 8.01385 31.406 7.67356C31.406 7.39252 31.4782 7.4317 31.2023 7.17681L28.469 4.61461C28.3363 5.05912 28.3034 5.52722 28.3728 5.98579C28.4421 6.44434 28.6119 6.88208 28.8702 7.26811C29.1285 7.65414 29.4689 7.97895 29.8673 8.21959C30.2658 8.46023 30.7126 8.61072 31.176 8.66051C31.2943 8.66707 31.2614 8.63437 31.3665 8.69321Z" fill="#22A64A"/>
<path fill-rule="evenodd" clip-rule="evenodd" d="M31.9119 4.63417L33.9749 2.67331C33.3822 1.71699 32.6955 0.821502 31.925 0L31.9119 4.63417Z" fill="#22A64A"/>
<path fill-rule="evenodd" clip-rule="evenodd" d="M30.1841 1.45758L31.3667 2.56873C31.4208 1.93184 31.4339 1.29217 31.4061 0.653623C31.4234 0.436084 31.4234 0.217537 31.4061 0C30.9688 0.460198 30.5606 0.946997 30.1841 1.45758Z" fill="#22A64A"/>
<path fill-rule="evenodd" clip-rule="evenodd" d="M31.452 11.1704C31.4762 11.2054 31.5085 11.2341 31.5463 11.2539C31.5841 11.2737 31.6261 11.2841 31.6688 11.2841C31.7115 11.2841 31.7536 11.2737 31.7914 11.2539C31.8292 11.2341 31.8615 11.2054 31.8856 11.1704C31.9448 11.1181 31.9251 10.9939 31.9251 10.922V10.1965V9.67356C31.9523 9.49855 31.9388 9.31965 31.8856 9.15067H31.3995C31.3706 9.82429 31.3882 10.4991 31.452 11.1704Z" fill="#22A64A"/>
</svg>
