<svg width="85" height="40" viewBox="0 0 85 40" fill="none" xmlns="http://www.w3.org/2000/svg">
<path d="M4.79135 12.5846H0.504353C1.00871 9.37473 3.27829 7.81201 7.22906 7.81201C11.9784 7.81201 14.374 9.37473 14.4581 12.5846V18.4554C14.4581 23.228 11.6001 25.3398 6.97688 25.6355C2.85799 25.9733 0 24.0305 0 20.2293C0.0840588 16.0902 3.06815 14.9921 7.4392 14.5697C9.2885 14.3585 10.2132 13.7672 10.2132 12.8381C10.1291 11.8666 9.20444 11.3598 7.4392 11.3598C5.88411 11.402 5.04353 11.7822 4.79135 12.5846ZM10.2551 18.2442V16.6393C9.24646 17.0616 8.06965 17.4417 6.80876 17.6952C5.08556 18.033 4.20294 18.8355 4.20294 20.1026C4.28699 21.4541 5.0015 22.1299 6.38847 22.1299C8.78414 22.1299 10.2551 20.6939 10.2551 18.2442Z" fill="#073142"/>
<path d="M15.5093 16.724C15.5093 10.98 18.1571 8.10794 23.4948 8.02347C28.8325 7.98123 31.5225 10.5154 31.5225 15.7104V25.8891C31.5225 30.2394 28.7905 32.3934 23.3267 32.4779C19.418 32.4779 16.9803 30.6618 15.9715 26.9873H20.7209C21.015 28.2121 22.0238 28.8034 23.789 28.8034C26.0586 28.8034 27.2354 27.4519 27.2354 24.791C27.2354 24.791 27.2354 24.8333 27.2354 23.0171C26.1427 24.7065 24.4615 25.5513 22.3601 25.5513C17.7788 25.6357 15.5093 22.6792 15.5093 16.724ZM27.2354 16.8507C27.2774 13.3874 26.0586 11.6557 23.6209 11.6557C21.1411 11.6557 19.9644 13.3874 19.9644 16.8507C20.0484 20.1873 21.2252 21.8345 23.5789 21.8345C25.9325 21.8345 27.1093 20.1873 27.2354 16.8507Z" fill="#073142"/>
<path d="M32.7834 16.4293C32.9095 10.8542 35.8516 8.10889 41.6096 8.10889H42.2401V12.5859H40.769C38.3734 12.5859 37.1545 13.8529 37.1545 16.3448V25.2988H32.7834V16.4293Z" fill="#073142"/>
<path d="M51.1069 25.7207C45.9373 25.5517 43.3315 22.5107 43.3315 16.6822C43.3315 10.8115 45.9373 7.89722 51.191 7.85498C56.6548 7.85498 59.1766 11.1916 58.8824 17.9493H47.7867C47.9547 20.5679 49.0896 21.9194 51.191 21.9194C52.1997 21.9194 53.1244 21.4971 53.9649 20.6946C54.3432 20.2723 54.8475 20.0611 55.4359 20.0611H58.6302C57.6636 23.6933 55.3099 25.7207 51.1069 25.7207ZM47.8286 14.8661H54.2592C54.0069 12.5854 52.9142 11.4028 51.0649 11.4028C49.2577 11.4028 48.1649 12.5854 47.8286 14.8661Z" fill="#073142"/>
<path d="M67.7512 25.7207C62.5816 25.5517 59.9758 22.5107 59.9758 16.6822C59.9758 10.8115 62.5816 7.89722 67.8353 7.85498C73.2991 7.85498 75.8208 11.1916 75.5267 17.9493H64.4309C64.599 20.5679 65.7339 21.9194 67.8353 21.9194C68.844 21.9194 69.7686 21.4971 70.6092 20.6946C70.9875 20.2723 71.4918 20.0611 72.0802 20.0611H75.2745C74.3078 23.6933 71.9542 25.7207 67.7512 25.7207ZM64.4729 14.8661H70.9455C70.6933 12.5854 69.6006 11.4028 67.7512 11.4028C65.902 11.4028 64.8092 12.5854 64.4729 14.8661Z" fill="#073142"/>
<path fill-rule="evenodd" clip-rule="evenodd" d="M32.6131 8.95547C33.0333 8.99771 34.0001 8.61759 34.4203 8.32194C35.1348 7.81511 35.5972 7.05487 35.7232 6.25239C35.8073 5.74556 35.7652 5.87227 35.7652 5.40768C35.7652 5.28097 35.7232 5.11203 35.6811 4.94309C35.429 3.92943 35.2189 3.80273 35.0087 3.25366L32.7391 5.36544C32.529 5.57662 32.6131 5.61886 32.6131 6.08345C32.6131 6.59028 32.6131 7.01263 32.6131 7.51946V8.95547Z" fill="#3BA064"/>
<path fill-rule="evenodd" clip-rule="evenodd" d="M29.2517 4.22506L32.0676 6.88591C32.1096 6.71696 32.0676 4.22506 32.0676 3.76047C32.0676 3.676 32.1096 3.38035 32.0256 3.29588L30.5546 1.9021C30.2184 2.23998 29.4198 3.71823 29.2517 4.22506Z" fill="#3BA064"/>
<path fill-rule="evenodd" clip-rule="evenodd" d="M32.0251 8.99676C32.1092 8.87005 32.0671 8.15204 32.0671 7.94087C32.0671 7.64522 32.1512 7.68745 31.857 7.43404L29.0831 4.77319C28.4106 6.8005 29.9657 8.74334 31.857 8.95452C31.9831 8.95452 31.941 8.91229 32.0251 8.99676Z" fill="#3BA064"/>
<path fill-rule="evenodd" clip-rule="evenodd" d="M32.6128 4.77263L34.7143 2.78755C34.5462 2.3652 33.0331 0.422356 32.6128 0V4.77263Z" fill="#3BA064"/>
<path fill-rule="evenodd" clip-rule="evenodd" d="M30.8486 1.52048L32.0675 2.66085C32.1516 2.53414 32.1095 0.929184 32.1095 0.67577C32.1095 0.464592 32.1516 0.168943 32.1095 0C31.8153 0.253414 31.0167 1.22483 30.8486 1.52048Z" fill="#3BA064"/>
<path fill-rule="evenodd" clip-rule="evenodd" d="M32.1099 11.529C32.278 11.698 32.4041 11.698 32.5722 11.529C32.6142 11.4868 32.6142 11.3601 32.6142 11.2756C32.6142 11.2756 32.6142 11.2756 32.6142 11.2334V10.4731C32.6142 10.3042 32.6142 10.1352 32.6142 9.9663C32.6142 9.79736 32.6562 9.54394 32.5722 9.41724H32.0679C32.0679 9.54394 32.0258 11.4445 32.1099 11.529Z" fill="#3BA064"/>
<path d="M34.6315 33.6191V39.7855H32.1938V34.1259C32.1938 31.3806 33.5808 30.0291 36.3127 30.0291C37.5315 30.0291 38.4982 30.2825 39.1707 30.8315C39.8431 30.3247 40.8098 30.0291 42.0288 30.0291C44.7606 30.0291 46.1055 31.3806 46.1055 34.1259V39.7855H44.8447C44.0461 39.7433 43.6678 39.3631 43.6678 38.6029V33.6613C43.6258 32.6477 43.0794 32.1831 41.9867 32.1831C40.8939 32.1831 40.3896 32.6899 40.3476 33.6613V39.7855H37.9098V33.6191C37.8678 32.6054 37.3214 32.1408 36.2286 32.1408C35.178 32.1408 34.6315 32.6054 34.6315 33.6191Z" fill="#66A80F"/>
<path d="M49.9724 32.6508H47.5767C47.8709 30.8769 49.1318 29.99 51.3173 29.99C53.9652 29.99 55.3101 30.8769 55.3522 32.6508V35.9452C55.3522 38.6061 53.755 39.7887 51.1493 39.9576C48.8376 40.1265 47.2405 39.0707 47.2405 36.9166C47.2825 34.5937 48.9637 34.0024 51.4014 33.749C52.4521 33.6223 52.9565 33.3266 52.9565 32.7775C52.9144 32.2285 52.4101 31.9751 51.4014 31.9751C50.5608 31.9751 50.0985 32.1862 49.9724 32.6508ZM52.9985 35.8185V34.9316C52.4521 35.185 51.7797 35.3539 51.0652 35.5229C50.0985 35.6918 49.6362 36.1564 49.6362 36.8744C49.6782 37.6346 50.0985 38.0148 50.855 38.0148C52.1999 37.9725 52.9985 37.17 52.9985 35.8185Z" fill="#66A80F"/>
<path d="M56.4868 34.8039C56.5708 31.6784 58.21 30.158 61.4042 30.158H61.7404V32.6499H60.9419C59.5969 32.6499 58.9245 33.3679 58.9245 34.7616V39.7877H56.4868V34.8039Z" fill="#66A80F"/>
<path d="M65.3137 28.5947V33.9164L68.2978 30.4953H71.1978L67.8775 34.0431L71.2399 39.7449H68.3398L66.6166 36.5772C66.3224 36.0282 65.9862 35.7748 65.6919 35.7748C65.4397 35.817 65.3137 35.9859 65.3137 36.2394V39.7449H62.918V27.4121H64.1789C64.7673 27.4121 65.3137 27.9189 65.3137 28.5947Z" fill="#66A80F"/>
<path d="M75.3178 39.9998C72.4177 39.9154 70.9888 38.2259 70.9888 34.9316C70.9888 31.6372 72.4598 30.0322 75.3598 29.99C78.3859 29.99 79.8149 31.8484 79.6468 35.6496H73.4684C73.5525 37.1278 74.1829 37.8881 75.3598 37.8881C75.9061 37.8881 76.4525 37.6346 76.9149 37.2123C77.1251 36.9589 77.4192 36.8744 77.7135 36.8744H79.4787C78.9743 38.8595 77.6714 39.9998 75.3178 39.9998ZM73.4684 33.9179H77.083C76.9569 32.6508 76.3265 31.9751 75.3178 31.9751C74.309 31.9751 73.6786 32.6508 73.4684 33.9179Z" fill="#66A80F"/>
<path d="M83.4267 31.8891H83.1746V37.2108C83.1746 37.5909 83.4268 37.8443 83.8891 37.8443H84.6457V39.7027C83.8471 39.7872 83.0065 39.7872 82.1239 39.7027C81.2412 39.6182 80.7789 39.0269 80.821 37.971V27.4121H82.0818C82.7122 27.4121 83.2587 28.0034 83.2587 28.6369V30.1574H84.6877V30.6643C84.6036 31.34 84.0993 31.8891 83.4267 31.8891Z" fill="#66A80F"/>
</svg>
