<svg width="112" height="28" viewBox="0 0 112 28" fill="none" xmlns="http://www.w3.org/2000/svg">
<g clip-path="url(#clip0)">
<path d="M29.8667 9.77158C27.3268 9.77158 25.1314 10.6691 23.3573 12.4515C21.5577 14.2086 20.6514 16.3829 20.6514 18.8858C20.6514 21.4015 21.5577 23.5756 23.3573 25.3327C25.1441 27.1152 27.3268 28.0126 29.8667 28.0126C32.394 28.0126 34.5765 27.1152 36.3505 25.3327C38.1503 23.563 39.0565 21.4015 39.0565 18.8858C39.0565 16.3829 38.1503 14.2212 36.3505 12.4641C34.5765 10.6691 32.394 9.77158 29.8667 9.77158ZM32.6747 21.6669C31.8833 22.4378 30.9643 22.8172 29.8667 22.8172C28.7563 22.8172 27.8373 22.4378 27.0459 21.6795C26.2673 20.8957 25.8844 19.9729 25.8844 18.8731C25.8844 17.786 26.2673 16.8759 27.0332 16.1048C27.8246 15.3337 28.7563 14.9544 29.8667 14.9544C30.9643 14.9544 31.8833 15.3337 32.6619 16.0921C33.4405 16.8759 33.8234 17.786 33.8234 18.8731C33.8234 19.9729 33.4533 20.8831 32.6747 21.6669Z" fill="#F55151"/>
<path d="M49.7776 9.77158C47.2378 9.77158 45.0425 10.6691 43.2683 12.4515C41.4687 14.2086 40.5625 16.3829 40.5625 18.8858V25.4086C40.5625 26.837 41.7368 28 43.179 28C44.6213 28 45.7956 26.837 45.7956 25.4086V18.8732C45.7956 17.786 46.1785 16.8759 46.9443 16.1048C47.7355 15.3337 48.6672 14.9544 49.7776 14.9544C50.8755 14.9544 51.7945 15.3337 52.5729 16.0921C53.3515 16.8759 53.7344 17.786 53.7344 18.8732V25.4086C53.7344 26.837 54.9087 28 56.3509 28C57.7931 28 58.9674 26.837 58.9674 25.4086V18.8732C58.9674 16.3702 58.0613 14.2086 56.2617 12.4515C54.4874 10.6691 52.3049 9.77158 49.7776 9.77158Z" fill="#F55151"/>
<path d="M76.2879 9.77158C74.8455 9.77158 73.6714 10.9346 73.6714 12.363V18.8732C73.6714 19.9729 73.2884 20.8831 72.5226 21.6669C71.7312 22.4379 70.8123 22.8172 69.7146 22.8172C68.6042 22.8172 67.6852 22.4379 66.8939 21.6795C66.1152 20.8957 65.7323 19.9729 65.7323 18.8732V12.363C65.7323 10.9346 64.558 9.77158 63.1158 9.77158C61.6736 9.77158 60.4993 10.9346 60.4993 12.363V18.8732C60.4993 21.3886 61.4054 23.563 63.2052 25.3201C64.9793 27.1024 67.1746 28 69.7146 28C72.2417 28 74.4244 27.1024 76.1984 25.3201C77.998 23.5504 78.9044 21.3886 78.9044 18.8732V12.363C78.9044 10.9346 77.7301 9.77158 76.2879 9.77158Z" fill="#F55151"/>
<path d="M109.32 12.4515C107.52 10.6691 105.337 9.77158 102.81 9.77158C100.628 9.77158 98.7132 10.4163 97.1304 11.693C96.5944 12.1228 95.8541 12.1228 95.318 11.693C93.7225 10.4163 91.8081 9.77158 89.6382 9.77158C87.0983 9.77158 84.903 10.6691 83.1288 12.4515C81.3292 14.2086 80.4229 16.3829 80.4229 18.8858V25.4086C80.4229 26.837 81.5972 28 83.0394 28C84.4818 28 85.6559 26.837 85.6559 25.4086V18.8732C85.6559 17.786 86.0388 16.8759 86.8047 16.1048C87.596 15.3337 88.5278 14.9544 89.6382 14.9544C90.7358 14.9544 91.6548 15.3337 92.4334 16.0921C93.212 16.8759 93.5949 17.786 93.5949 18.8732V25.4086C93.5949 26.837 94.7692 28 96.2115 28C97.6537 28 98.828 26.837 98.828 25.4086V18.8732C98.828 17.786 99.2109 16.8759 99.9767 16.1048C100.768 15.3337 101.7 14.9544 102.81 14.9544C103.921 14.9544 104.827 15.3337 105.605 16.0921C106.384 16.8759 106.767 17.786 106.767 18.8732V25.4086C106.767 26.837 107.941 28 109.383 28C110.826 28 112 26.837 112 25.4086V18.8732C112 16.3702 111.106 14.2086 109.32 12.4515Z" fill="#F55151"/>
<path d="M9.20251 9.77157C8.28353 9.77157 7.39008 9.9106 6.54769 10.1634V3.23611C6.54769 1.45372 5.07989 0 3.26747 0C1.46781 0 0 1.45372 0 3.23611V18.8731C0 21.3382 0.995556 23.5756 2.60377 25.2189C2.64204 24.8271 2.46336 24.372 2.38678 24.0181C2.28468 23.5125 2.18256 22.9941 2.08046 22.4885C1.96558 21.9323 1.86348 21.376 1.7486 20.8326C1.68479 20.5417 1.90177 20.2383 2.19532 20.2763C2.94837 20.3649 3.5738 20.9335 3.72694 21.7047C3.79077 21.9701 3.94394 22.2103 4.18644 22.3748C4.54383 22.6149 5.00331 22.6275 5.36069 22.4252C5.50108 22.3495 5.62871 22.2357 5.73083 22.0839L5.98609 21.7174L6.29242 21.2623L6.80297 20.5291L7.28799 19.8212L7.81129 19.0501C8.09207 18.6456 8.64091 18.5445 9.04934 18.8226C9.45777 19.1007 9.55989 19.6442 9.27909 20.0488L8.73025 20.8452L8.24524 21.5405L7.78576 22.2103C8.06656 21.8059 8.61538 21.7047 9.02383 21.9828C9.17697 22.0839 9.27909 22.2229 9.3429 22.3748C9.35567 22.4 9.35567 22.4126 9.36843 22.4379C9.38119 22.4633 9.38119 22.4759 9.38119 22.5012C9.39396 22.5643 9.40672 22.6275 9.40672 22.7035C9.40672 22.7287 9.40672 22.7413 9.40672 22.7666C9.40672 22.8044 9.39396 22.8551 9.39396 22.9056C9.36843 23.0194 9.33014 23.1205 9.25356 23.2217L8.99829 23.5882C9.27909 23.1838 9.82791 23.0826 10.2364 23.3607C10.2619 23.3733 10.2874 23.3987 10.3002 23.4114C10.3129 23.424 10.3257 23.4366 10.3385 23.4492C10.364 23.4744 10.3895 23.4997 10.4023 23.5251C10.4278 23.5504 10.4406 23.5756 10.4661 23.6008C10.4916 23.6389 10.5172 23.6768 10.5427 23.7272C10.6703 24.0055 10.6575 24.3342 10.4661 24.5996L10.2108 24.9661C10.4916 24.5617 11.0404 24.4606 11.4489 24.7386C11.8573 25.0166 11.9594 25.5603 11.6786 25.9649L10.7214 27.3552C10.6065 27.5323 10.5555 27.7346 10.581 27.9115C14.9972 27.2414 18.3923 23.4618 18.3923 18.8984C18.405 13.8546 14.2824 9.77157 9.20251 9.77157ZM9.13868 21.5531L9.99385 20.3142C10.1342 20.2004 10.2619 20.074 10.364 19.9224C10.9128 19.1133 10.7086 18.0135 9.89174 17.47C9.07487 16.9264 7.96444 17.1287 7.41562 17.9377C7.28799 18.1147 7.2114 18.3043 7.16033 18.4939L6.34347 19.6948C6.11372 18.9616 6.21584 18.1273 6.6881 17.4447C7.51771 16.2438 9.17697 15.9278 10.3895 16.7494C11.602 17.5711 11.9211 19.2144 11.0915 20.428C10.632 21.0854 9.90449 21.4772 9.13868 21.5531ZM12.4189 21.3003C11.8573 22.1094 11.066 22.6654 10.1853 22.9436C10.096 22.7413 9.96832 22.5643 9.81515 22.4126C10.6448 22.1977 11.3978 21.7047 11.9211 20.9464C13.0571 19.3029 12.6231 17.0402 10.9639 15.9151C9.30462 14.7901 7.01994 15.2199 5.89675 16.8632C5.1054 18.0135 5.07989 19.4673 5.70529 20.6177L5.3224 21.1737C4.42895 19.7834 4.40342 17.9503 5.3862 16.5093C6.71361 14.5878 9.36843 14.0822 11.3212 15.3968C13.2358 16.7368 13.7463 19.3788 12.4189 21.3003Z" fill="#F55151"/>
</g>
<defs>
<clipPath id="clip0">
<rect width="112" height="28" fill="white"/>
</clipPath>
</defs>
</svg>
