<svg width="50" height="50" viewBox="0 0 50 50" fill="none" xmlns="http://www.w3.org/2000/svg">
<path d="M27.2751 23.9777L24.0551 20.7997L27.2751 17.6217H29.2911L26.0571 20.7997L29.2911 23.9777H27.2751ZM33.2434 17.6217H35.2594L38.4794 20.7997L35.2594 23.9777H33.2434L36.4774 20.7997L33.2434 17.6217Z" fill="white"/>
<g clip-path="url(#clip0)">
<path fill-rule="evenodd" clip-rule="evenodd" d="M40.6653 10H9.36395C7.51164 10 6.03516 11.5364 6.03516 13.4021V36.229C6.03516 38.1221 7.53848 39.6311 9.36395 39.6311H19.4577H21.6859H28.3703H30.5984H40.6922C42.5445 39.6311 44.021 38.0947 44.021 36.229V13.4021C44.021 11.509 42.5177 10 40.6922 10H40.6653ZM41.766 36.229C41.766 36.86 41.2559 37.3539 40.6653 37.3539C38.9473 37.3539 11.0283 37.3539 9.36395 37.3539C8.74651 37.3539 8.2633 36.8326 8.2633 36.229V35.1041H41.7928V36.229H41.766ZM41.766 32.8269H8.23645V13.4021C8.23645 12.7711 8.74651 12.2772 9.3371 12.2772H40.6385C41.2559 12.2772 41.7391 12.7985 41.7391 13.4021V32.8269H41.766Z" fill="white"/>
<path fill-rule="evenodd" clip-rule="evenodd" d="M17.9802 16.9139H13.4434C12.826 16.9139 12.3428 17.4352 12.3428 18.0388C12.3428 18.6698 12.8528 19.1636 13.4434 19.1636H17.9802C18.5977 19.1636 19.0809 18.6424 19.0809 18.0388C19.0809 17.4077 18.5708 16.9139 17.9802 16.9139Z" fill="white"/>
<path fill-rule="evenodd" clip-rule="evenodd" d="M17.9802 21.4407H13.4434C12.826 21.4407 12.3428 21.962 12.3428 22.5656C12.3428 23.1967 12.8528 23.6905 13.4434 23.6905H17.9802C18.5977 23.6905 19.0809 23.1692 19.0809 22.5656C19.0809 21.9346 18.5708 21.4407 17.9802 21.4407Z" fill="white"/>
<path fill-rule="evenodd" clip-rule="evenodd" d="M36.5576 25.9954H13.4708C12.8533 25.9954 12.3701 26.5167 12.3701 27.1203C12.3701 27.7513 12.8802 28.2452 13.4708 28.2452H36.5576C37.175 28.2452 37.6582 27.7239 37.6582 27.1203C37.6582 26.4893 37.1482 25.9954 36.5576 25.9954Z" fill="white"/>
<path d="M23.4854 12.1244V12.043L23.9555 11.8445V11.9312L23.5827 12.0842L23.9555 12.2386V12.3253L23.4854 12.1244Z" fill="white"/>
<path d="M37.7246 12.1244V12.043L37.2545 11.8445V11.9312L37.6273 12.0842L37.2545 12.2386V12.3253L37.7246 12.1244Z" fill="white"/>
</g>
<defs>
<clipPath id="clip0">
<rect width="38" height="29.6585" fill="white" transform="translate(6 10)"/>
</clipPath>
</defs>
</svg>
