<svg width="17" height="13" viewBox="0 0 17 13" fill="none" xmlns="http://www.w3.org/2000/svg">
<path fill-rule="evenodd" clip-rule="evenodd" d="M16.3612 1.88047C16.169 1.14025 15.6028 0.557353 14.8837 0.359526C13.5807 0 8.35519 0 8.35519 0C8.35519 0 3.12968 0 1.82656 0.359526C1.10754 0.557353 0.541284 1.14025 0.349114 1.88047C0 3.22204 0 6.02124 0 6.02124C0 6.02124 0 8.82033 0.349114 10.162C0.541284 10.9022 1.10754 11.4851 1.82656 11.683C3.12968 12.0425 8.35519 12.0425 8.35519 12.0425C8.35519 12.0425 13.5807 12.0425 14.8837 11.683C15.6028 11.4851 16.169 10.9022 16.3612 10.162C16.7104 8.82033 16.7104 6.02124 16.7104 6.02124C16.7104 6.02124 16.7104 3.22204 16.3612 1.88047Z" fill="#333333"/>
<path fill-rule="evenodd" clip-rule="evenodd" d="M6.78809 8.90102V3.66516L10.9657 6.28319L6.78809 8.90102Z" fill="#E23B4D"/>
</svg>
