<svg width="60" height="70" viewBox="0 0 60 70" fill="none" xmlns="http://www.w3.org/2000/svg">
<g clip-path="url(#clip0)">
<path fill-rule="evenodd" clip-rule="evenodd" d="M30 5C46.5687 5 60 18.4313 60 35C60 51.5687 46.5687 65 30 65C21.512 65 12.975 65 4.46144 65C2.00769 65 0 62.9924 0 60.5386C0 52.025 0 43.488 0 35C0 18.4313 13.4313 5 30 5Z" fill="#E52F17"/>
<path d="M22.0967 20.8343V34.0399C22.5393 33.8304 23.035 33.7127 23.5584 33.7127C24.1002 33.7127 24.6124 33.8386 25.0669 34.0626V28.5537C25.0669 27.2806 26.0177 26.3503 27.1658 26.3599C28.3538 26.3697 29.0668 27.2222 29.0668 28.4363V34.1947H29.9773H32.0368V27.8288C32.0368 25.4591 30.5123 23.7744 28.1757 23.7744C26.9481 23.7744 25.7402 24.3229 25.0669 25.3022V20.8343H22.0967ZM42.8554 50.1163C43.8654 50.1163 44.5781 49.4305 44.5781 48.4513C44.5781 47.4915 43.8654 46.806 42.8554 46.806C41.8654 46.806 41.1328 47.4915 41.1328 48.4513C41.1328 49.4307 41.8656 50.1163 42.8554 50.1163ZM41.3704 35.8568L41.3309 39.6175L42.0833 45.1606H43.6277L44.4197 39.6175L44.3408 35.8568V35.3682H41.3703L41.3704 35.8568ZM44.3408 34.1946V33.9283V24.166H41.3704V25.5568C40.5786 24.4403 39.3706 23.7743 37.925 23.7743C35.0737 23.7743 33.0739 26.0072 33.0739 29.1803C33.0739 32.3533 35.0737 34.5863 37.925 34.5863C39.3706 34.5863 40.5786 33.9205 41.3704 32.804V33.9283V34.1946H44.3408ZM38.6973 32.0008C37.1528 32.0008 36.044 30.8061 36.044 29.1803C36.044 27.5547 37.1528 26.3597 38.6973 26.3597C40.2418 26.3597 41.3507 27.5547 41.3507 29.1803C41.3507 30.8061 40.2418 32.0008 38.6973 32.0008ZM46.8033 30.9431C46.8033 33.0777 48.1101 34.5863 50.1298 34.5863C50.7636 34.5863 51.5556 34.4687 52.1695 34.273V31.9028C51.8329 32.0008 51.3972 32.0595 51.1201 32.0595C50.2884 32.0595 49.7734 31.4916 49.7734 30.6492V26.399H52.0705V24.1658H49.7734V21.6392H47.2785L46.942 24.1658H45.3775V26.399H46.8033V30.9431ZM13.8848 38.9322L16.1024 45.3959H11.667L13.8848 38.9322ZM11.0136 47.7464H16.7561L17.5283 50.0577H21.0132L16.3005 36.1117H11.469L6.73657 50.0577H10.2414L11.0136 47.7464ZM22.0699 50.6843C22.0699 51.5262 21.5155 52.0947 20.664 52.0947C20.268 52.0947 19.7929 52.0555 19.4561 51.9577V54.2884C20.0305 54.4843 20.9215 54.602 21.654 54.602C23.6737 54.602 25.04 53.1916 25.04 51.0763V40.0804C24.5925 40.296 24.0899 40.4171 23.5584 40.4171C23.0243 40.4171 22.5192 40.2949 22.0699 40.0769V50.6843ZM31.5302 47.9277C29.9857 47.9277 28.8769 46.733 28.8769 45.1071C28.8769 43.4815 29.9857 42.2866 31.5302 42.2866C33.0747 42.2866 34.1836 43.4815 34.1836 45.1071C34.1836 46.733 33.0747 47.9277 31.5302 47.9277ZM34.2033 41.4837C33.4114 40.3671 32.2035 39.7011 30.758 39.7011C27.9067 39.7011 25.9067 41.934 25.9067 45.1071C25.9067 48.2802 27.9067 50.5131 30.758 50.5131C32.2036 50.5131 33.4114 49.8473 34.2033 48.7309V50.1214H37.1738V40.0928H34.2033V41.4837Z" fill="#FEFEFE"/>
<path d="M14.6123 32.0351C12.2407 32.0351 10.5466 30.2103 10.5466 27.6225C10.5466 25.0344 12.2218 23.2096 14.6123 23.2096C16.3441 23.2096 17.8498 24.3826 18.2263 26.0211L21.2002 25.6861C20.7107 22.6884 17.9252 20.5285 14.5369 20.5285C10.3962 20.5285 7.38452 23.5075 7.38452 27.6225C7.38452 31.7371 10.3962 34.7162 14.5369 34.7162C17.9628 34.7162 20.7485 32.6121 21.2002 29.6891L18.245 29.2981C17.8309 30.8806 16.3064 32.0351 14.6123 32.0351Z" fill="#FEFEFE"/>
<path fill-rule="evenodd" clip-rule="evenodd" d="M23.5582 35.3682C24.5056 35.3682 25.2735 36.128 25.2735 37.0651C25.2735 38.002 24.5055 38.7616 23.5582 38.7616C22.611 38.7616 21.843 38.002 21.843 37.0651C21.843 36.128 22.6111 35.3682 23.5582 35.3682Z" fill="#FEFEFE"/>
</g>
<defs>
<clipPath id="clip0">
<rect width="60" height="70" fill="white"/>
</clipPath>
</defs>
</svg>
