<svg width="50" height="50" viewBox="0 0 50 50" fill="none" xmlns="http://www.w3.org/2000/svg">
<path d="M42.4005 28.6031L41.6015 28.1148L42.4005 27.6233C44.5287 26.3226 44.5333 24.1073 42.4005 22.8038L41.6015 22.3155L42.4005 21.8241C44.5342 20.52 44.5268 17.4256 42.4032 16.1278L26.7372 6.49224C25.6632 5.83592 24.329 5.83592 23.255 6.49224C23.2541 6.49283 23.2532 6.49343 23.2521 6.49402L7.59948 16.1261C5.46636 17.4298 5.47267 20.5243 7.59659 21.8223L8.39837 22.3156L7.59948 22.8038C5.474 24.1028 5.46495 26.3187 7.59659 27.6214L8.39837 28.1148L7.59948 28.603C5.46576 29.907 5.46888 32.5654 7.59659 33.8657L23.255 43.5014C24.3175 44.1506 25.6517 44.1647 26.7399 43.4997L42.4005 33.8675C44.5333 32.5642 44.5331 29.9064 42.4005 28.6031ZM8.76316 18.0237L24.4187 8.38986L24.4183 8.39016C24.7759 8.17292 25.2194 8.17344 25.5737 8.39001L41.2398 18.0255C41.9485 18.4585 41.9527 19.4892 41.2371 19.9265C40.0873 20.6337 26.0823 29.2476 25.5766 29.5587C25.2185 29.7775 24.7739 29.7774 24.4189 29.5605C23.7196 29.1302 9.386 20.3098 8.76041 19.9248C8.05162 19.4917 8.04724 18.4612 8.76316 18.0237ZM8.22759 25.2135C8.22871 25.1761 8.32682 24.968 8.76026 24.7031L10.5253 23.6244L23.2551 31.4579C24.3199 32.1085 25.6542 32.1197 26.7399 31.4562L39.4741 23.6239L41.2398 24.703C41.6733 24.9679 41.7714 25.1761 41.7725 25.2133C41.7714 25.2509 41.6732 25.4591 41.2371 25.7256C40.087 26.4329 26.0823 35.0467 25.5765 35.3578C25.2184 35.5766 24.7738 35.5765 24.4188 35.3596C23.9127 35.0481 9.92171 26.4386 8.76034 25.7239C8.32682 25.4589 8.22871 25.2508 8.22759 25.2135ZM41.2371 31.9698L25.5765 41.6021C25.2185 41.8209 24.7738 41.8208 24.4187 41.6039L8.76019 31.9682C8.05296 31.5361 8.05214 30.9349 8.76019 30.5023L10.5253 29.4237L23.2551 37.2571C24.3213 37.9086 25.6556 37.9181 26.7399 37.2554L39.4741 29.4232L41.2398 30.5023C41.5784 30.7092 41.7725 30.9763 41.7725 31.2352C41.7725 31.4942 41.5783 31.7614 41.2371 31.9698Z" fill="white"/>
</svg>
