<svg width="50" height="50" viewBox="0 0 50 50" fill="none" xmlns="http://www.w3.org/2000/svg">
<path d="M42.8867 32.793H7.11328C6.49845 32.793 6 33.2914 6 33.9062V42.8867C6 43.5015 6.49845 44 7.11328 44H42.8867C43.5015 44 44 43.5015 44 42.8867V33.9062C44 33.2914 43.5015 32.793 42.8867 32.793ZM41.7734 41.7734H39.4727V38.3594C39.4727 37.7445 38.9742 37.2461 38.3594 37.2461C37.7445 37.2461 37.2461 37.7445 37.2461 38.3594V41.7734H35.0195V40.5859C35.0195 39.9711 34.5211 39.4727 33.9062 39.4727C33.2914 39.4727 32.793 39.9711 32.793 40.5859V41.7734H30.5664V38.3594C30.5664 37.7445 30.068 37.2461 29.4531 37.2461C28.8383 37.2461 28.3398 37.7445 28.3398 38.3594V41.7734H26.1133V40.5859C26.1133 39.9711 25.6148 39.4727 25 39.4727C24.3852 39.4727 23.8867 39.9711 23.8867 40.5859V41.7734H21.6602V38.3594C21.6602 37.7445 21.1617 37.2461 20.5469 37.2461C19.932 37.2461 19.4336 37.7445 19.4336 38.3594V41.7734H17.207V40.5859C17.207 39.9711 16.7086 39.4727 16.0938 39.4727C15.4789 39.4727 14.9805 39.9711 14.9805 40.5859V41.7734H12.7539V38.3594C12.7539 37.7445 12.2555 37.2461 11.6406 37.2461C11.0258 37.2461 10.5273 37.7445 10.5273 38.3594V41.7734H8.22656V35.0195H41.7734V41.7734Z" fill="white"/>
<path d="M42.8867 12.7539C43.5015 12.7539 44 12.2555 44 11.6406V7.11328C44 6.49845 43.5015 6 42.8867 6H38.3594C37.7445 6 37.2461 6.49845 37.2461 7.11328V8.22656H12.7539V7.11328C12.7539 6.49845 12.2555 6 11.6406 6H7.11328C6.49845 6 6 6.49845 6 7.11328V11.6406C6 12.2555 6.49845 12.7539 7.11328 12.7539H8.22656V23.8867H7.11328C6.49845 23.8867 6 24.3852 6 25V29.4531C6 30.068 6.49845 30.5664 7.11328 30.5664H11.6406C12.2555 30.5664 12.7539 30.068 12.7539 29.4531V28.3398C13.6216 28.3398 36.4248 28.3398 37.2461 28.3398V29.4531C37.2461 30.068 37.7445 30.5664 38.3594 30.5664H42.8867C43.5015 30.5664 44 30.068 44 29.4531V25C44 24.3852 43.5015 23.8867 42.8867 23.8867H41.7734V12.7539H42.8867ZM8.22656 8.22656H10.5273V10.5273H8.22656V8.22656ZM10.5273 28.3398H8.22656V26.1133H10.5273V28.3398ZM18.3203 26.1133L22.7734 20.1758L27.2266 26.1133H18.3203ZM30.0098 26.1133L26.1013 20.902L29.4531 15.8742L36.2792 26.1133H30.0098ZM37.6444 24.1472L30.3794 13.2496C29.9401 12.5908 28.9678 12.5881 28.5268 13.2496L24.6846 19.013L23.6641 17.6523C23.2187 17.0585 22.3273 17.0597 21.8828 17.6523L15.5371 26.1133H12.7539V25C12.7539 24.3852 12.2555 23.8867 11.6406 23.8867H10.4531V12.7539H11.6406C12.2555 12.7539 12.7539 12.2555 12.7539 11.6406V10.4531H37.2461V11.6406C37.2461 12.2555 37.7445 12.7539 38.3594 12.7539H39.5469V23.8867H38.3594C38.0871 23.8867 37.8379 23.9848 37.6444 24.1472ZM41.7734 28.3398H39.4727V26.1133H41.7734V28.3398ZM39.4727 10.5273V8.22656H41.7734V10.5273H39.4727Z" fill="white"/>
<path d="M17.9531 6.99805C15.7723 6.99805 13.998 8.77229 13.998 10.9531C13.998 13.134 15.7723 14.9082 17.9531 14.9082C20.134 14.9082 21.9082 13.134 21.9082 10.9531C21.9082 8.77229 20.134 6.99805 17.9531 6.99805ZM17.9531 12.2715C17.2262 12.2715 16.6348 11.6801 16.6348 10.9531C16.6348 10.2262 17.2262 9.63477 17.9531 9.63477C18.6801 9.63477 19.2715 10.2262 19.2715 10.9531C19.2715 11.6801 18.6801 12.2715 17.9531 12.2715Z" fill="white"/>
</svg>
