<svg width="50" height="50" viewBox="0 0 50 50" fill="none" xmlns="http://www.w3.org/2000/svg">
<path fill-rule="evenodd" clip-rule="evenodd" d="M14.812 36.3571C12.0482 36.3571 9.5835 34.5747 8.6864 31.9282L8.62297 31.7281C8.41455 31.0279 8.32394 30.4367 8.32394 29.8456V18.0139L4.12843 32.0646C3.58474 34.129 4.81711 36.2753 6.88315 36.8482L33.6148 44.0327C33.9501 44.1237 34.2853 44.1601 34.6115 44.1601C36.3332 44.1601 37.91 43.0142 38.3449 41.3226L39.9035 36.3571H14.812Z" fill="white"/>
<path fill-rule="evenodd" clip-rule="evenodd" d="M41.1723 6H15.2472C12.864 6 10.9248 7.94618 10.9248 10.338V29.4179C10.9248 31.8097 12.864 33.7558 15.2472 33.7558H41.1723C43.5555 33.7558 45.4947 31.8097 45.4947 29.4179V10.338C45.4947 7.94618 43.5555 6 41.1723 6ZM15.2472 9.46493H41.1723C41.6526 9.46493 42.0332 9.85599 42.0332 10.3289V26.7168L14.3773 26.7077V10.338C14.3773 9.85599 14.7669 9.47403 15.2381 9.47403L15.2472 9.46493Z" fill="white"/>
<path fill-rule="evenodd" clip-rule="evenodd" d="M27.7701 20.9601C28.7397 20.9601 29.5733 20.6146 30.262 19.9234C30.9507 19.2322 31.295 18.3955 31.295 17.4225C31.295 16.4494 30.9507 15.6127 30.262 14.9215C29.5733 14.2303 28.7397 13.8848 27.7701 13.8848C26.8005 13.8848 25.9668 14.2303 25.2781 14.9215C24.5895 15.6127 24.2451 16.4494 24.2451 17.4225C24.2451 18.3955 24.5895 19.2322 25.2781 19.9234C25.9668 20.6146 26.8005 20.9601 27.7701 20.9601Z" fill="white"/>
<path fill-rule="evenodd" clip-rule="evenodd" d="M33.9319 25.18C33.9138 24.898 33.8685 24.5797 33.8141 24.2523C33.7507 23.925 33.6782 23.6066 33.5876 23.3156C33.4969 23.0155 33.361 22.7245 33.207 22.4426C33.0439 22.1516 32.8445 21.8969 32.627 21.6877C32.4005 21.4695 32.1196 21.2967 31.8024 21.1694C31.4853 21.0421 31.1228 20.9784 30.7422 20.9784C30.5972 20.9784 30.4523 21.0421 30.1713 21.2239C29.9992 21.3331 29.7998 21.4695 29.5733 21.6059C29.383 21.7241 29.1202 21.8424 28.803 21.9515C28.4859 22.0515 28.1687 22.1061 27.8606 22.1061C27.5435 22.1061 27.2263 22.0515 26.9182 21.9515C26.6011 21.8514 26.3383 21.7332 26.148 21.615C25.9305 21.4695 25.7221 21.3422 25.5499 21.233C25.269 21.0511 25.124 20.9875 24.9791 20.9875C24.5985 20.9875 24.2451 21.0511 23.9189 21.1785C23.6017 21.3058 23.3208 21.4786 23.0943 21.6968C22.8768 21.906 22.6865 22.1607 22.5143 22.4517C22.3512 22.7336 22.2243 23.0246 22.1337 23.3247C22.0431 23.6157 21.9616 23.925 21.9072 24.2614C21.8528 24.5888 21.8075 24.898 21.7894 25.1891C21.7713 25.471 21.7622 25.762 21.7622 26.053C21.7622 26.8169 22.0069 27.4354 22.4871 27.8992C22.9583 28.3539 23.5836 28.5812 24.3448 28.5812H31.3856C32.1468 28.5812 32.772 28.3539 33.2432 27.8992C33.7235 27.4444 33.9681 26.826 33.9681 26.053C33.9681 25.7529 33.9591 25.4619 33.941 25.1891L33.9319 25.18Z" fill="white"/>
</svg>
