<svg width="16" height="17" viewBox="0 0 16 17" fill="none" xmlns="http://www.w3.org/2000/svg">
<path fill-rule="evenodd" clip-rule="evenodd" d="M8.00067 0C5.828 0 5.55533 0.00952522 4.702 0.0484616C3.85033 0.0875652 3.269 0.222756 2.76033 0.421115C2.23417 0.625991 1.78783 0.90005 1.34317 1.34606C0.898167 1.79191 0.624833 2.23943 0.419833 2.76682C0.2215 3.27701 0.0865 3.86005 0.0481667 4.71365C0.01 5.56924 0 5.8428 0 8.02124C0 10.1997 0.00966667 10.4722 0.0483333 11.3278C0.0875 12.1818 0.222333 12.7646 0.42 13.2746C0.6245 13.8022 0.897833 14.2497 1.34267 14.6956C1.78717 15.1418 2.2335 15.4165 2.75933 15.6214C3.26833 15.8197 3.84983 15.9549 4.70133 15.994C5.55467 16.0329 5.82717 16.0425 7.99967 16.0425C10.1725 16.0425 10.4443 16.0329 11.2977 15.994C12.1493 15.9549 12.7313 15.8197 13.2403 15.6214C13.7663 15.4165 14.212 15.1418 14.6565 14.6956C15.1015 14.2497 15.3748 13.8022 15.5798 13.2748C15.7765 12.7646 15.9115 12.1816 15.9515 11.328C15.9898 10.4724 15.9998 10.1997 15.9998 8.02124C15.9998 5.8428 15.9898 5.56941 15.9515 4.71381C15.9115 3.85989 15.7765 3.27701 15.5798 2.76699C15.3748 2.23943 15.1015 1.79191 14.6565 1.34606C14.2115 0.899882 13.7665 0.625823 13.2398 0.421115C12.7298 0.222756 12.1482 0.0875652 11.2965 0.0484616C10.4432 0.00952522 10.1715 0 7.99817 0H8.00067ZM7.28403 1.44558C7.49703 1.44525 7.73469 1.44558 8.00169 1.44558C10.1377 1.44558 10.3909 1.45327 11.2344 1.4917C12.0144 1.52746 12.4377 1.65814 12.7197 1.76793C13.093 1.91332 13.3592 2.08711 13.639 2.36786C13.919 2.6486 14.0924 2.91597 14.2377 3.2903C14.3472 3.57271 14.4777 3.99717 14.5132 4.77924C14.5515 5.62481 14.5599 5.87882 14.5599 8.01948C14.5599 10.1602 14.5515 10.4142 14.5132 11.2597C14.4775 12.0418 14.3472 12.4663 14.2377 12.7487C14.0927 13.123 13.919 13.3895 13.639 13.6701C13.359 13.9509 13.0932 14.1246 12.7197 14.27C12.438 14.3803 12.0144 14.5107 11.2344 14.5464C10.391 14.5849 10.1377 14.5932 8.00169 14.5932C5.86553 14.5932 5.61236 14.5849 4.76903 14.5464C3.98903 14.5103 3.56569 14.3797 3.28353 14.2699C2.91019 14.1245 2.64353 13.9507 2.36353 13.6699C2.08353 13.3892 1.91019 13.1225 1.76486 12.748C1.65536 12.4656 1.52486 12.0411 1.48936 11.2591C1.45103 10.4135 1.44336 10.1595 1.44336 8.01748C1.44336 5.87547 1.45103 5.62281 1.48936 4.77723C1.52503 3.99516 1.65536 3.57071 1.76486 3.28796C1.90986 2.91363 2.08353 2.64626 2.36353 2.36552C2.64353 2.08477 2.91019 1.91098 3.28353 1.76526C3.56553 1.65497 3.98903 1.52462 4.76903 1.48869C5.50703 1.45527 5.79303 1.44525 7.28403 1.44358V1.44558ZM12.2705 2.77733C11.7405 2.77733 11.3105 3.20797 11.3105 3.73954C11.3105 4.27095 11.7405 4.70209 12.2705 4.70209C12.8005 4.70209 13.2305 4.27095 13.2305 3.73954C13.2305 3.20814 12.8005 2.777 12.2705 2.777V2.77733ZM8.00091 3.90198C5.73208 3.90198 3.89258 5.74636 3.89258 8.02122C3.89258 10.2961 5.73208 12.1396 8.00091 12.1396C10.2697 12.1396 12.1086 10.2961 12.1086 8.02122C12.1086 5.74636 10.2696 3.90198 8.00074 3.90198H8.00091ZM8.00065 5.34757C9.47332 5.34757 10.6673 6.54457 10.6673 8.02131C10.6673 9.49789 9.47332 10.6951 8.00065 10.6951C6.52782 10.6951 5.33398 9.49789 5.33398 8.02131C5.33398 6.54457 6.52782 5.34757 8.00065 5.34757Z" fill="#F2F2F2"/>
</svg>
