<svg width="114" height="34" viewBox="0 0 114 34" fill="none" xmlns="http://www.w3.org/2000/svg">
<g clip-path="url(#clip0)">
<path d="M3.7994 0.00012207H0V17.3711H3.7994V0.00012207Z" fill="#487A9D"/>
<path d="M9.92562 0H6.12622V17.371H9.92562V0Z" fill="#487A9D"/>
<path d="M6.15576 17.371C6.15576 17.371 6.45029 0 23.6507 0V3.73067C9.86681 3.73067 9.95517 17.371 9.95517 17.371H6.15576Z" fill="#487A9D"/>
<path d="M11.7219 17.371C11.7219 17.371 11.8397 5.80011 23.6503 5.80011V9.53078C14.9028 9.53078 15.5213 17.371 15.5213 17.371H11.7219Z" fill="#487A9D"/>
<path d="M21.1469 17.3714C22.5133 17.3714 23.6209 16.2753 23.6209 14.9231C23.6209 13.571 22.5133 12.4749 21.1469 12.4749C19.7806 12.4749 18.6729 13.571 18.6729 14.9231C18.6729 16.2753 19.7806 17.3714 21.1469 17.3714Z" fill="#487A9D"/>
<path d="M27.7771 17.748H40.6993V14.4576H31.8578V0.299133H27.7771V17.748Z" fill="#487A9D"/>
<path d="M51.2234 18.0471C56.765 18.0471 60.871 14.2333 60.871 9.02355C60.871 3.81382 56.765 0 51.2234 0C45.6565 0 41.5759 3.83875 41.5759 9.02355C41.5759 14.2083 45.6565 18.0471 51.2234 18.0471ZM51.2234 14.6072C48.0748 14.6072 45.7069 12.3388 45.7069 9.02355C45.7069 5.70827 48.0748 3.43991 51.2234 3.43991C54.3721 3.43991 56.7398 5.70827 56.7398 9.02355C56.7398 12.3388 54.3721 14.6072 51.2234 14.6072Z" fill="#487A9D"/>
<path d="M75.8522 13.8594C74.8195 14.4078 73.7868 14.6072 72.6783 14.6072C69.303 14.6072 66.9605 12.289 66.9605 9.02355C66.9605 5.70827 69.303 3.43991 72.7287 3.43991C74.5172 3.43991 76.0034 4.06309 77.288 5.40915L79.9077 3.01616C78.1949 1.04693 75.6256 0 72.5273 0C66.9101 0 62.8293 3.76397 62.8293 9.02355C62.8293 14.2831 66.9101 18.0471 72.4517 18.0471C74.9706 18.0471 77.6407 17.2743 79.5803 15.8287V8.74936H75.8522V13.8594Z" fill="#487A9D"/>
<path d="M87.4261 14.5075V10.4693H95.6126V7.32854H87.4261V3.53964H96.6958V0.299133H83.3706V17.748H97.0232V14.5075H87.4261Z" fill="#487A9D"/>
<path d="M104.326 14.5075V10.4693H112.512V7.32854H104.326V3.53964H113.595V0.299133H100.27V17.748H113.923V14.5075H104.326Z" fill="#487A9D"/>
<path d="M112.314 22.4663H1.2C0.537258 22.4663 0 22.998 0 23.6538V32.0626C0 32.7184 0.537258 33.2501 1.2 33.2501H112.314C112.976 33.2501 113.514 32.7184 113.514 32.0626V23.6538C113.514 22.998 112.976 22.4663 112.314 22.4663Z" fill="#487A9D"/>
<path d="M26.3715 31.6251C25.6087 31.6251 24.9149 31.449 24.2901 31.0967C23.6725 30.7372 23.1858 30.2483 22.8299 29.6301C22.4739 29.0119 22.2959 28.3324 22.2959 27.592C22.2959 26.8515 22.4739 26.1721 22.8299 25.5539C23.1858 24.9356 23.6725 24.4504 24.2901 24.098C24.9149 23.7386 25.6087 23.5589 26.3715 23.5589C27.1343 23.5589 27.8244 23.7386 28.4419 24.098C29.0668 24.4504 29.5571 24.9356 29.9131 25.5539C30.2691 26.1721 30.4471 26.8515 30.4471 27.592C30.4471 28.3324 30.2691 29.0119 29.9131 29.6301C29.5571 30.2483 29.0668 30.7372 28.4419 31.0967C27.8244 31.449 27.1343 31.6251 26.3715 31.6251ZM26.3715 30.2448C26.851 30.2448 27.2905 30.1334 27.69 29.9105C28.0896 29.6876 28.402 29.3749 28.6272 28.9724C28.8597 28.5697 28.9759 28.1096 28.9759 27.592C28.9759 27.0744 28.8597 26.6142 28.6272 26.2117C28.402 25.8091 28.0896 25.4963 27.69 25.2734C27.2905 25.0506 26.851 24.9391 26.3715 24.9391C25.8921 24.9391 25.4525 25.0506 25.0529 25.2734C24.6606 25.4963 24.3483 25.8091 24.1157 26.2117C23.8906 26.6142 23.7779 27.0744 23.7779 27.592C23.7779 28.1096 23.8906 28.5697 24.1157 28.9724C24.3483 29.3749 24.6606 29.6876 25.0529 29.9105C25.4525 30.1334 25.8921 30.2448 26.3715 30.2448Z" fill="white"/>
<path d="M40.0129 23.7314H42.8572C43.3657 23.7314 43.8161 23.8356 44.2084 24.0442C44.608 24.2527 44.9167 24.5439 45.1347 24.9177C45.3527 25.2843 45.4617 25.7013 45.4617 26.1686C45.4617 26.6646 45.3018 27.1067 44.9821 27.4949C44.6698 27.876 44.2738 28.1528 43.7944 28.3253L43.7835 28.4009L45.8757 31.3664V31.4526H44.1867L42.1707 28.5518H41.4841V31.4526H40.0129V23.7314ZM42.8463 27.2146C43.1805 27.2146 43.4529 27.114 43.6636 26.9127C43.8743 26.7114 43.9795 26.4561 43.9795 26.147C43.9795 25.8523 43.8779 25.6006 43.6745 25.3921C43.4783 25.1837 43.2095 25.0794 42.8681 25.0794H41.4841V27.2146H42.8463Z" fill="white"/>
<path d="M55.0928 23.7314H57.7299C58.5436 23.7314 59.252 23.8932 59.855 24.2167C60.4578 24.5402 60.9228 24.9931 61.2497 25.5755C61.5767 26.1578 61.7402 26.8299 61.7402 27.5921C61.7402 28.3541 61.5767 29.0263 61.2497 29.6086C60.9228 30.1909 60.4578 30.6438 59.855 30.9674C59.252 31.2909 58.5436 31.4526 57.7299 31.4526H55.0928V23.7314ZM57.6646 30.0723C58.5072 30.0723 59.1502 29.8531 59.5934 29.4145C60.0365 28.9687 60.2582 28.3613 60.2582 27.5921C60.2582 26.8228 60.0365 26.219 59.5934 25.7804C59.1502 25.3346 58.5072 25.1117 57.6646 25.1117H56.564V30.0723H57.6646Z" fill="white"/>
<path d="M71.311 23.7314H76.2584V25.1117H72.7822V26.9019H75.9097V28.2822H72.7822V30.0723H76.2584V31.4526H71.311V23.7314Z" fill="white"/>
<path d="M85.9436 23.7314H88.7877C89.2963 23.7314 89.7468 23.8356 90.139 24.0442C90.5385 24.2527 90.8473 24.5439 91.0653 24.9177C91.2833 25.2843 91.3922 25.7013 91.3922 26.1686C91.3922 26.6646 91.2324 27.1067 90.9127 27.4949C90.6003 27.876 90.2044 28.1528 89.7249 28.3253L89.714 28.4009L91.8063 31.3664V31.4526H90.1172L88.1012 28.5518H87.4147V31.4526H85.9436V23.7314ZM88.7768 27.2146C89.111 27.2146 89.3834 27.114 89.5941 26.9127C89.8048 26.7114 89.9102 26.4561 89.9102 26.147C89.9102 25.8523 89.8084 25.6006 89.605 25.3921C89.4088 25.1837 89.1401 25.0794 88.7987 25.0794H87.4147V27.2146H88.7768Z" fill="white"/>
</g>
<defs>
<clipPath id="clip0">
<rect width="114" height="33.25" fill="white"/>
</clipPath>
</defs>
</svg>
