<svg width="114" height="32" viewBox="0 0 114 32" fill="none" xmlns="http://www.w3.org/2000/svg">
<path d="M3.80196 0.554077H0V16.2862H3.80196V0.554077Z" fill="#FF5330"/>
<path d="M9.93258 0.552734H6.13062V16.2848H9.93258V0.552734Z" fill="#FF5330"/>
<path d="M6.15991 16.2848C6.15991 16.2848 6.45464 0.552734 23.6666 0.552734V3.93144C9.87346 3.93144 9.96187 16.2848 9.96187 16.2848H6.15991Z" fill="#FF5330"/>
<path d="M11.7302 16.2854C11.7302 16.2854 11.8481 5.80609 23.6666 5.80609V9.1848C14.9133 9.1848 15.5322 16.2854 15.5322 16.2854H11.7302Z" fill="#FF5330"/>
<path d="M21.161 16.284C22.5283 16.284 23.6367 15.2913 23.6367 14.0667C23.6367 12.8421 22.5283 11.8494 21.161 11.8494C19.7937 11.8494 18.6853 12.8421 18.6853 14.0667C18.6853 15.2913 19.7937 16.284 21.161 16.284Z" fill="#FF5330"/>
<path d="M27.7458 16.4268H40.6842V13.3814H31.8316V0.276855H27.7458V16.4268Z" fill="black"/>
<path d="M51.2214 16.7036C56.77 16.7036 60.8811 13.1737 60.8811 8.35181C60.8811 3.52991 56.77 0 51.2214 0C45.6476 0 41.5618 3.55298 41.5618 8.35181C41.5618 13.1506 45.6476 16.7036 51.2214 16.7036ZM51.2214 13.5198C48.0688 13.5198 45.698 11.4203 45.698 8.35181C45.698 5.28333 48.0688 3.18384 51.2214 3.18384C54.3741 3.18384 56.7448 5.28333 56.7448 8.35181C56.7448 11.4203 54.3741 13.5198 51.2214 13.5198Z" fill="black"/>
<path d="M75.8812 12.8276C74.8472 13.3352 73.8131 13.5198 72.7034 13.5198C69.3238 13.5198 66.9782 11.3742 66.9782 8.35181C66.9782 5.28333 69.3238 3.18384 72.7538 3.18384C74.5445 3.18384 76.0326 3.76062 77.3188 5.00647L79.9418 2.79163C78.2268 0.968995 75.6542 0 72.5521 0C66.9278 0 62.842 3.48377 62.842 8.35181C62.842 13.2199 66.9278 16.7036 72.4764 16.7036C74.9985 16.7036 77.6719 15.9884 79.6139 14.6503V8.09803H75.8812V12.8276Z" fill="black"/>
<path d="M87.4699 13.4275V9.68995H95.6667V6.78296H87.4699V3.27612H96.7512V0.276855H83.4093V16.4268H97.079V13.4275H87.4699Z" fill="black"/>
<path d="M104.391 13.4275V9.68995H112.587V6.78296H104.391V3.27612H113.672V0.276855H100.33V16.4268H114V13.4275H104.391Z" fill="black"/>
<path fill-rule="evenodd" clip-rule="evenodd" d="M114 21.1573H0V31.1795H114V21.1573ZM89.5775 27.7937C89.5775 29.0194 88.4429 30.0671 86.1034 30.0671C84.805 30.0671 83.4949 29.7214 82.7697 29.2185L83.413 27.9404C84.1032 28.3909 85.1325 28.7052 86.1151 28.7052C87.238 28.7052 87.6942 28.3699 87.6942 27.9194C87.6942 27.3497 86.8737 27.179 85.914 26.9793C84.5619 26.6979 82.9334 26.3591 82.9334 24.7661C82.9334 23.5194 84.0564 22.4822 86.3841 22.4822C87.4135 22.4822 88.4663 22.7022 89.2266 23.1318L88.6417 24.4203C87.8814 24.0327 87.0977 23.8441 86.3724 23.8441C85.2495 23.8441 84.8167 24.2213 84.8167 24.6822C84.8167 25.2427 85.6354 25.4104 86.5938 25.6067C87.9465 25.8837 89.5775 26.2178 89.5775 27.7937ZM26.747 29.9414H28.6419V23.9908H31.2621V22.6079H24.1268V23.9908H26.747V29.9414ZM45.5658 29.9414L43.7293 27.5842C44.7938 27.1756 45.4137 26.3689 45.4137 25.2689C45.4137 23.6241 44.0451 22.6079 41.8577 22.6079H38.3135V29.9414H40.2084V27.8985H41.8577H41.9513L43.5305 29.9414H45.5658ZM43.4954 25.2689C43.4954 26.0651 42.9105 26.547 41.7525 26.547H40.2084V23.9908H41.7525C42.9105 23.9908 43.4954 24.4622 43.4954 25.2689ZM61.0531 29.9414H59.0645L58.3393 28.3699H54.5377L53.8124 29.9414H51.8707L55.5202 22.6079H57.3918L61.0531 29.9414ZM56.4443 24.2737L55.1459 27.0813H57.7427L56.4443 24.2737ZM73.5724 22.6079V27.0604L69.5018 22.6079H67.9343V29.9414H69.8059V25.4889L73.8883 29.9414H75.444V22.6079H73.5724Z" fill="#FF5330"/>
</svg>
