<svg width="67" height="67" viewBox="0 0 67 67" fill="none" xmlns="http://www.w3.org/2000/svg">
<path d="M64.2166 57.3059C64.2995 57.3675 64.367 57.4475 64.4139 57.5396C64.4608 57.6317 64.4859 57.733 64.4876 57.8365C64.4959 57.9479 64.4817 58.0601 64.4448 58.166C64.4084 58.272 64.3506 58.3691 64.2753 58.452C64.2095 58.5178 64.1312 58.5701 64.0449 58.6053C63.9587 58.6405 63.8661 58.6581 63.7728 58.6572C63.6182 58.6526 63.4658 58.6216 63.3218 58.5651L63.1434 58.5119C63.0462 58.4847 62.9453 58.4709 62.8444 58.4713C62.6078 58.4742 62.3771 58.5479 62.1828 58.6836C61.9533 58.8461 61.7724 59.068 61.6593 59.3256C61.5153 59.6484 61.4453 59.9997 61.4541 60.3532V63.4921C61.4571 63.5985 61.4386 63.704 61.4001 63.8032C61.3616 63.9021 61.3034 63.9925 61.2297 64.0687C61.0773 64.2174 60.8729 64.3007 60.6602 64.3007C60.447 64.3007 60.2427 64.2174 60.0907 64.0687C60.0161 63.9925 59.9579 63.9025 59.919 63.8032C59.88 63.7044 59.8616 63.5985 59.8646 63.4921V58.022C59.8616 57.9156 59.88 57.8097 59.919 57.7109C59.9579 57.6116 60.0161 57.5216 60.0907 57.4454C60.2427 57.2967 60.447 57.2134 60.6602 57.2134C60.8729 57.2134 61.0773 57.2967 61.2297 57.4454C61.3034 57.5216 61.3616 57.612 61.4001 57.7109C61.4386 57.8101 61.4571 57.9156 61.4541 58.022V58.1937C61.6539 57.8348 61.9587 57.5459 62.3281 57.3658C62.7066 57.1782 63.1241 57.0827 63.5466 57.0869C63.7891 57.0777 64.0265 57.1556 64.2166 57.3059Z" fill="#78858B"/>
<path d="M58.2883 61.1082C58.1325 61.2401 57.934 61.3104 57.7301 61.3063H53.3613C53.445 61.7908 53.7042 62.2271 54.0899 62.5319C54.4546 62.823 54.9085 62.9796 55.3754 62.9758C55.661 62.985 55.9466 62.9519 56.2226 62.8766C56.3913 62.8255 56.5534 62.7543 56.7054 62.6647L56.9512 62.5123C57.0898 62.4381 57.2435 62.3967 57.4005 62.3925C57.4897 62.3912 57.5781 62.4084 57.6601 62.4427C57.7422 62.4771 57.8163 62.5278 57.8779 62.5918C57.9411 62.6513 57.9914 62.7233 58.0253 62.8029C58.0596 62.8829 58.0768 62.9687 58.0764 63.0554C58.0701 63.1852 58.0332 63.3116 57.9688 63.4243C57.9047 63.5369 57.8147 63.6328 57.7062 63.7044C57.4081 63.9339 57.0718 64.1085 56.7125 64.2208C56.1895 64.3958 55.6372 64.4641 55.0873 64.4209C54.5375 64.3778 54.0024 64.2241 53.5133 63.9695C52.9748 63.673 52.5313 63.23 52.2348 62.6911C51.93 62.1287 51.7755 61.4976 51.7851 60.8582C51.7704 60.1622 51.9342 59.4742 52.2612 58.8595C52.5518 58.3135 52.9865 57.8574 53.5175 57.5404C54.0241 57.2394 54.6033 57.0819 55.1924 57.084C55.7758 57.0844 56.3474 57.2498 56.8411 57.5614C57.3561 57.8771 57.7824 58.3189 58.0789 58.8457C58.3863 59.3771 58.5462 59.9809 58.5424 60.5944C58.5404 60.6936 58.5165 60.7908 58.4725 60.8796C58.4285 60.9683 58.3657 61.0462 58.2883 61.1082ZM53.3751 59.9818H56.8453V59.8896C56.8252 59.702 56.7665 59.5203 56.6732 59.3561C56.5798 59.192 56.4533 59.0492 56.3021 58.9361C55.9889 58.6757 55.5932 58.5346 55.1853 58.5383C54.1636 58.5383 53.5602 59.0195 53.3751 59.9818Z" fill="#78858B"/>
<path d="M49.1093 56.2076C48.9854 56.1096 48.9238 55.9379 48.9238 55.6908V55.4383C48.9238 55.1913 48.9908 55.0196 49.1236 54.922C49.3162 54.8119 49.5377 54.7633 49.7584 54.7821C50.067 54.7821 50.2835 54.8311 50.4075 54.922C50.5318 55.0124 50.5934 55.1913 50.5934 55.4383V55.6938C50.5934 55.9492 50.5289 56.1238 50.4008 56.2159C50.2722 56.3081 50.0544 56.3554 49.7458 56.3554C49.4376 56.3554 49.2337 56.3039 49.1093 56.2076ZM50.3279 64.0687C50.1759 64.2174 49.9715 64.3007 49.7584 64.3007C49.5457 64.3007 49.3413 64.2174 49.1889 64.0687C49.1148 63.9925 49.0566 63.9025 49.018 63.8033C48.9795 63.7044 48.9611 63.5985 48.9644 63.4921V58.022C48.9611 57.9156 48.9795 57.8101 49.018 57.7109C49.0566 57.612 49.1148 57.5216 49.1889 57.4454C49.3413 57.2967 49.5457 57.2138 49.7584 57.2138C49.9715 57.2138 50.1759 57.2967 50.3279 57.4454C50.4024 57.5216 50.4606 57.612 50.4992 57.7109C50.5377 57.8101 50.5561 57.9156 50.5528 58.022V63.4921C50.5561 63.5985 50.5377 63.7044 50.4992 63.8033C50.4606 63.9025 50.4024 63.9925 50.3279 64.0687Z" fill="#78858B"/>
<path d="M47.6593 57.306C47.7426 57.3675 47.8105 57.4471 47.8578 57.5392C47.9047 57.6313 47.9302 57.7327 47.9315 57.8361C47.9399 57.9479 47.9256 58.0601 47.8892 58.1661C47.8528 58.272 47.795 58.3692 47.7196 58.4516C47.6534 58.5178 47.5747 58.5702 47.4884 58.6053C47.4018 58.6409 47.3088 58.6581 47.2154 58.6568C47.0613 58.6527 46.9093 58.6217 46.7661 58.5647L46.5873 58.5119C46.4901 58.4847 46.3896 58.4709 46.2887 58.4713C46.0517 58.4738 45.821 58.5475 45.6271 58.6836C45.3976 58.8461 45.2163 59.0681 45.1037 59.3256C44.9596 59.6484 44.8893 59.9994 44.8985 60.3528V63.4921C44.9006 63.5989 44.8813 63.7049 44.8415 63.8041C44.8017 63.9029 44.7423 63.993 44.6669 64.0688C44.5145 64.2174 44.3101 64.3007 44.0974 64.3007C43.8843 64.3007 43.6799 64.2174 43.5279 64.0688C43.4538 63.9925 43.3956 63.9021 43.3571 63.8033C43.3185 63.704 43.3001 63.5985 43.303 63.4921V58.022C43.3001 57.9156 43.3185 57.8101 43.3571 57.7109C43.3956 57.6121 43.4538 57.5216 43.5279 57.4454C43.6799 57.2967 43.8843 57.2134 44.0974 57.2134C44.3101 57.2134 44.5145 57.2967 44.6669 57.4454C44.741 57.5216 44.7996 57.6116 44.8382 57.7105C44.8771 57.8097 44.8955 57.9156 44.893 58.022V58.1937C45.0924 57.8348 45.3976 57.5459 45.7665 57.3658C46.1451 57.1782 46.5626 57.0828 46.9851 57.0865C47.2288 57.0765 47.4683 57.1544 47.6593 57.306Z" fill="#78858B"/>
<path d="M41.9114 57.3059C41.9943 57.3675 42.0622 57.4475 42.1091 57.5392C42.156 57.6313 42.1811 57.733 42.1824 57.8365C42.1912 57.9479 42.1769 58.0601 42.1405 58.166C42.1045 58.2716 42.0467 58.3691 41.9717 58.452C41.9056 58.5182 41.827 58.5705 41.7404 58.6057C41.6539 58.6409 41.5611 58.6585 41.4676 58.6572C41.3131 58.6526 41.1606 58.6216 41.0168 58.5651L40.8381 58.5119C40.7414 58.4847 40.6413 58.4709 40.5408 58.4713C40.3035 58.4738 40.0724 58.5479 39.8778 58.6836C39.6485 58.8465 39.4676 59.0684 39.3543 59.3256C39.2102 59.6484 39.1401 59.9997 39.1491 60.3532V63.4921C39.1523 63.5985 39.1341 63.7044 39.0955 63.8032C39.0569 63.9025 38.9986 63.9925 38.9244 64.0687C38.7721 64.2174 38.5678 64.3007 38.3549 64.3007C38.1421 64.3007 37.9377 64.2174 37.7854 64.0687C37.7112 63.9925 37.653 63.9025 37.6144 63.8032C37.5758 63.7044 37.5575 63.5985 37.5607 63.4921V58.022C37.5575 57.9156 37.5758 57.8097 37.6144 57.7109C37.653 57.6116 37.7112 57.5216 37.7854 57.4454C37.9377 57.2967 38.1421 57.2134 38.3549 57.2134C38.5678 57.2134 38.7721 57.2967 38.9244 57.4454C38.9986 57.5216 39.0569 57.6116 39.0955 57.7109C39.1341 57.8097 39.1523 57.9156 39.1491 58.022V58.1937C39.3497 57.8348 39.655 57.5463 40.0243 57.3658C40.4029 57.1782 40.8204 57.0827 41.2429 57.0869C41.4848 57.0777 41.7219 57.1556 41.9114 57.3059Z" fill="#78858B"/>
<path d="M35.6132 57.3059C35.6883 57.383 35.7469 57.4743 35.7855 57.5744C35.8241 57.6749 35.842 57.7821 35.838 57.8893V63.4921C35.8408 63.5985 35.8224 63.704 35.7838 63.8033C35.7452 63.9021 35.6872 63.9925 35.6132 64.0687C35.5394 64.1445 35.4507 64.2044 35.3527 64.2442C35.2547 64.284 35.1495 64.3032 35.0437 64.3003C34.94 64.3037 34.8368 64.2852 34.7407 64.2463C34.6446 64.2073 34.5576 64.1487 34.4854 64.0742C34.3383 63.9209 34.2549 63.7174 34.2523 63.5047C33.9874 63.7928 33.6664 64.0239 33.309 64.1835C32.9516 64.3434 32.5653 64.428 32.1739 64.433C31.5878 64.4393 31.0124 64.276 30.517 63.9628C30.0158 63.6416 29.6111 63.1906 29.3459 62.6576C29.0511 62.0705 28.9031 61.4201 28.9146 60.7635C28.9018 60.1053 29.0453 59.4537 29.3334 58.8624C29.5926 58.3277 29.9933 57.8746 30.4919 57.5517C30.9755 57.2398 31.5398 57.076 32.1153 57.0811C32.5241 57.0781 32.9293 57.1569 33.3073 57.3131C33.6527 57.4521 33.9708 57.6518 34.2467 57.9018V57.8893C34.2443 57.7829 34.2635 57.6765 34.3031 57.5777C34.3427 57.4785 34.4018 57.3884 34.477 57.3131C34.5504 57.2364 34.6391 57.1765 34.7372 57.1363C34.8353 57.0966 34.9407 57.0777 35.0465 57.0811C35.1513 57.0786 35.2554 57.097 35.3528 57.1355C35.4502 57.174 35.5388 57.2322 35.6132 57.3059ZM33.7791 62.3464C34.1493 61.9038 34.3427 61.3397 34.3221 60.7635C34.341 60.1848 34.1479 59.6195 33.7791 59.1736C33.6083 58.9684 33.3932 58.8046 33.1499 58.6945C32.9067 58.5848 32.6417 58.5312 32.3749 58.5383C32.1093 58.5312 31.8455 58.5848 31.6036 58.6945C31.3617 58.8046 31.1481 58.9684 30.979 59.1736C30.6273 59.6271 30.4358 60.1844 30.4345 60.7585C30.4333 61.3326 30.6223 61.8908 30.9721 62.3464C31.1417 62.5504 31.3555 62.7128 31.5974 62.8221C31.8392 62.931 32.1027 62.9838 32.3679 62.9758C32.6355 62.9846 32.9014 62.9323 33.1459 62.8234C33.3903 62.7141 33.6069 62.5512 33.7791 62.3464Z" fill="#78858B"/>
<path d="M28.0366 56.1544C28.0317 56.352 27.9621 56.543 27.8384 56.6975C27.7774 56.7846 27.6961 56.8554 27.6015 56.9039C27.5069 56.9529 27.4018 56.9776 27.2954 56.9764C27.1376 56.9751 26.9827 56.9341 26.8446 56.8579C26.3674 56.6426 25.8477 56.5388 25.3245 56.5534C24.8013 56.5681 24.2883 56.7013 23.824 56.9429C23.3707 57.1979 23.0022 57.5802 22.7646 58.0429C22.5104 58.5454 22.383 59.102 22.3933 59.6648C22.3933 60.7079 22.6724 61.4989 23.2308 62.0378C23.7891 62.5767 24.5243 62.846 25.4362 62.846C25.9239 62.8556 26.4068 62.7484 26.8446 62.5332C26.9754 62.4695 27.1179 62.4335 27.2634 62.4273C27.3763 62.4273 27.4876 62.4532 27.5886 62.5039C27.6897 62.5541 27.7776 62.6274 27.8454 62.7174C27.9723 62.8707 28.0424 63.0629 28.0436 63.2618C28.0454 63.3975 28.0086 63.5307 27.9375 63.6458C27.8644 63.7622 27.7586 63.8544 27.6332 63.9109C26.9511 64.2534 26.198 64.4306 25.4348 64.4276C24.6077 64.436 23.7905 64.2476 23.0507 63.8774C22.3312 63.5127 21.7311 62.949 21.3213 62.2543C20.8886 61.5395 20.6722 60.6739 20.6722 59.6581C20.6588 58.8101 20.8712 57.9734 21.2878 57.2347C21.6887 56.5296 22.2778 55.9496 22.9893 55.5597C23.7411 55.1519 24.5852 54.945 25.4404 54.958C26.2 54.9517 26.9499 55.1289 27.6262 55.4747C27.7548 55.5338 27.8626 55.6305 27.9358 55.7515C28.0089 55.8726 28.0441 56.0128 28.0366 56.1544Z" fill="#78858B"/>
<path d="M19.0557 57.4454C19.13 57.5216 19.1882 57.6116 19.2268 57.7109C19.2654 57.8097 19.2837 57.9156 19.2805 58.022V63.65C19.2805 64.7974 18.9715 65.6349 18.3537 66.1625C17.7358 66.6901 16.9104 66.9531 15.8774 66.951C15.5689 66.9502 15.2609 66.9255 14.9562 66.8773C14.6961 66.8434 14.4407 66.7789 14.1955 66.6859C13.7609 66.5 13.5441 66.2433 13.545 65.9167C13.5472 65.8447 13.5609 65.7739 13.5855 65.7061C13.6251 65.5327 13.7202 65.3769 13.8563 65.2622C13.9739 65.1642 14.122 65.1106 14.275 65.1102C14.3608 65.1093 14.4461 65.1223 14.5277 65.1491C14.5891 65.1755 14.6966 65.2203 14.8515 65.2819C15.0107 65.3451 15.1745 65.3958 15.3414 65.4339C15.5177 65.4745 15.698 65.4946 15.8789 65.4937C16.5051 65.4937 16.9662 65.3589 17.2621 65.0892C17.558 64.8191 17.706 64.3581 17.706 63.7057V63.5734C17.2463 64.1475 16.5311 64.4343 15.5606 64.4343C15.1319 64.4427 14.7097 64.3296 14.342 64.1094C13.9887 63.8924 13.7037 63.5805 13.5199 63.209C13.3202 62.7987 13.2207 62.3473 13.2295 61.8912V58.022C13.2264 57.9156 13.2446 57.8097 13.2832 57.7109C13.3218 57.6116 13.38 57.5216 13.4543 57.4454C13.6065 57.2967 13.8109 57.2134 14.0238 57.2134C14.2366 57.2134 14.441 57.2967 14.5933 57.4454C14.6675 57.5216 14.7257 57.6116 14.7643 57.7109C14.8029 57.8097 14.8212 57.9156 14.818 58.022V61.4168C14.818 61.975 14.9394 62.3745 15.1823 62.6157C15.4252 62.8565 15.7807 62.9779 16.2487 62.98C16.7075 62.98 17.063 62.8451 17.3152 62.5751C17.5664 62.3058 17.6934 61.9206 17.6934 61.4168V58.022C17.6902 57.9156 17.7085 57.8097 17.7471 57.7109C17.7857 57.6116 17.8439 57.5216 17.9182 57.4454C18.0704 57.2967 18.2748 57.2134 18.4877 57.2134C18.7005 57.2134 18.9049 57.2967 19.0572 57.4454H19.0557Z" fill="#DE1B1B"/>
<path d="M11.1291 55.247C11.2085 55.3202 11.2714 55.4094 11.3135 55.5091C11.3556 55.6083 11.376 55.7155 11.3733 55.8236V63.4921C11.3771 63.6006 11.3584 63.7082 11.3183 63.8091C11.2783 63.9096 11.2178 64.0009 11.1406 64.0767C11.0634 64.1529 10.9713 64.212 10.8701 64.2505C10.7689 64.289 10.6607 64.3058 10.5526 64.3003C10.4416 64.3041 10.3311 64.2857 10.2275 64.2459C10.1239 64.2061 10.0294 64.1458 9.94957 64.0688C9.8724 63.9934 9.81193 63.9025 9.77202 63.8024C9.73212 63.7019 9.71365 63.5943 9.71788 63.4867V58.1548L7.53757 61.4922C7.45169 61.5956 7.34822 61.6827 7.23189 61.7501C7.12423 61.8146 6.99965 61.8448 6.87457 61.8368C6.75351 61.8435 6.63333 61.8134 6.52977 61.7501C6.41365 61.6831 6.31059 61.5956 6.22546 61.4922L4.03542 58.0346V63.4921C4.04326 63.7044 3.96759 63.9113 3.82465 64.0688C3.75298 64.1437 3.66611 64.2028 3.56984 64.2421C3.47357 64.2811 3.3701 64.2991 3.26632 64.2949C3.16511 64.2982 3.06437 64.2798 2.97093 64.2409C2.87748 64.2015 2.79352 64.1429 2.72473 64.0688C2.58231 63.9113 2.50629 63.7044 2.51257 63.4921V55.8236C2.5112 55.7164 2.53236 55.6104 2.57468 55.512C2.61701 55.4136 2.67954 55.3253 2.75823 55.2528C2.83559 55.1758 2.92757 55.115 3.02874 55.0744C3.12991 55.0338 3.23822 55.0137 3.34728 55.0154C3.48586 55.0162 3.62222 55.0501 3.74509 55.1146C3.86685 55.1724 3.97128 55.2616 4.04798 55.3726L6.93457 59.8101L9.9105 55.3726C9.98169 55.2658 10.0774 55.177 10.1896 55.1146C10.3003 55.0501 10.4259 55.0158 10.554 55.0154C10.6604 55.0141 10.7659 55.0342 10.8646 55.074C10.9632 55.1138 11.0531 55.1724 11.1291 55.247Z" fill="#DE1B1B"/>
<path d="M50.1006 28.8254C49.7488 28.8224 49.4038 28.7243 49.1031 28.5416C48.802 28.3588 48.5562 28.0982 48.3912 27.7872C48.2258 27.4762 48.1479 27.1263 48.1655 26.7747C48.1827 26.423 48.2949 26.0826 48.4901 25.7894C50.7555 22.4256 51.9138 18.438 51.8028 14.3839C51.6914 10.3297 50.3166 6.41157 47.8703 3.17693C47.5575 2.76564 47.4214 2.24707 47.4913 1.73531C47.5613 1.22355 47.8314 0.760518 48.243 0.448072C48.6542 0.135624 49.1726 -0.000641748 49.6843 0.0692507C50.196 0.139143 50.6592 0.409469 50.9716 0.820759C53.9104 4.70358 55.5615 9.40786 55.6946 14.2755C55.8278 19.1431 54.4363 23.9307 51.7144 27.9683C51.536 28.2323 51.2957 28.4486 51.0143 28.598C50.7329 28.7474 50.4192 28.8255 50.1006 28.8254Z" fill="#DE1B1B"/>
<path d="M44.1669 22.727C43.8369 22.7234 43.5136 22.6363 43.2263 22.4739C42.9395 22.3115 42.6983 22.0791 42.5249 21.7983C42.352 21.5176 42.2528 21.1976 42.2368 20.8682C42.2209 20.5388 42.2883 20.2107 42.4332 19.9144C43.2908 18.1862 43.6899 16.2666 43.5923 14.3398C43.4943 12.4129 42.9031 10.5436 41.8749 8.91106C41.7382 8.69515 41.6454 8.45441 41.6018 8.20261C41.5582 7.95082 41.5646 7.69291 41.6207 7.44359C41.6767 7.19426 41.7813 6.95847 41.9286 6.74955C42.0756 6.54068 42.2628 6.36284 42.4785 6.2262C42.9148 5.9502 43.4424 5.85874 43.9462 5.97197C44.4495 6.0852 44.8875 6.39378 45.1635 6.82987C46.5504 9.0273 47.3485 11.5445 47.4817 14.1396C47.6148 16.7347 47.078 19.3204 45.9227 21.6481C45.7598 21.9736 45.5089 22.2472 45.1987 22.4379C44.8884 22.6285 44.5312 22.7287 44.1669 22.727Z" fill="#DE1B1B"/>
<path d="M16.8992 28.8253C16.5806 28.826 16.2667 28.7481 15.9852 28.5986C15.7038 28.4492 15.4636 28.2327 15.2857 27.9683C12.5637 23.9306 11.172 19.1431 11.3051 14.2755C11.4383 9.40785 13.0897 4.70357 16.0282 0.820733C16.34 0.409444 16.8023 0.138824 17.3135 0.0684082C17.8247 -0.00200787 18.343 0.133548 18.7543 0.445253C19.1656 0.756962 19.4362 1.21929 19.5066 1.73052C19.577 2.24176 19.4415 2.76003 19.1298 3.17132C16.6833 6.40596 15.3084 10.3241 15.1973 14.3783C15.0862 18.4324 16.2444 22.42 18.51 25.7838C18.7049 26.077 18.817 26.4174 18.8344 26.7691C18.8518 27.1207 18.7739 27.4705 18.6089 27.7816C18.4439 28.0926 18.1979 28.3532 17.897 28.536C17.596 28.7187 17.2513 28.8167 16.8992 28.8198V28.8253Z" fill="#DE1B1B"/>
<path d="M22.8329 22.727C22.4709 22.7263 22.1162 22.625 21.8083 22.4345C21.5005 22.244 21.2516 21.9717 21.0895 21.648C19.9344 19.3204 19.3976 16.7347 19.5306 14.1396C19.6636 11.5445 20.4619 9.0273 21.8488 6.82987C22.1248 6.39378 22.5627 6.0852 23.0662 5.97197C23.5698 5.85874 24.0976 5.9502 24.5337 6.2262C24.9698 6.50215 25.2784 6.94008 25.3916 7.44359C25.5048 7.94709 25.4134 8.47497 25.1374 8.91105C24.1077 10.5426 23.5144 12.4114 23.4144 14.3382C23.3144 16.2649 23.7111 18.185 24.5665 19.9144C24.7136 20.2109 24.7827 20.54 24.7673 20.8706C24.7519 21.2012 24.6524 21.5224 24.4783 21.8039C24.3043 22.0854 24.0613 22.3179 23.7725 22.4794C23.4836 22.6409 23.1583 22.7262 22.8273 22.727H22.8329Z" fill="#DE1B1B"/>
<path d="M49.8831 46.7966L37.6751 17.9923C38.2451 17.2198 38.5895 16.3042 38.6701 15.3475C38.7507 14.3908 38.5643 13.4305 38.1315 12.5735C37.6988 11.7165 37.0368 10.9963 36.2191 10.4932C35.4014 9.99007 34.4602 9.72366 33.5001 9.72366C32.54 9.72366 31.5988 9.99007 30.7811 10.4932C29.9635 10.9963 29.3014 11.7165 28.8687 12.5735C28.436 13.4305 28.2495 14.3908 28.3301 15.3475C28.4107 16.3042 28.7552 17.2198 29.3252 17.9923L17.1172 46.7966C17.0129 47.0327 16.9566 47.2873 16.9515 47.5453C16.9465 47.8032 16.9928 48.0599 17.0879 48.2999C17.1829 48.5398 17.3247 48.7584 17.505 48.9431C17.6853 49.1273 17.9006 49.2743 18.1382 49.3752C18.3759 49.4757 18.6312 49.5281 18.8892 49.5289C19.1473 49.5302 19.403 49.4799 19.6414 49.3811C19.8799 49.2823 20.0963 49.137 20.2781 48.954C20.4599 48.7705 20.6034 48.5532 20.7003 48.3141L21.9747 45.3046C25.174 43.2707 29.261 42.1543 33.6076 42.1543C37.7951 42.1543 41.79 43.2066 44.9473 45.1245L46.2999 48.3166C46.3966 48.5562 46.5403 48.7735 46.722 48.9565C46.9037 49.1399 47.1202 49.2852 47.3589 49.3836C47.5972 49.4824 47.853 49.5327 48.111 49.5318C48.3689 49.531 48.6244 49.4787 48.8618 49.3777C49.0997 49.2772 49.3149 49.1303 49.4954 48.9456C49.6754 48.7609 49.8174 48.5423 49.9125 48.3024C50.0075 48.0624 50.0536 47.8062 50.0485 47.5482C50.0435 47.2899 49.9874 47.0357 49.8831 46.7995V46.7966ZM33.5001 20.1C33.7731 20.1 34.0456 20.0785 34.3153 20.0358L39.3626 31.9339C35.4902 31.1282 31.4918 31.1453 27.6264 31.9842L32.6905 20.0372C32.9584 20.0791 33.229 20.1001 33.5001 20.1ZM33.6076 38.2584C30.428 38.2459 27.2708 38.7906 24.2793 39.8678L25.6751 36.5848C30.7257 34.814 36.2233 34.7815 41.2945 36.4927L42.6903 39.7799C39.7704 38.7633 36.6993 38.2494 33.6076 38.2598V38.2584Z" fill="#78858B"/>
</svg>
