<svg width="50" height="50" viewBox="0 0 50 50" fill="none" xmlns="http://www.w3.org/2000/svg">
<path d="M33.4102 6H17.082C14.8312 6 13 7.8312 13 10.082V39.918C13 42.1688 14.8312 44 17.082 44H33.4102C35.661 44 37.4922 42.1688 37.4922 39.918V10.082C37.4922 7.8312 35.661 6 33.4102 6ZM20.9414 8.22656H29.5508V9.33984C29.5508 9.54446 29.3843 9.71094 29.1797 9.71094H21.3125C21.1079 9.71094 20.9414 9.54446 20.9414 9.33984V8.22656ZM35.2656 39.918C35.2656 40.9411 34.4333 41.7734 33.4102 41.7734H17.082C16.0589 41.7734 15.2266 40.9411 15.2266 39.918V10.082C15.2266 9.05893 16.0589 8.22656 17.082 8.22656H18.7148V9.33984C18.7148 10.7722 19.8802 11.9375 21.3125 11.9375H29.1797C30.612 11.9375 31.7773 10.7722 31.7773 9.33984V8.22656H33.4102C34.4333 8.22656 35.2656 9.05893 35.2656 10.082V39.918Z" fill="white"/>
<path d="M19.2992 20.1535C19.3919 20.0274 19.4384 19.8604 19.4384 19.6526V17.9381H20.0507V16.2682H17.8019C17.7574 16.2682 17.7035 16.2905 17.6405 16.335C17.5774 16.3795 17.5459 16.4686 17.5459 16.6022V18.9289C17.5459 19.0329 17.5254 19.1349 17.4847 19.2351C17.4438 19.3353 17.3918 19.4243 17.3288 19.5023C17.2656 19.5802 17.1933 19.6433 17.1117 19.6915C17.0299 19.7398 16.9521 19.7639 16.8779 19.7639V21.2112C17.0339 21.2483 17.1841 21.341 17.3288 21.4895C17.4735 21.638 17.5459 21.831 17.5459 22.0684V24.5176C17.5459 24.6585 17.5774 24.7495 17.6405 24.7904C17.7035 24.831 17.7574 24.8516 17.802 24.8516H20.0507V23.1817H19.4384V21.3448C19.4384 21.1444 19.3901 20.9793 19.2937 20.8493C19.1971 20.7195 19.0934 20.6026 18.982 20.4987C19.1006 20.3948 19.2064 20.2799 19.2992 20.1535Z" fill="white"/>
<path d="M33.3749 19.6915C33.2969 19.6434 33.2263 19.5802 33.1633 19.5023C33.1001 19.4243 33.0481 19.3353 33.0074 19.2351C32.9666 19.1349 32.9462 19.0329 32.9462 18.9289V16.6022C32.9462 16.4686 32.9145 16.3795 32.8516 16.335C32.7884 16.2905 32.7348 16.2682 32.6902 16.2682H30.4414V17.9381H31.0537V19.6526C31.0537 19.8604 31.0999 20.0274 31.1929 20.1535C31.2856 20.2799 31.3913 20.3948 31.5102 20.4987C31.3988 20.6026 31.2948 20.7196 31.1984 20.8493C31.1019 20.9792 31.0537 21.1444 31.0537 21.3448V23.1817H30.4414V24.8516H32.6902C32.7348 24.8516 32.7885 24.8311 32.8517 24.7904C32.9147 24.7495 32.9463 24.6585 32.9463 24.5176V22.0684C32.9463 21.831 33.0187 21.6381 33.1634 21.4895C33.3081 21.341 33.4585 21.2483 33.6143 21.2112V19.7639C33.5325 19.7639 33.4528 19.7398 33.3749 19.6915Z" fill="white"/>
<path d="M29.1055 19.4336H21.3867V21.6602H29.1055V19.4336Z" fill="white"/>
<path d="M27.6211 14.9805H21.3867V17.207H27.6211V14.9805Z" fill="white"/>
<path d="M26.1367 23.8867H21.3867V26.1133H26.1367V23.8867Z" fill="white"/>
<path d="M28.586 34.6486C28.586 34.4403 28.5659 34.2365 28.5292 34.0387L29.6594 33.3862L28.5461 31.4578L27.4144 32.1112C27.106 31.8473 26.7494 31.6384 26.3595 31.5002V30.1953H24.1329V31.5001C23.743 31.6383 23.3864 31.8472 23.0781 32.1111L21.9463 31.4577L20.833 33.3859L21.9632 34.0384C21.9265 34.2364 21.9064 34.44 21.9064 34.6484C21.9064 34.8568 21.9265 35.0605 21.9632 35.2584L20.833 35.9108L21.9463 37.839L23.0781 37.1856C23.3864 37.4495 23.743 37.6584 24.1329 37.7966V39.1016H26.3595V37.7968C26.7494 37.6585 27.106 37.4497 27.4144 37.1858L28.5461 37.8392L29.6594 35.911L28.5292 35.2585C28.5659 35.0606 28.586 34.8569 28.586 34.6486ZM25.2462 35.7617C24.6323 35.7617 24.1329 35.2623 24.1329 34.6484C24.1329 34.0346 24.6323 33.5352 25.2462 33.5352C25.8601 33.5352 26.3595 34.0346 26.3595 34.6484C26.3595 35.2623 25.8601 35.7617 25.2462 35.7617Z" fill="white"/>
</svg>
