<svg width="50" height="50" viewBox="0 0 50 50" fill="none" xmlns="http://www.w3.org/2000/svg">
<path fill-rule="evenodd" clip-rule="evenodd" d="M33.5278 14.6938C33.5278 14.4245 33.2583 14.1937 33.0658 14.1937C33.0273 14.1937 32.9888 14.1937 32.9503 14.2322L31.2178 15.3478C31.0638 15.4632 30.9868 15.617 30.9868 15.7324C30.9868 15.8478 31.0253 16.0017 31.2178 16.1171L32.9503 17.2327C32.9888 17.2712 33.0273 17.2712 33.0658 17.2712C33.2583 17.2712 33.5278 17.0404 33.5278 16.7711C33.5278 16.6557 33.4893 16.5403 33.4123 16.5018L32.2188 15.7324L33.4123 14.9631C33.4893 14.9246 33.5278 14.8092 33.5278 14.6938Z" fill="white"/>
<path fill-rule="evenodd" clip-rule="evenodd" d="M36.9933 12.3472C36.8778 12.3472 36.7623 12.3857 36.7238 12.5011L34.2983 17.4634C34.2598 17.5019 34.2598 17.5404 34.2598 17.5788C34.2598 17.7327 34.4138 17.925 34.6448 17.925C34.7603 17.925 34.9143 17.8481 34.9528 17.7712L37.3783 12.8088C37.4168 12.7703 37.4168 12.7319 37.4168 12.6934C37.4168 12.4626 37.1858 12.3472 36.9933 12.3472Z" fill="white"/>
<path fill-rule="evenodd" clip-rule="evenodd" d="M40.458 15.3478L38.7255 14.2322C38.687 14.1937 38.6485 14.1937 38.61 14.1937C38.4175 14.1937 38.1479 14.4245 38.1479 14.6938C38.1479 14.8092 38.1864 14.9246 38.2635 14.9631L39.457 15.7324L38.2635 16.5018C38.1864 16.5403 38.1479 16.6557 38.1479 16.7711C38.1479 17.0404 38.4175 17.2712 38.61 17.2712C38.6485 17.2712 38.687 17.2712 38.7255 17.2327L40.458 16.1171C40.612 16.0017 40.689 15.8478 40.689 15.7324C40.689 15.617 40.6505 15.4632 40.458 15.3478Z" fill="white"/>
<path fill-rule="evenodd" clip-rule="evenodd" d="M41.305 8.76969H29.3313C28.7153 7.15404 27.1368 6 25.3273 6H17.2806C14.8936 6 12.9686 7.9234 12.9686 10.3084V15.1938C12.5066 15.617 12.2756 16.2709 12.3911 16.8864L12.6991 18.6175C12.8146 19.233 13.1226 19.5022 13.3921 19.6561C13.6616 19.81 13.9696 19.8869 14.2391 19.8869V20.1947C14.2391 21.7718 15.1631 23.5029 16.7416 24.9262C17.0496 25.1955 17.3576 25.4648 17.6657 25.6571V26.5803C17.6657 26.8496 17.4732 27.1189 17.1651 27.1574H17.1266C17.1266 27.1574 16.1641 27.4266 14.9321 27.7728H10.8511C10.3891 27.7728 9.96555 27.9652 9.61905 28.3114C9.31104 28.6576 9.15704 29.1192 9.19554 29.5424V29.6962C7.38602 30.6195 6.231 32.2351 6.1155 34.12C6.1155 34.12 6.1155 34.12 6.1155 34.1585L6 41.8136C6 42.3907 6.1925 42.8907 6.61601 43.3139C7.00101 43.6986 7.54002 43.9294 8.11753 43.9294H34.4904C35.0679 43.9294 35.5684 43.6986 35.9919 43.3139C36.3769 42.9292 36.6079 42.3907 36.6079 41.8136L36.4924 34.1585C36.4924 34.1585 36.4924 34.1585 36.4924 34.12C36.3769 32.1967 35.1834 30.5041 33.2584 29.6193C33.2199 29.6193 33.1814 29.5808 33.1429 29.5808V29.5424C33.1814 29.0808 33.0274 28.6191 32.7194 28.3114C32.4113 27.9652 31.9493 27.7728 31.4873 27.7728H27.6758C26.4438 27.4266 25.4813 27.1574 25.4813 27.1574H25.4428C25.1733 27.1189 24.9422 26.8496 24.9422 26.5803V25.6571C25.2503 25.4263 25.5583 25.1955 25.8663 24.9262C26.8673 24.003 27.6373 22.9644 28.0223 21.9642H31.6413L31.0253 24.5031C30.9098 24.9262 31.1023 25.3494 31.4488 25.5802C31.6028 25.6956 31.7953 25.734 31.9878 25.734C32.2188 25.734 32.4113 25.6571 32.6038 25.5032L37.3009 21.9257H41.3435C42.8065 21.9257 44 20.7332 44 19.2714V11.3855C44 9.92373 42.8065 8.73122 41.3435 8.73122L41.305 8.76969ZM28.3303 16.1555C28.5613 16.0786 28.7538 16.0401 28.8693 16.0401C29.0618 16.194 29.1388 16.4633 29.0618 16.6941L28.7538 18.4251C28.7153 18.6559 28.5998 18.7329 28.5998 18.7329C28.5228 18.7713 28.4458 18.8098 28.3303 18.8098V16.1555ZM14.0851 10.3084C14.0851 8.53888 15.5096 7.11557 17.2806 7.11557H25.3273C27.0983 7.11557 28.5228 8.53888 28.5228 10.3084V14.963C28.2533 15.0015 27.9068 15.1169 27.5603 15.2708V11.8856C27.5603 10.6546 26.5593 9.69292 25.3658 9.69292H23.8642C22.1317 9.69292 20.5147 9.69292 18.7822 9.69292H17.2806C16.0486 9.69292 15.0861 10.6931 15.0861 11.8856V15.2708C14.7396 15.0784 14.3931 15.0015 14.1236 14.963V10.3084H14.0851ZM13.9696 18.7329C13.9311 18.7329 13.8541 18.6559 13.8156 18.4251L13.5076 16.6941C13.4691 16.4248 13.5461 16.194 13.7001 16.0401C13.8156 16.0401 14.0466 16.0786 14.2391 16.1555V18.8098C14.1236 18.8098 14.0466 18.7713 13.9696 18.7329ZM9.04154 42.4291C9.04154 42.583 9.04154 42.6984 9.08004 42.8138H8.07903C7.80952 42.8138 7.57852 42.6984 7.38602 42.5061C7.19352 42.3137 7.11651 42.0829 7.11651 41.8136L7.23202 34.1585C7.30902 32.8121 8.04053 31.6581 9.27254 30.9272L9.96555 40.4673C9.96555 40.6596 10.0041 40.8135 10.0811 40.9673C9.46505 41.1597 9.00304 41.7367 9.00304 42.4291H9.04154ZM32.2958 40.5057L32.9889 30.8118C34.3749 31.5427 35.2219 32.7737 35.2989 34.197L35.4144 41.8521C35.4144 42.1214 35.2989 42.3522 35.1449 42.5445C34.9524 42.7369 34.7214 42.8523 34.4519 42.8523H33.4509C33.4894 42.7369 33.4894 42.583 33.4894 42.4676C33.4894 41.6982 32.9119 41.0443 32.1803 40.9673C32.2188 40.8135 32.2573 40.6981 32.2573 40.5442L32.2958 40.5057ZM32.4113 42.4291C32.4113 42.6599 32.2188 42.8138 32.0263 42.8138H10.5431C10.3121 42.8138 10.1581 42.6215 10.1581 42.4291C10.1581 42.1983 10.3506 42.0444 10.5431 42.0444H32.0263C32.2573 42.0444 32.4113 42.2368 32.4113 42.4291ZM31.8338 29.0808C31.9493 29.1962 31.9878 29.35 31.9878 29.5039L31.2178 40.3903C31.1793 40.6596 30.9483 40.8904 30.6788 40.8904H11.6596C11.3901 40.8904 11.1206 40.6596 11.1206 40.3903L10.3506 29.5039C10.3506 29.35 10.3891 29.1962 10.5046 29.0808C10.6201 28.9653 10.7356 28.8884 10.8896 28.8884H31.4488C31.6028 28.8884 31.7568 28.9653 31.8338 29.0808ZM24.2877 27.8113H18.3202C18.6282 27.5036 18.8207 27.0804 18.8207 26.6188V26.388C19.7062 26.8496 20.5532 27.0804 21.3232 27.0804C22.0547 27.0804 22.9402 26.8111 23.8257 26.388V26.6188C23.8257 27.0804 24.0182 27.5036 24.3262 27.8113H24.2877ZM25.0963 24.1184C23.8642 25.234 22.3627 25.9648 21.2847 25.9648C20.2067 25.9648 18.7437 25.234 17.4732 24.1184C16.1256 22.8874 15.3171 21.4641 15.3171 20.1947V16.6941C15.3171 16.6941 15.3171 16.6941 15.3556 16.6941C15.4711 16.6941 15.5481 16.6556 15.6636 16.6171C15.9716 16.5017 16.1256 16.2325 16.1256 15.8863V11.8471C16.1256 11.2316 16.6261 10.7316 17.2421 10.7316H18.7437C20.3992 10.7316 22.1702 10.7316 23.8257 10.7316H25.3273C25.9433 10.7316 26.4438 11.2316 26.4438 11.8471V15.8863C26.4438 16.194 26.6363 16.4633 26.9058 16.6171C27.0213 16.6556 27.1368 16.6941 27.2138 16.6941V20.1947C27.2138 21.4641 26.4438 22.8874 25.0578 24.1184H25.0963ZM42.8835 19.3099C42.8835 20.1562 42.1905 20.8486 41.3435 20.8486H37.1084C36.9929 20.8486 36.8774 20.8871 36.7619 20.964L32.1418 24.5031L32.8734 21.541C32.9119 21.3872 32.8734 21.1948 32.7579 21.0794C32.6424 20.9256 32.4883 20.8486 32.3343 20.8486H28.3303C28.3688 20.6178 28.3688 20.4255 28.3688 20.1947V19.8869C28.6383 19.8869 28.9463 19.8485 29.2158 19.6561C29.4468 19.5022 29.7933 19.1945 29.9088 18.579L30.2168 16.848C30.3323 16.194 30.1013 15.54 29.6393 15.1554V10.2699C29.6393 10.1161 29.6393 10.0007 29.6008 9.84679H41.305C42.152 9.84679 42.845 10.5392 42.845 11.3855V19.2714L42.8835 19.3099Z" fill="white" stroke="white" stroke-width="0.0166599"/>
<path fill-rule="evenodd" clip-rule="evenodd" d="M21.2846 37.4668C22.4396 37.4668 23.3636 36.5435 23.3636 35.3895C23.3636 34.2355 22.4396 33.3122 21.2846 33.3122C20.1296 33.3122 19.2056 34.2355 19.2056 35.3895C19.2056 36.5435 20.1296 37.4668 21.2846 37.4668ZM21.2846 34.3893C21.8236 34.3893 22.2471 34.8125 22.2471 35.351C22.2471 35.8896 21.8236 36.3127 21.2846 36.3127C20.7456 36.3127 20.3221 35.8896 20.3221 35.351C20.3221 34.8125 20.7456 34.3893 21.2846 34.3893Z" fill="white"/>
</svg>
