<svg width="50" height="50" viewBox="0 0 50 50" fill="none" xmlns="http://www.w3.org/2000/svg">
<path fill-rule="evenodd" clip-rule="evenodd" d="M29.3779 6.13147C29.7845 6.40475 33.0367 9.8207 33.7142 10.5039L38.186 14.8763H34.9338C33.7142 14.8763 32.0881 15.4229 30.462 13.9198C29.6489 13.1 29.3779 11.8703 29.3779 10.6405C29.3779 9.13751 29.3779 7.63449 29.3779 6.13147Z" fill="white"/>
<path fill-rule="evenodd" clip-rule="evenodd" d="M25.99 44.39H16.6399C11.2196 44.2534 10.1355 43.0236 10.1355 39.6077V28.1301C10.1355 27.3861 10.0953 21.8626 10.0587 16.8302L10.0587 16.8302L10.0587 16.8302C10.0281 12.6198 10 8.75327 10 8.31757C10.1355 7.49774 10.4065 6.95119 10.9486 6.40464C12.0652 5.15362 13.409 5.16254 14.9799 5.17296C15.1248 5.17392 15.2716 5.1749 15.4204 5.1749H25.3125C25.4421 5.1749 25.7093 5.14713 26.0308 5.11373C26.7181 5.04234 27.6534 4.94517 28.0227 5.03826C28.3401 5.14494 28.3271 5.41822 28.3061 5.85809C28.3002 5.98159 28.2937 6.11823 28.2937 6.268V9.1374C28.2937 9.38162 28.2922 9.61224 28.2908 9.83102C28.2787 11.6931 28.2722 12.697 29.2423 13.9197C30.0553 15.0128 31.4104 15.9693 32.901 15.9693H39.2699V24.4409V40.8374C39.2699 43.0236 38.0503 44.1167 35.8822 44.2534H26.2611L25.99 44.39ZM13.3881 37.4212C13.3881 33.732 18.9439 33.3221 18.9439 37.5578C18.9439 38.7876 17.7244 40.154 16.0982 40.154C14.6076 40.154 13.3881 38.9242 13.3881 37.4212ZM12.1685 37.2846C12.1685 39.4708 14.0656 41.3837 16.2338 41.3837C18.4019 41.3837 20.299 39.6074 20.299 37.2846C20.299 32.7755 14.2011 31.6824 12.575 35.5083C12.4395 35.9182 12.1685 36.738 12.1685 37.1479V37.2846ZM18.1309 26.4906C16.5048 24.8509 13.3881 25.8074 13.3881 28.5402C13.3881 30.0432 14.4721 31.2729 15.9627 31.2729H16.5048C18.5374 31.2729 20.028 28.2669 18.1309 26.4906ZM12.575 30.0432C12.4395 29.7699 12.1685 28.9501 12.1685 28.4035V28.2669C12.1685 25.1242 16.3693 22.8014 19.0794 25.5341C20.57 27.0371 20.7055 29.6333 19.0794 31.2729C16.9113 33.4591 13.5236 32.5027 12.575 30.0432ZM13.3877 19.7947C13.3877 19.7667 13.388 19.7389 13.3884 19.7113C13.4364 21.4749 15.8499 23.4649 18.1305 21.571C18.8081 21.0245 18.9436 20.068 18.9436 19.2482C18.9436 16.262 13.461 15.5681 13.3884 19.7113C13.388 19.6936 13.3877 19.6758 13.3877 19.6581V19.7947ZM12.1681 19.6581C12.1681 20.6146 12.5747 21.7077 13.2522 22.3909C16.9109 26.0801 22.6023 20.8878 19.0791 16.7887C18.1305 15.6956 17.182 15.559 15.8269 15.559C14.3363 15.559 12.9812 16.7887 12.4392 18.0184C12.4182 18.0818 12.394 18.1517 12.3681 18.2266L12.3681 18.2267L12.368 18.2268C12.2263 18.6365 12.0326 19.1961 12.0326 19.6581H12.1681ZM23.0089 18.9748C22.6024 18.9748 22.4669 18.5649 22.4669 18.2916C22.4669 18.0183 22.7379 17.745 23.0089 17.745H34.9337C35.7467 17.745 35.7467 18.9748 34.9337 18.9748H23.0089ZM22.4669 20.2051C22.4669 20.4783 22.6024 20.8882 23.0089 20.8882H31.1394C31.817 20.8882 31.817 19.6585 31.1394 19.6585H23.0089C22.7379 19.6585 22.4669 19.9318 22.4669 20.2051ZM23.0089 27.9936C22.6024 27.9936 22.4669 27.5837 22.4669 27.3104C22.4669 27.0372 22.7379 26.7639 23.0089 26.7639H34.9337C35.7467 26.7639 35.7467 27.9936 34.9337 27.9936H23.0089ZM22.4669 29.2229C22.4669 29.4962 22.6024 29.9061 23.0089 29.9061H31.1394C31.817 29.9061 31.817 28.6764 31.1394 28.6764H23.0089C22.7379 28.6764 22.4669 28.9497 22.4669 29.2229ZM15.5168 28.1291C15.6247 28.2442 15.7256 28.3519 15.8265 28.4027V28.2661C16.0419 28.1575 16.2573 27.9194 16.4813 27.6718C16.8208 27.2966 17.1798 26.8997 17.5881 26.8997C17.9946 26.8997 18.2656 27.4463 18.1301 27.7196C18.031 28.1193 17.5694 28.5191 17.1695 28.8654C17.0227 28.9926 16.8842 29.1125 16.775 29.2226C16.6847 29.3364 16.6132 29.4313 16.5536 29.5104C16.4127 29.6973 16.3385 29.7958 16.2397 29.8478C16.1295 29.9058 15.9887 29.9058 15.691 29.9058C15.4199 29.9058 14.3359 28.8127 14.3359 28.5394C14.3359 28.2661 14.3359 27.7196 14.8779 27.7196C15.1331 27.7196 15.3349 27.9349 15.5168 28.1291ZM15.8268 19.5214C15.8001 19.508 15.7748 19.4932 15.7506 19.4775C15.8829 19.3712 16.039 19.1962 16.207 19.0078L16.207 19.0077L16.207 19.0077C16.5606 18.6111 16.9673 18.155 17.3174 18.155C17.8595 18.155 18.1305 18.565 17.995 18.9749C17.8595 19.2482 17.5884 19.5214 17.3174 19.7947C15.7561 21.369 15.6939 21.3058 14.9718 20.5726L14.9715 20.5723C14.9416 20.542 14.9106 20.5105 14.8783 20.4779L14.3362 19.9313C13.9297 19.3848 14.7428 18.565 15.2848 19.1115C15.3525 19.1115 15.4203 19.1798 15.505 19.2652C15.573 19.3338 15.652 19.4134 15.7506 19.4775C15.7303 19.4938 15.7105 19.5085 15.6913 19.5214H15.8268ZM14.2006 37.2846C14.2006 36.7381 15.0137 36.3282 15.6912 37.4213C16.5043 36.8747 16.7753 36.6015 16.9108 36.3282C17.4529 35.645 18.6724 36.4648 17.7239 37.2846C17.6294 37.4752 17.469 37.5993 17.3347 37.7033L17.3346 37.7033C17.2763 37.7485 17.2229 37.7898 17.1818 37.8312C17.1432 37.8702 17.0963 37.9203 17.0426 37.9775L17.0425 37.9776L17.0424 37.9778C16.72 38.322 16.1558 38.9243 15.6912 38.9243C15.4202 38.9243 14.2006 37.8312 14.2006 37.2846ZM22.4669 36.7377C22.4669 37.011 22.6024 37.4209 23.0089 37.4209H34.9337C35.7467 37.4209 35.7467 36.1912 34.9337 36.1912H23.0089C22.7379 36.1912 22.4669 36.4645 22.4669 36.7377ZM23.0089 39.4703C22.6024 39.4703 22.4669 39.0604 22.4669 38.7871C22.4669 38.5139 22.7379 38.2406 23.0089 38.2406H31.1394C31.817 38.2406 31.817 39.4703 31.1394 39.4703H23.0089Z" fill="white"/>
</svg>
