<svg width="50" height="50" viewBox="0 0 50 50" fill="none" xmlns="http://www.w3.org/2000/svg">
<path d="M25.2375 24.0725C27.5308 24.0725 29.5167 23.2313 31.1393 21.5716C32.7618 19.9122 33.5844 17.8817 33.5844 15.536C33.5844 13.1911 32.7618 11.1604 31.139 9.50039C29.5162 7.84122 27.5306 7 25.2375 7C22.9439 7 20.9586 7.84122 19.336 9.50066C17.7134 11.1601 16.8906 13.1908 16.8906 15.536C16.8906 17.8817 17.7134 19.9124 19.3363 21.5719C20.9591 23.231 22.9447 24.0725 25.2375 24.0725V24.0725Z" fill="white"/>
<path d="M39.8423 34.2531C39.7955 33.5625 39.7009 32.8092 39.5615 32.0137C39.4209 31.2122 39.2398 30.4545 39.0229 29.762C38.799 29.0463 38.4944 28.3395 38.1179 27.6621C37.7272 26.9591 37.2682 26.3469 36.7531 25.8431C36.2146 25.3161 35.5552 24.8924 34.7927 24.5833C34.0328 24.2759 33.1907 24.1201 32.2899 24.1201C31.9362 24.1201 31.5941 24.2686 30.9333 24.7085C30.5267 24.9797 30.0511 25.2934 29.5202 25.6403C29.0662 25.9362 28.4512 26.2133 27.6916 26.4642C26.9505 26.7095 26.1981 26.8339 25.4554 26.8339C24.7127 26.8339 23.9605 26.7095 23.2186 26.4642C22.4598 26.2136 21.8448 25.9364 21.3914 25.6406C20.8655 25.2969 20.3896 24.9833 19.9769 24.7083C19.317 24.2683 18.9746 24.1199 18.6208 24.1199C17.7198 24.1199 16.878 24.2759 16.1184 24.5836C15.3564 24.8921 14.6967 25.3159 14.1576 25.8434C13.6429 26.3474 13.1836 26.9593 12.7934 27.6621C12.4171 28.3395 12.1126 29.046 11.8884 29.7623C11.6718 30.4548 11.4907 31.2122 11.3501 32.0137C11.2107 32.8081 11.1161 33.5617 11.0693 34.2539C11.0233 34.9321 11 35.6359 11 36.3468C11 38.1969 11.5751 39.6947 12.709 40.7992C13.829 41.8892 15.3109 42.4422 17.113 42.4422H33.7993C35.6014 42.4422 37.0828 41.8895 38.2031 40.7992C39.3373 39.6955 39.9124 38.1974 39.9124 36.3466C39.9121 35.6324 39.8886 34.928 39.8423 34.2531V34.2531Z" fill="white"/>
</svg>
