<svg width="114" height="27" viewBox="0 0 114 27" fill="none" xmlns="http://www.w3.org/2000/svg">
<g clip-path="url(#clip0)">
<path d="M30.044 14.7594V18.6998H28.2068V8.07743H32.2533C33.2745 8.02315 34.2789 8.35496 35.0687 9.00745C35.4125 9.31336 35.6845 9.69223 35.8645 10.1166C36.0446 10.5411 36.1285 11.0004 36.11 11.4614C36.1346 11.9177 36.0556 12.3737 35.879 12.7949C35.7026 13.2161 35.4331 13.5915 35.0909 13.8929C34.4104 14.4718 33.4546 14.7594 32.2309 14.7594H30.044ZM30.044 13.2654H32.2533C32.7892 13.3021 33.3197 13.137 33.7409 12.8022C33.9195 12.6303 34.0582 12.4211 34.1476 12.1894C34.2369 11.9577 34.2745 11.7092 34.2578 11.4614C34.2674 11.2126 34.2265 10.9644 34.1376 10.732C34.0488 10.4996 33.9139 10.2877 33.7409 10.1093C33.5483 9.92721 33.3215 9.78554 33.0737 9.69256C32.8259 9.59956 32.5622 9.55711 32.2979 9.5677H30.044V13.2654Z" fill="#229BD8"/>
<path d="M40.6177 18.8454C40.1157 18.8654 39.6151 18.7816 39.1467 18.5992C38.6784 18.4167 38.2524 18.1394 37.8952 17.7846C37.5423 17.4086 37.2682 16.9652 37.0893 16.4809C36.9104 15.9964 36.8303 15.4808 36.8539 14.9646V14.7443C36.8417 14.0152 36.997 13.2931 37.3076 12.634C37.5868 12.0368 38.0291 11.5317 38.5833 11.1773C39.1316 10.8331 39.7666 10.6542 40.4131 10.6619C40.877 10.634 41.3411 10.712 41.7707 10.8899C42.2003 11.0677 42.5844 11.341 42.8939 11.689C43.4777 12.3763 43.7678 13.3436 43.7678 14.5986V15.3157H38.6205C38.6444 15.8932 38.8757 16.4424 39.2713 16.862C39.4599 17.0492 39.6844 17.1962 39.9312 17.2937C40.178 17.3913 40.4419 17.4376 40.707 17.4298C41.0944 17.4435 41.4796 17.3623 41.8289 17.1931C42.1781 17.0238 42.4811 16.7718 42.7115 16.4587L43.6637 17.3737C43.3481 17.8457 42.9128 18.2247 42.403 18.4718C41.8447 18.7336 41.2335 18.8613 40.6177 18.8454ZM40.4057 12.0812C40.1848 12.0738 39.9652 12.1158 39.7624 12.2043C39.5597 12.2928 39.3793 12.4256 39.2342 12.5929C38.9074 13 38.708 13.4952 38.6614 14.0159H42.0088V13.8852C42.0071 13.3963 41.8406 12.9223 41.5363 12.5406C41.391 12.3882 41.2149 12.2684 41.02 12.1892C40.8251 12.11 40.6157 12.0732 40.4057 12.0812Z" fill="#229BD8"/>
<path d="M44.5116 14.6957C44.4604 13.6524 44.7576 12.6218 45.3559 11.7675C45.6126 11.4098 45.9526 11.1207 46.346 10.9254C46.7396 10.7301 47.1748 10.6345 47.6135 10.647C47.9936 10.6332 48.372 10.7046 48.7212 10.8557C49.0705 11.0069 49.382 11.2341 49.6331 11.521V7.4946H51.3997V18.6996H49.8004L49.7149 17.8817C49.4606 18.1959 49.137 18.4466 48.7698 18.6137C48.4024 18.781 48.0016 18.8603 47.5987 18.8453C47.1641 18.8539 46.7341 18.7563 46.3453 18.5612C45.9567 18.3659 45.621 18.079 45.3671 17.7248C44.7548 16.8386 44.454 15.7728 44.5116 14.6957ZM46.2783 14.8489C46.2427 15.5037 46.4033 16.1542 46.7396 16.7163C46.8811 16.9328 47.0761 17.1085 47.3056 17.2263C47.5351 17.3442 47.7911 17.4002 48.0486 17.3887C48.3784 17.4032 48.7051 17.319 48.9873 17.1468C49.2693 16.9746 49.494 16.7221 49.6331 16.4213V13.0598C49.4947 12.7631 49.2716 12.5145 48.9921 12.3455C48.7127 12.1766 48.3894 12.095 48.0636 12.1111C47.8031 12.0989 47.5442 12.1556 47.3124 12.2755C47.0806 12.3955 46.8844 12.5745 46.7432 12.7946C46.3918 13.419 46.2302 14.1332 46.2783 14.8489Z" fill="#229BD8"/>
<path d="M56.9449 17.9265C56.67 18.2375 56.3283 18.4818 55.9456 18.641C55.5629 18.8002 55.1493 18.87 54.7358 18.8454C54.3784 18.8715 54.02 18.8182 53.6855 18.6891C53.3513 18.5599 53.0495 18.3582 52.8017 18.0984C52.3245 17.4794 52.0902 16.7058 52.1434 15.9246V10.8076H53.9065V15.8985C53.9065 16.8994 54.3229 17.3925 55.1486 17.3925C55.9743 17.3925 56.5879 17.0862 56.8855 16.4662V10.8076H58.6521V18.6997H56.9896L56.9449 17.9265Z" fill="#229BD8"/>
<path d="M61.159 18.6996H59.396V7.4946H61.159V18.6996Z" fill="#229BD8"/>
<path d="M61.9029 8.75704C61.8996 8.6321 61.9209 8.50773 61.9655 8.39107C62.0102 8.27441 62.0774 8.16776 62.1632 8.07726C62.2616 7.98255 62.3785 7.90965 62.5067 7.86332C62.6349 7.81699 62.7713 7.79826 62.907 7.80835C63.0429 7.79918 63.179 7.81834 63.307 7.86462C63.435 7.91092 63.5521 7.98331 63.651 8.07726C63.7375 8.16729 63.8052 8.27384 63.8498 8.39061C63.8946 8.50739 63.9154 8.632 63.9113 8.75704C63.9141 8.88056 63.8922 9.0034 63.8469 9.11825C63.8014 9.23308 63.7335 9.3376 63.6472 9.42562C63.5477 9.51816 63.4304 9.5894 63.3024 9.63498C63.1746 9.68059 63.0388 9.69957 62.9034 9.69079C62.7678 9.70046 62.6319 9.68189 62.5039 9.63625C62.3759 9.59061 62.2586 9.5189 62.1596 9.42562C62.0751 9.33663 62.0088 9.23176 61.9649 9.11703C61.9207 9.00229 61.8998 8.87997 61.9029 8.75704ZM63.7625 18.6996H62.0144V10.8076H63.7773L63.7625 18.6996Z" fill="#229BD8"/>
<path d="M66.5338 17.2243H71.3353V18.6996H64.7039V8.07724H66.5412L66.5338 17.2243Z" fill="#229BD8"/>
<path d="M72.0788 8.75703C72.0749 8.63232 72.0955 8.50804 72.1395 8.39136C72.1836 8.27469 72.2502 8.16794 72.3355 8.07726C72.5436 7.90083 72.807 7.80405 73.0793 7.80405C73.3516 7.80405 73.6152 7.90083 73.8233 8.07726C73.9104 8.16697 73.9788 8.27339 74.0241 8.39016C74.0694 8.50695 74.091 8.63173 74.0872 8.75703C74.0902 8.88054 74.0681 9.00337 74.0228 9.11822C73.9775 9.23307 73.9096 9.3376 73.8233 9.42559C73.6142 9.59994 73.3511 9.69538 73.0793 9.69538C72.8077 9.69538 72.5446 9.59994 72.3355 9.42559C72.2508 9.33674 72.1846 9.23189 72.1405 9.11714C72.0965 9.00237 72.0756 8.87998 72.0788 8.75703ZM73.9384 18.6997H72.1719V10.8075H73.9384V18.6997Z" fill="#229BD8"/>
<path d="M76.4827 10.8076L76.5349 11.7189C76.81 11.3747 77.1614 11.0998 77.5611 10.9163C77.9609 10.7328 78.3978 10.6457 78.837 10.6619C80.4735 10.6619 81.3066 11.6019 81.3364 13.4818V18.6996H79.5697V13.5864C79.6037 13.1856 79.4884 12.7863 79.2462 12.4659C79.1065 12.332 78.9401 12.2294 78.7581 12.165C78.5759 12.1006 78.3823 12.0759 78.1899 12.0924C77.8594 12.0821 77.5331 12.1684 77.2505 12.3407C76.9679 12.5131 76.7413 12.7642 76.598 13.0635V18.6996H74.8203V10.8076H76.4827Z" fill="#229BD8"/>
<path d="M82.065 14.6957C82.0126 13.6529 82.3085 12.6223 82.9057 11.7675C83.163 11.4098 83.5037 11.1207 83.8977 10.9254C84.292 10.7301 84.7275 10.6345 85.1669 10.647C85.547 10.6332 85.9254 10.7046 86.2746 10.8557C86.6239 11.0069 86.9354 11.2341 87.1864 11.521V7.4946H88.9493V18.6996H87.3538L87.2645 17.8817C87.0113 18.1944 86.6896 18.4441 86.3244 18.6112C85.9593 18.7783 85.5606 18.8585 85.1595 18.8453C84.7251 18.8536 84.2951 18.7558 83.9065 18.5607C83.5179 18.3656 83.1821 18.0788 82.9279 17.7248C82.3526 16.9853 82.065 15.9756 82.065 14.6957ZM83.8279 14.8489C83.7941 15.5035 83.9546 16.1535 84.2892 16.7163C84.431 16.9333 84.6267 17.1094 84.8569 17.2273C85.0872 17.3452 85.3438 17.4008 85.602 17.3887C85.9318 17.4032 86.2585 17.319 86.5407 17.1468C86.8227 16.9746 87.0474 16.7221 87.1864 16.4213V13.0598C87.0477 12.7634 86.8245 12.5151 86.5451 12.3462C86.2657 12.1773 85.9427 12.0955 85.617 12.1111C85.3562 12.1004 85.0972 12.1578 84.8653 12.2776C84.6331 12.3974 84.436 12.5755 84.293 12.7946C83.9414 13.419 83.7798 14.1332 83.8279 14.8489Z" fill="#229BD8"/>
<path d="M94.4947 17.9265C94.2203 18.2374 93.8793 18.4815 93.4972 18.6405C93.1152 18.7997 92.7022 18.8697 92.2893 18.8454C91.9315 18.8715 91.5724 18.8182 91.2375 18.6891C90.9024 18.56 90.5999 18.3584 90.3515 18.0984C89.8743 17.4794 89.64 16.7058 89.6932 15.9246V10.8076H91.4599V15.8985C91.4599 16.8944 91.874 17.3925 92.7022 17.3925C93.5575 17.3925 94.1377 17.0862 94.439 16.4662V10.8076H96.2019V18.6997H94.5394L94.4947 17.9265Z" fill="#229BD8"/>
<path d="M98.612 10.8075L98.6604 11.7189C98.9344 11.3771 99.2835 11.1039 99.6803 10.9205C100.077 10.7371 100.511 10.6485 100.948 10.6619C102.589 10.6619 103.422 11.6018 103.447 13.4818V18.6996H101.684V13.5864C101.718 13.1855 101.603 12.7863 101.361 12.4659C101.221 12.3324 101.054 12.23 100.872 12.1657C100.69 12.1013 100.497 12.0763 100.304 12.0924C99.9737 12.0816 99.6472 12.1676 99.3645 12.3401C99.0818 12.5125 98.8553 12.7639 98.7125 13.0635V18.6996H96.9458V10.8075H98.612Z" fill="#229BD8"/>
<path d="M104.191 14.6957C104.136 13.6469 104.441 12.6109 105.054 11.7599C105.319 11.4072 105.665 11.1234 106.063 10.9324C106.46 10.7413 106.897 10.6486 107.337 10.6618C107.738 10.6448 108.137 10.7209 108.503 10.8841C108.87 11.0474 109.194 11.2934 109.45 11.6031L109.532 10.8075H111.123V18.4606C111.146 18.9143 111.072 19.3677 110.906 19.7903C110.74 20.2129 110.485 20.5949 110.16 20.9107C109.441 21.5376 108.507 21.8591 107.557 21.8071C106.973 21.803 106.396 21.6757 105.864 21.4337C105.371 21.2373 104.939 20.9108 104.615 20.4887L105.455 19.4466C105.694 19.7513 105.998 19.9973 106.346 20.1655C106.693 20.3338 107.074 20.4201 107.46 20.4178C107.967 20.4459 108.464 20.2744 108.847 19.9397C109.026 19.7546 109.163 19.5338 109.251 19.292C109.339 19.05 109.375 18.7922 109.357 18.5353V17.9937C109.1 18.2764 108.785 18.4993 108.434 18.6463C108.082 18.7935 107.703 18.8615 107.322 18.8453C106.887 18.8539 106.455 18.7586 106.063 18.5669C105.671 18.3755 105.33 18.0931 105.069 17.7434C104.486 17.0088 104.193 15.9929 104.191 14.6957ZM105.95 14.8488C105.914 15.5066 106.083 16.1594 106.434 16.7163C106.581 16.9339 106.782 17.1103 107.016 17.2291C107.25 17.348 107.51 17.4054 107.772 17.3961C108.096 17.411 108.418 17.3325 108.699 17.1697C108.979 17.0067 109.208 16.7665 109.357 16.4772V13.0112C109.209 12.7257 108.982 12.489 108.704 12.3294C108.425 12.1698 108.107 12.094 107.787 12.111C107.521 12.1007 107.257 12.1592 107.02 12.2809C106.783 12.4025 106.581 12.5832 106.434 12.8057C106.071 13.4222 105.902 14.1344 105.95 14.8488Z" fill="#229BD8"/>
<path d="M111.867 8.75703C111.863 8.63232 111.884 8.50804 111.928 8.39136C111.972 8.27469 112.039 8.16794 112.124 8.07726C112.332 7.90083 112.595 7.80405 112.868 7.80405C113.14 7.80405 113.404 7.90083 113.612 8.07726C113.699 8.16697 113.767 8.27339 113.812 8.39016C113.858 8.50695 113.879 8.63173 113.876 8.75703C113.878 8.88054 113.856 9.00337 113.811 9.11822C113.766 9.23307 113.698 9.3376 113.612 9.42559C113.403 9.59994 113.139 9.69538 112.868 9.69538C112.596 9.69538 112.333 9.59994 112.124 9.42559C112.039 9.33674 111.973 9.23189 111.929 9.11714C111.885 9.00237 111.864 8.87998 111.867 8.75703ZM113.727 18.6997H111.975V10.8075H113.738L113.727 18.6997Z" fill="#229BD8"/>
<path d="M21.9526 13.3677C21.9554 14.8198 21.4378 16.225 20.4935 17.3286L20.444 17.3806L19.8174 18.0097L19.7861 18.033L13.1595 24.6605L10.9749 26.8464L7.04785 22.9192L9.23245 20.7307L10.9749 22.4747L14.1894 19.2571L17.7056 15.7458L18.2023 15.2494C18.6011 14.7413 18.8266 14.119 18.8457 13.4736C18.865 12.8281 18.6769 12.1935 18.309 11.6627C18.055 11.3001 17.727 10.9954 17.3466 10.7687C16.6857 10.3836 15.9035 10.262 15.1566 10.4283C14.4098 10.5945 13.7532 11.0363 13.3182 11.6653C13.2457 11.3393 13.1501 11.0187 13.0321 10.7063C12.7593 9.97477 12.3732 9.29066 11.8878 8.67901C12.9909 7.75015 14.388 7.24268 15.8305 7.24694C16.0463 7.24694 16.257 7.24694 16.465 7.27813C17.971 7.4338 19.3657 8.14208 20.3793 9.26597C21.393 10.3898 21.9536 11.8495 21.9526 13.3625V13.3677Z" fill="#229BD8"/>
<path d="M12.0152 11.7302C11.7698 10.8482 11.3293 10.0324 10.7262 9.34318C10.1232 8.65396 9.37298 8.10885 8.53097 7.74806C7.68897 7.38728 6.77666 7.22003 5.86135 7.25865C4.94602 7.29726 4.05107 7.54077 3.24249 7.9712C2.43392 8.40164 1.73237 9.008 1.1896 9.74556C0.646835 10.4831 0.276704 11.3331 0.106516 12.2327C-0.0636705 13.1323 -0.0295698 14.0586 0.206302 14.9433C0.442173 15.828 0.873798 16.6485 1.46933 17.3442L2.14292 18.0148L3.93221 19.8055L6.11681 21.9887L7.28712 20.8192L8.31441 19.8055L10.1037 18.0148L10.7773 17.3442C10.8475 17.2635 10.9177 17.1778 10.9827 17.0843C11.8033 16.0171 12.2469 14.7083 12.2441 13.3624C12.2411 12.8106 12.1641 12.2616 12.0152 11.7302ZM8.47565 15.2675L8.01532 15.7301L6.11681 17.6197L4.24169 15.7457L3.74235 15.2441C3.3902 14.7974 3.17131 14.2604 3.11082 13.6949C3.05032 13.1294 3.15072 12.5584 3.40041 12.0473C3.65013 11.5363 4.03903 11.106 4.52246 10.8059C5.00589 10.5059 5.56421 10.3482 6.13327 10.351C6.70234 10.3538 7.25908 10.517 7.73951 10.8218C8.21994 11.1267 8.60456 11.5608 8.8492 12.0742C9.09384 12.5877 9.18857 13.1598 9.12249 13.7246C9.05641 14.2895 8.83222 14.8243 8.47565 15.2675Z" fill="#229BD8"/>
<path fill-rule="evenodd" clip-rule="evenodd" d="M8.64737 3.07282C8.64793 3.65683 8.48121 4.22878 8.16692 4.72112C7.85261 5.21346 7.40386 5.6056 6.87368 5.8512C6.49903 6.02824 6.09207 6.12672 5.67788 6.14056C5.26371 6.15443 4.85107 6.08337 4.46541 5.93178C3.94429 5.72928 3.48837 5.38845 3.1468 4.94606C2.80525 4.50367 2.59098 3.9765 2.52716 3.42139C2.46333 2.86627 2.55234 2.30426 2.78459 1.79599C3.01684 1.2877 3.38352 0.852408 3.84508 0.537055C4.30667 0.2217 4.84562 0.0382426 5.40384 0.0064642C5.96207 -0.0253142 6.51838 0.0957915 7.0128 0.356723C7.50724 0.617655 7.921 1.00851 8.2095 1.48715C8.49801 1.96579 8.6503 2.51405 8.64997 3.07282H8.64737Z" fill="#229BD8"/>
<path fill-rule="evenodd" clip-rule="evenodd" d="M19.4453 3.07285C19.4456 3.75919 19.2148 4.42568 18.79 4.96495C18.6404 5.16054 18.4654 5.33535 18.2697 5.48475C17.7223 5.90949 17.047 6.13634 16.354 6.12834C15.661 6.12034 14.9912 5.87793 14.4537 5.44067C13.9162 5.0034 13.5428 4.39707 13.3944 3.72052C13.246 3.04397 13.3313 2.33711 13.6364 1.71524C13.9415 1.09335 14.4484 0.593109 15.0745 0.296083C15.7006 -0.000945047 16.409 -0.0772381 17.0839 0.0796431C17.759 0.236525 18.361 0.617325 18.7918 1.15995C19.2224 1.70258 19.4565 2.37503 19.4557 3.06765L19.4453 3.07285Z" fill="#229BD8"/>
</g>
<defs>
<clipPath id="clip0">
<rect width="114" height="27" fill="white"/>
</clipPath>
</defs>
</svg>
