<svg width="105" height="80" viewBox="0 0 105 80" fill="none" xmlns="http://www.w3.org/2000/svg">
<path d="M41.8678 49.2767V19.2792C42.6425 19.5497 43.4176 19.8202 44.1538 20.0524C45.0839 20.3229 46.0525 20.5546 46.9826 20.7485C47.2927 20.8256 47.4088 20.9031 47.4088 21.2124C47.4088 22.2561 47.4088 23.2614 47.4088 24.3052C47.4088 32.4231 47.4088 40.5406 47.4088 48.6581C47.4088 49.2384 47.4088 49.2383 46.8276 49.2383C45.3167 49.2383 43.8438 49.2383 42.3324 49.2383H41.8678V49.2767Z" fill="#242935"/>
<path d="M63.103 49.2375H57.6393V20.9411C59.4607 20.4 61.282 19.8978 63.103 19.3559V49.2375Z" fill="#242935"/>
<path d="M49.8118 21.2116C51.5943 21.4433 53.3768 21.5208 55.1982 21.134V49.2371H49.8118V21.2116Z" fill="#242935"/>
<path d="M72.1321 11.2C71.047 11.9732 70.0007 12.7464 68.8771 13.4808C65.5444 15.6458 61.9789 17.2689 58.1043 18.2355C54.3065 19.1633 50.5087 19.1633 46.711 18.313C41.79 17.2305 37.3333 15.1044 33.2648 12.1279C33.1482 12.0503 33.0324 11.9345 32.9547 11.7798C33.1097 11.8186 33.2259 11.8957 33.3809 11.9345C37.8372 13.7126 42.4101 15.0272 47.1376 15.8C52.4463 16.6503 57.6004 16.0318 62.6763 14.5629C65.7763 13.6738 68.799 12.553 71.7444 11.2384C71.8605 11.1996 71.9382 11.1608 72.0544 11.1225C72.0548 11.1229 72.0933 11.1613 72.1321 11.2Z" fill="#DE060D"/>
<path d="M52.5629 14.3699C49.9664 14.2924 47.7192 12.3984 47.1764 9.7699C46.4791 6.4066 48.7651 3.27547 52.0978 2.92784C54.5777 2.69609 57.0196 4.43588 57.7554 6.98681C58.5698 9.80866 57.1742 12.708 54.5008 13.8676C53.8803 14.1377 53.2214 14.2148 52.5629 14.3699ZM49.6175 8.6099C49.6175 10.2718 50.9354 11.6252 52.524 11.6252C54.1135 11.6252 55.4301 10.2334 55.4301 8.6099C55.4301 6.94763 54.0742 5.55588 52.4851 5.55588C50.8965 5.59505 49.6175 6.94804 49.6175 8.6099Z" fill="#DE030D"/>
<path d="M36.8302 58.3988C37.838 58.2445 38.0311 58.4763 38.0699 59.7134C38.6123 58.8247 39.3101 58.2445 40.3564 58.2062C41.4415 58.1674 42.1778 58.6313 42.4489 59.7134C42.7982 59.3654 43.069 58.979 43.4568 58.7081C44.1546 58.167 44.9293 58.0895 45.7821 58.3212C46.5572 58.5534 46.9445 59.1332 47.0995 59.8672C47.1772 60.2157 47.1772 60.6021 47.2157 60.9501C47.2157 62.2643 47.2157 63.5398 47.2157 64.8544C47.2157 65.0478 47.3707 65.3955 46.9834 65.4338C46.6345 65.473 46.2087 65.473 46.0148 65.0474C45.9371 64.854 45.9371 64.6223 45.8986 64.3901C45.8986 63.3847 45.8986 62.3798 45.8986 61.3749C45.8986 61.1039 45.8986 60.8338 45.8594 60.5629C45.6655 59.4033 44.6969 59.0165 43.7284 59.7126C42.9144 60.292 42.6821 61.1431 42.6432 62.0705C42.6044 62.9984 42.6432 63.887 42.6432 64.8153C42.6432 65.0091 42.6432 65.1629 42.6432 65.3951C42.2559 65.3951 41.9074 65.4334 41.5585 65.3951C41.4808 65.3951 41.3646 65.1629 41.3646 65.047C41.3646 63.8099 41.3646 62.5728 41.3646 61.3365C41.3646 61.0264 41.3646 60.7175 41.2869 60.4083C41.1708 59.6346 40.5891 59.2487 39.8144 59.4421C38.8847 59.6738 38.4581 60.4083 38.2258 61.2586C38.1096 61.7225 38.1096 62.2252 38.1096 62.7274C38.1096 63.6165 38.1096 64.5056 38.1096 65.3951H36.8306V58.3988H36.8302Z" fill="#DD030E"/>
<path d="M69.3807 58.3988C70.195 58.2833 70.3885 58.3988 70.582 59.2878C70.6208 59.2491 70.6981 59.2107 70.6981 59.172C72.1706 57.5485 74.6509 57.974 75.4645 60.0223C76.0072 61.3369 75.968 62.6895 75.309 64.0037C74.5343 65.5889 72.1317 66.3229 70.6204 64.5447C70.6204 64.8544 70.6204 65.1245 70.6204 65.3955C70.6204 66.2074 70.6204 67.019 70.6204 67.8305C70.6204 68.1781 70.5042 68.2944 70.1946 68.2557C69.923 68.2169 69.6523 68.2557 69.3802 68.2557V58.3988H69.3807ZM70.4658 61.9167C70.6597 62.4965 70.7763 63.1151 71.0859 63.6173C71.8217 64.8544 73.4885 64.7769 74.1466 63.5014C74.6898 62.4581 74.6898 61.3757 74.1466 60.3316C73.4885 59.1332 71.7833 59.0557 71.0859 60.2157C70.7763 60.6796 70.6597 61.2981 70.4658 61.9167Z" fill="#DD030E"/>
<path d="M50.4707 65.3959H49.1528V55.6544C49.1921 55.6153 49.1921 55.5769 49.2305 55.5769C50.4707 55.5769 51.7109 55.4994 52.9506 55.6153C54.3454 55.7315 55.1593 56.6594 55.3916 58.0895C55.7405 60.1773 54.4231 61.7233 52.2921 61.7616C51.8655 61.7616 51.4008 61.7616 50.9742 61.7616H50.4703V65.3959H50.4707ZM50.4707 60.6025H52.0205C53.5322 60.6025 54.3454 59.5588 53.9584 58.0895C53.803 57.4322 53.4161 56.9299 52.7183 56.8524C51.9825 56.7748 51.2069 56.814 50.4707 56.814C50.4707 56.9299 50.4318 57.0849 50.4318 57.2004C50.4707 58.2833 50.4707 59.4041 50.4707 60.6025Z" fill="#DD030E"/>
<path d="M64.2658 65.5893C62.2117 65.5893 60.623 63.9654 60.5846 61.8783C60.5846 59.8293 62.1736 58.2062 64.2658 58.1674C66.3583 58.1674 67.947 59.7909 67.947 61.8783C67.947 64.0041 66.3579 65.5893 64.2658 65.5893ZM66.6299 61.9167C66.6299 60.4862 65.6605 59.4037 64.3435 59.3649C63.4134 59.3262 62.5221 59.8672 62.1736 60.7571C61.7082 61.8392 61.8247 62.8441 62.6383 63.7332C63.2584 64.4293 64.2273 64.6223 65.1182 64.313C66.0483 63.9262 66.6299 62.9988 66.6299 61.9167Z" fill="#DD030E"/>
<path d="M32.1023 65.5893C30.0486 65.5893 28.4596 64.0041 28.4211 61.9171C28.4211 59.8297 30.0102 58.2062 32.0639 58.2062C34.1565 58.2062 35.7451 59.7909 35.784 61.8783C35.7835 63.9654 34.1953 65.5893 32.1023 65.5893ZM29.7386 61.9167C29.7386 63.3468 30.7849 64.4676 32.1023 64.4676C33.4198 64.4676 34.4665 63.308 34.4665 61.8783C34.4665 60.4474 33.4198 59.3654 32.1023 59.3654C30.746 59.3654 29.7386 60.4866 29.7386 61.9167Z" fill="#DD030E"/>
<path d="M17.6479 63.6561C17.8422 63.9654 17.9972 64.2359 18.1522 64.5448C17.0671 65.7819 14.7807 65.9757 13.3855 64.9316C11.4479 63.5398 11.4868 60.1773 13.4248 58.8239C14.471 58.0891 16.0208 58.0116 16.9898 58.6689C17.9588 59.3262 18.5007 60.7567 18.2295 62.0705H13.3082C13.3855 62.9984 13.6959 63.6945 14.4706 64.158C15.3619 64.6615 16.3697 64.5448 17.6479 63.6561ZM16.9509 61.0272C16.9121 59.9064 16.292 59.2491 15.323 59.2491C14.2767 59.2491 13.4632 59.9835 13.4243 61.0272H16.9509Z" fill="#DD030E"/>
<path d="M77.9059 62.0709C77.9836 62.96 78.2937 63.6948 79.0684 64.1196C79.9989 64.661 81.0063 64.5064 82.2465 63.6561C82.4403 63.9654 82.5958 64.2359 82.7888 64.5447C81.743 65.4338 80.5801 65.7431 79.2626 65.473C77.9836 65.1633 77.0928 64.3905 76.7435 63.115C76.3177 61.607 76.5111 60.2157 77.674 59.0557C78.6037 58.1278 80.1932 57.8961 81.3941 58.5146C82.4019 59.0173 83.06 60.4474 82.9438 61.6845C82.905 61.9934 82.7888 62.033 82.5181 62.033C81.1617 62.033 79.8054 62.033 78.4487 62.033C78.2552 62.033 78.0998 62.0709 77.9059 62.0709ZM78.0221 61.0664H81.5483C81.626 60.1386 81.0059 59.3654 80.1146 59.2882C78.991 59.2111 78.0613 59.9839 78.0221 61.0664Z" fill="#DD030E"/>
<path d="M25.8246 61.4911C26.5224 62.767 27.181 64.0429 27.8788 65.3184C26.9875 65.5889 26.4447 65.3959 26.0578 64.661C25.7089 64.0425 25.3989 63.3852 25.0888 62.7666C24.7399 62.0705 24.5465 61.993 23.6936 62.148V63.772V65.3955H22.415C22.415 65.2021 22.415 65.0474 22.415 64.8544C22.415 61.9167 22.415 59.0173 22.415 56.0796C22.415 55.8862 22.26 55.6153 22.6474 55.5386C23.0731 55.461 23.5382 55.6157 23.6163 55.9254C23.6936 56.1184 23.6936 56.3118 23.6936 56.5431C23.6936 57.8577 23.6936 59.2111 23.6936 60.5245C23.6936 60.8342 23.7714 60.9501 24.1198 60.9501C24.5849 60.9501 24.9338 60.7955 25.2046 60.4091C25.5923 59.8293 26.0189 59.2878 26.367 58.6693C26.5224 58.3988 26.7548 58.2829 27.0648 58.3212C27.3748 58.3604 27.6849 58.3212 28.1111 58.3212C27.2587 59.4812 26.5224 60.5245 25.8246 61.4911Z" fill="#DD030E"/>
<path d="M93.5616 66.7876C94.6464 67.5221 95.2664 67.2899 95.8092 66.1691C96.0415 65.6656 96.0415 65.2412 95.8092 64.6998C94.9568 62.6899 94.104 60.68 93.2905 58.6697C93.2516 58.5922 93.2516 58.5151 93.2127 58.4763C94.1821 58.2062 94.6083 58.4375 94.9568 59.2883C95.5376 60.7575 96.1192 62.2647 96.7009 63.8111C96.9332 63.1155 97.1659 62.4969 97.3983 61.8784C97.6694 61.0664 97.9795 60.2928 98.2507 59.4817C98.5996 58.3992 98.8712 58.245 100.072 58.4379C99.8397 59.0565 99.607 59.6751 99.3358 60.2932C98.4834 62.4973 97.631 64.6619 96.7778 66.8656C96.2354 68.2569 94.8402 68.7979 93.6005 68.1794C93.0189 67.8705 93.0189 67.7926 93.3289 67.252C93.4062 67.0577 93.4843 66.9419 93.5616 66.7876Z" fill="#DD030E"/>
<path d="M8.34795 56.7369H4.97678C4.82177 55.8483 5.01564 55.5386 5.86804 55.5386C7.9606 55.5386 10.0532 55.5386 12.1457 55.5386C12.9208 55.5386 13.1536 55.8483 12.9981 56.7369H9.66541V65.3959H8.34753V56.7369H8.34795Z" fill="#DD030E"/>
<path d="M92.3996 64.3526C92.4376 64.3909 92.4376 64.3909 92.4376 64.4301C92.5538 65.5122 92.3996 65.666 91.314 65.4347C90.2289 65.2029 89.4926 64.5843 89.4538 63.4248C89.3769 61.1052 89.4149 58.786 89.4149 56.4668H90.6939C90.6939 56.892 90.6939 57.3171 90.6939 57.7423C90.6939 58.4384 90.5782 58.3996 91.3529 58.3996C91.6629 58.3996 91.9341 58.3996 92.2053 58.3996C92.2441 58.4771 92.283 58.4771 92.283 58.5155C92.3996 59.4821 92.3996 59.4821 91.4306 59.4821C90.5009 59.4821 90.6555 59.4046 90.6555 60.2549C90.6555 60.9897 90.6555 61.7625 90.6555 62.4973C90.6939 63.8107 91.0424 64.1975 92.3996 64.3526Z" fill="#DD030E"/>
<path d="M20.8648 65.3567C19.9736 65.5505 19.5858 65.2792 19.5858 64.3905C19.5858 61.6462 19.5858 58.8631 19.5858 56.1179C19.5858 55.9249 19.6635 55.654 19.7797 55.5769C20.0897 55.4223 20.6321 55.6153 20.7487 55.8862C20.8264 56.0408 20.8648 56.2342 20.8648 56.3889C20.8648 59.2878 20.8648 62.1872 20.8648 65.125C20.8648 65.2412 20.8648 65.3184 20.8648 65.3567Z" fill="#DD030E"/>
<path d="M85.695 60.0227C86.1993 58.9014 86.8578 58.2062 88.1368 58.3216V59.5979C86.5474 59.7522 85.8111 60.5641 85.7338 62.1872C85.6949 63.1155 85.7338 64.0041 85.7338 64.932C85.7338 65.0862 85.7338 65.2025 85.7338 65.3959H84.4937V58.4375C85.3849 58.2445 85.5403 58.4375 85.695 60.0227Z" fill="#DD030E"/>
<path d="M56.6318 58.3987C57.0969 58.3604 57.562 58.3212 57.717 58.7468C57.8716 59.0561 57.8327 59.4812 57.9109 59.9451C58.4144 58.9402 59.1117 58.2058 60.3519 58.3212V59.5583C58.9567 59.52 58.0655 60.4086 57.9109 62.148C57.8331 63.0371 57.9109 63.9649 57.8716 64.854C57.8716 65.0474 57.8716 65.202 57.8716 65.395H56.6318V58.3987Z" fill="#DD030E"/>
<path d="M13.1015 72.3575H11.6245V71.8173H15.1697V72.3575H13.6923V76.6305H13.0519V72.3575H13.1015Z" fill="#271813"/>
<path d="M15.0216 75.0099C15.0216 75.8449 15.5636 76.1884 16.2031 76.1884C16.6467 76.1884 16.9418 76.0903 17.139 75.9917L17.2374 76.4338C17.0406 76.532 16.6467 76.6301 16.1051 76.6301C15.0216 76.6301 14.3817 75.9427 14.3817 74.9117C14.3817 73.8804 14.9724 73.0453 16.0063 73.0453C17.139 73.0453 17.4346 74.0276 17.4346 74.6664C17.4346 74.8132 17.4346 74.9122 17.4346 74.9608H15.0216V75.0099ZM16.8434 74.5678C16.8434 74.1748 16.6958 73.5365 15.9571 73.5365C15.3168 73.5365 15.0212 74.1266 14.972 74.5678H16.8434Z" fill="#271813"/>
<path d="M17.7302 71.572H18.3706V76.6309H17.7302V71.572Z" fill="#271813"/>
<path d="M19.5028 74.7649C19.6011 74.6668 19.6995 74.4697 19.8471 74.372L20.8814 73.193H21.6197L20.2903 74.6177L21.8165 76.6309H21.0286L19.8471 74.9612L19.5028 75.3051V76.5823H18.8624V71.5225H19.5028V74.7649Z" fill="#271813"/>
<path d="M24.8202 74.8631C24.8202 76.1402 23.9343 76.68 23.0968 76.68C22.1613 76.68 21.4226 75.9922 21.4226 74.9122C21.4226 73.7328 22.1613 73.0944 23.146 73.0944C24.1311 73.0944 24.8202 73.8317 24.8202 74.8631ZM22.0634 74.9122C22.0634 75.6487 22.5061 76.2383 23.0968 76.2383C23.688 76.2383 24.1311 75.6977 24.1311 74.9122C24.1311 74.3221 23.8355 73.5856 23.0968 73.5856C22.3581 73.5856 22.0634 74.2239 22.0634 74.9122Z" fill="#271813"/>
<path d="M25.0666 74.1266C25.0666 73.7823 25.0666 73.4874 25.0175 73.1926H25.5594L25.6086 73.7328C25.8054 73.3893 26.1005 73.0944 26.6921 73.0944C27.184 73.0944 27.5288 73.3893 27.6768 73.7823C27.7751 73.5856 27.9231 73.4383 28.0707 73.3406C28.2679 73.193 28.5135 73.0944 28.8582 73.0944C29.301 73.0944 29.9909 73.3893 29.9909 74.5678V76.5818H29.3998V74.6173C29.3998 73.9781 29.1534 73.5365 28.661 73.5365C28.3163 73.5365 28.0207 73.7823 27.9227 74.1266C27.8735 74.2239 27.8735 74.3225 27.8735 74.421V76.5328H27.2824V74.4697C27.2824 73.9291 27.036 73.5365 26.5437 73.5365C26.1501 73.5365 25.8546 73.8317 25.7566 74.1748C25.707 74.2734 25.707 74.372 25.707 74.4697V76.5328H25.1158V74.1266H25.0666Z" fill="#271813"/>
<path d="M32.1082 71.8173V76.6305H31.4674V71.8173H32.1082Z" fill="#271813"/>
<path d="M32.6986 74.1266C32.6986 73.7823 32.6986 73.4874 32.6498 73.1926H33.1917L33.2409 73.7823C33.3885 73.4383 33.8317 73.1435 34.3732 73.1435C34.8655 73.1435 35.6043 73.4383 35.6043 74.6173V76.68H35.0135V74.715C35.0135 74.1744 34.8163 73.6837 34.2256 73.6837C33.8317 73.6837 33.4869 73.9781 33.3889 74.322C33.3393 74.4206 33.3393 74.5192 33.3393 74.6173V76.68H32.699V74.1266H32.6986Z" fill="#271813"/>
<path d="M39.0998 71.572V75.7468C39.0998 76.0416 39.0998 76.386 39.149 76.6309H38.607L38.5582 76.0416C38.3606 76.4346 37.9667 76.7299 37.3764 76.7299C36.5393 76.7299 35.8989 76.0416 35.8989 74.9612C35.8989 73.8322 36.5889 73.0948 37.4256 73.0948C37.9671 73.0948 38.3119 73.341 38.4599 73.6351V71.5724H39.0998V71.572ZM38.5086 74.5678C38.5086 74.4697 38.5086 74.3715 38.4599 74.3221C38.3611 73.9291 38.0167 73.5856 37.5731 73.5856C36.9328 73.5856 36.5388 74.1748 36.5388 74.9122C36.5388 75.6 36.884 76.1889 37.5731 76.1889C38.0163 76.1889 38.3606 75.8944 38.5086 75.452C38.5086 75.3546 38.5582 75.3052 38.5582 75.1575V74.5678H38.5086Z" fill="#271813"/>
<path d="M42.7434 74.8631C42.7434 76.1402 41.8571 76.68 41.02 76.68C40.0841 76.68 39.3453 75.9922 39.3453 74.9122C39.3453 73.7328 40.0841 73.0944 41.0692 73.0944C42.1034 73.0944 42.7434 73.8317 42.7434 74.8631ZM39.9865 74.9122C39.9865 75.6487 40.4296 76.2383 41.0204 76.2383C41.6111 76.2383 42.0543 75.6977 42.0543 74.9122C42.0543 74.3221 41.7591 73.5856 41.0204 73.5856C40.3308 73.5856 39.9865 74.2239 39.9865 74.9122Z" fill="#271813"/>
<path d="M42.9902 74.1266C42.9902 73.7823 42.9902 73.4874 42.9406 73.1926H43.4825L43.5313 73.7823C43.6793 73.4383 44.1224 73.1435 44.664 73.1435C45.1559 73.1435 45.895 73.4383 45.895 74.6173V76.68H45.2547V74.715C45.2547 74.1744 45.0579 73.6837 44.4672 73.6837C44.0732 73.6837 43.7285 73.9781 43.6301 74.322C43.5813 74.4206 43.5813 74.5192 43.5813 74.6173V76.68H42.941V74.1266H42.9902Z" fill="#271813"/>
<path d="M46.7809 75.0099C46.7809 75.8449 47.3228 76.1884 47.9627 76.1884C48.4059 76.1884 48.701 76.0903 48.8986 75.9917L48.997 76.4338C48.7998 76.532 48.4059 76.6301 47.8644 76.6301C46.7809 76.6301 46.1414 75.9427 46.1414 74.9117C46.1414 73.8804 46.7317 73.0453 47.766 73.0453C48.8986 73.0453 49.1938 74.0276 49.1938 74.6664C49.1938 74.8132 49.1938 74.9122 49.1938 74.9608H46.7809V75.0099ZM48.6523 74.5678C48.6523 74.1748 48.5047 73.5365 47.7656 73.5365C47.1256 73.5365 46.8301 74.1266 46.7805 74.5678H48.6523Z" fill="#271813"/>
<path d="M49.3911 75.9922C49.5887 76.0903 49.883 76.2383 50.2278 76.2383C50.6709 76.2383 50.9169 75.9922 50.9169 75.7468C50.9169 75.452 50.7201 75.3052 50.277 75.1089C49.6366 74.9122 49.3411 74.5678 49.3411 74.1266C49.3411 73.5856 49.7846 73.0944 50.5233 73.0944C50.8681 73.0944 51.1633 73.1926 51.36 73.2911L51.212 73.7328C51.0649 73.6346 50.8185 73.5365 50.5233 73.5365C50.129 73.5365 49.9318 73.7328 49.9318 74.0276C49.9318 74.3221 50.129 74.4206 50.5725 74.6173C51.1633 74.8631 51.4584 75.1575 51.4584 75.6487C51.4584 76.2383 50.9665 76.68 50.1786 76.68C49.7846 76.68 49.4399 76.5819 49.1935 76.4342L49.3911 75.9922Z" fill="#271813"/>
<path d="M52.493 72.2103C52.493 72.407 52.345 72.6029 52.0991 72.6029C51.8527 72.6029 51.7047 72.4557 51.7047 72.2103C51.7047 72.0136 51.8527 71.8173 52.0991 71.8173C52.345 71.8173 52.493 71.9654 52.493 72.2103ZM51.7539 76.6305V73.1926H52.3942V76.6305H51.7539Z" fill="#271813"/>
<path d="M54.8076 76.6305L54.758 76.1888C54.5608 76.4841 54.216 76.68 53.7241 76.68C53.0342 76.68 52.6898 76.1889 52.6898 75.6977C52.6898 74.8631 53.4285 74.4206 54.758 74.4206V74.3715C54.758 74.0763 54.6596 73.5856 53.9701 73.5856C53.6253 73.5856 53.3297 73.6837 53.0838 73.8317L52.9362 73.4383C53.2322 73.2412 53.6253 73.1435 54.0689 73.1435C55.1023 73.1435 55.3983 73.8808 55.3983 74.5678V75.8453C55.3983 76.1402 55.3983 76.4346 55.4475 76.68H54.8076V76.6305ZM54.758 74.8631C54.0689 74.8631 53.281 74.9608 53.281 75.6486C53.281 76.0412 53.5761 76.2383 53.8717 76.2383C54.3153 76.2383 54.61 75.9431 54.7088 75.6486C54.7088 75.6 54.758 75.501 54.758 75.4515V74.8631Z" fill="#271813"/>
<path d="M5.19006 76.059C5.19006 75.8874 5.19006 75.6722 5.19006 75.4561V72.7427H5.57865V74.1637C5.70762 73.9051 5.96723 73.7332 6.35581 73.7332C6.91719 73.7332 7.30619 74.2062 7.30619 74.8961C7.30619 75.7142 6.78739 76.1023 6.26941 76.1023C5.92382 76.1023 5.66504 75.9732 5.49183 75.6717V76.0586H5.19006V76.059ZM5.62205 75.1546C5.62205 75.1979 5.62205 75.2412 5.62205 75.2837C5.70804 75.5847 5.92382 75.7575 6.22642 75.7575C6.65841 75.7575 6.9176 75.4132 6.9176 74.8961C6.9176 74.4223 6.70182 74.0342 6.22642 74.0342C5.96764 74.0342 5.66546 74.2062 5.57906 74.5509C5.57906 74.5942 5.53607 74.6375 5.53607 74.7237V75.1542H5.62205V75.1546Z" fill="#271813"/>
<path d="M7.65144 73.8198L8.12642 75.1546C8.16942 75.2837 8.21282 75.4994 8.25581 75.6285C8.29881 75.4994 8.34221 75.3274 8.3852 75.1546L8.81719 73.8198H9.24877L8.64398 75.4136C8.34221 76.1889 8.16942 76.5761 7.86682 76.835C7.65103 77.0074 7.47823 77.0932 7.34843 77.0932L7.26203 76.7485C7.34843 76.7052 7.52123 76.6627 7.60762 76.5336C7.73701 76.447 7.86682 76.2746 7.95321 76.0594C7.95321 76.0165 7.99621 75.9736 7.99621 75.9736C7.99621 75.9303 7.99621 75.9303 7.95321 75.8878L7.13306 73.8198H7.65144Z" fill="#271813"/>
<path d="M61.1848 75.1947C61.6499 74.1897 61.5341 73.2239 60.759 72.4116C59.9839 71.6384 59.0538 71.4846 58.0079 71.7934C58.0079 71.2907 58.0079 70.7881 58.2014 70.2854C58.2791 70.1312 58.3568 70.0157 58.4341 69.8606C58.4726 69.8219 58.5114 69.7831 58.5503 69.7448C58.666 69.6672 58.7438 69.7056 58.8211 69.7835C58.9372 69.9386 58.9372 70.0928 58.9761 70.2479C58.9761 70.4408 58.9761 70.6726 59.0154 70.8656C59.0154 70.9431 59.0538 70.9819 59.0538 71.0594C59.0927 71.1753 59.2092 71.1753 59.2861 71.1369C59.3638 71.0594 59.4416 70.9823 59.4804 70.866C59.6743 70.4796 59.8289 70.0932 60.0228 69.7064C60.1005 69.5914 60.1389 69.4367 60.2167 69.32C60.2555 69.2041 60.3717 69.0883 60.4882 69.0495C60.6817 68.934 60.8756 69.0112 60.914 69.2429C60.914 69.3976 60.914 69.5526 60.8752 69.7064C60.8359 70.0932 60.759 70.5188 60.7202 70.9052C60.7202 70.9827 60.7202 71.0206 60.7202 71.0986C60.7202 71.2145 60.8359 71.2528 60.914 71.2145C60.9918 71.1757 61.0686 71.0986 61.1464 71.0598C61.4948 70.673 61.8437 70.3254 62.2311 69.939C62.3857 69.7839 62.58 69.6297 62.8127 69.5522C63.0835 69.4363 63.2001 69.6297 63.2001 69.8611C63.2001 69.9769 63.1612 70.0928 63.0839 70.1707C62.8516 70.5571 62.6192 70.9048 62.3861 71.2916C62.2704 71.4854 62.1538 71.7167 62.038 71.9097V71.9489C61.9988 72.1031 62.0765 72.1806 62.1926 72.1423C62.3861 72.1031 62.5804 72.0264 62.735 71.9101C63.0839 71.7171 63.4328 71.5233 63.8201 71.4079C63.9363 71.3691 64.0913 71.3691 64.2075 71.3691C64.3629 71.3691 64.4791 71.5233 64.4018 71.6784C64.3629 71.8326 64.2852 71.9489 64.1694 72.0264C63.7044 72.4899 63.2005 72.8767 62.6581 73.2248C62.4642 73.3786 62.2704 73.5336 62.0769 73.727C62.0384 73.7658 61.9992 73.8046 61.9607 73.8433C61.883 73.9584 61.9223 74.1134 62.0769 74.1909C62.2319 74.2297 62.3865 74.2685 62.542 74.2685C62.7743 74.3068 63.007 74.3068 63.2397 74.3068C63.3948 74.3068 63.5109 74.3844 63.6271 74.4619C63.7825 74.6157 63.7825 74.7707 63.6271 74.8866C63.4725 75.0025 63.3175 75.0804 63.1624 75.1184C62.5023 75.3109 61.8437 75.3109 61.1848 75.1947C61.2237 75.1947 61.2237 75.1947 61.1848 75.1947Z" fill="#E70310"/>
<path d="M57.9687 71.8314C58.0076 72.0631 58.0844 72.3345 58.1233 72.5274C57.9687 72.6433 57.8133 72.7213 57.6971 72.8363C57.3486 73.1456 57.1547 73.5707 57.1547 74.0342C57.194 74.692 57.6591 75.233 58.3172 75.4652C58.9761 75.6586 59.6735 75.4652 60.0997 74.9241C60.1385 74.8854 60.1386 74.8854 60.1774 74.8854C60.4879 75.0013 60.7975 75.1171 61.1071 75.1559C61.1071 75.1559 61.1464 75.1559 61.1848 75.1559C61.1071 75.2714 61.0298 75.3876 60.9525 75.5035C60.4879 76.0833 59.9062 76.393 59.2088 76.4314C58.1622 76.5089 57.3486 76.1225 56.8058 75.2334C56.1085 74.1122 56.4962 72.6437 57.6587 71.9477C57.736 71.9481 57.8525 71.9089 57.9687 71.8314Z" fill="#6B5F5C"/>
<path d="M60.139 74.8858C59.1312 74.4219 58.5111 73.6103 58.1626 72.5666C58.3176 72.5279 58.4726 72.4891 58.6281 72.4891C59.2482 72.4507 59.7517 72.6441 60.1006 73.1464C60.5652 73.6487 60.5259 74.3831 60.139 74.8858Z" fill="#E70310"/>
</svg>
