<svg width="97" height="91" viewBox="0 0 97 91" fill="none" xmlns="http://www.w3.org/2000/svg">
<path d="M31.6094 44.622C31.6094 48.3197 30.6256 51.1757 28.6581 53.19C26.6907 55.2042 23.9181 56.2112 20.3405 56.2108C18.9394 56.2108 17.7469 56.0154 16.7631 55.6245V61.036C16.7631 62.7797 15.9432 63.6215 14.3036 63.5612H13.3198C11.7994 63.5612 10.7262 63.2983 10.1002 62.7723C9.47408 62.2464 9.16107 61.307 9.16113 59.954V38.3085C9.16113 37.5569 9.31016 36.9256 9.60822 36.4146C9.90628 35.9036 10.3982 35.4076 11.0839 34.9266C12.0081 34.2951 13.1633 33.8065 14.5496 33.4609C16.0511 33.1018 17.5903 32.9276 19.1333 32.9423C23.0387 32.9423 26.0199 33.8892 28.077 35.7831C30.432 37.8576 31.6094 40.804 31.6094 44.622ZM19.4013 38.94C18.4658 38.9429 17.5451 39.1752 16.7184 39.6168V49.5372C17.6425 49.9581 18.4773 50.1685 19.2226 50.1685C22.2932 50.1685 23.8285 48.3197 23.8286 44.622C23.8286 40.8339 22.3529 38.9398 19.4015 38.94H19.4013Z" fill="#3088C8"/>
<path d="M39.8451 55.8092C39.3779 56.1434 38.7974 56.2954 38.1037 56.2651H37.1094C35.5719 56.2651 34.4791 55.9916 33.8311 55.4444C33.1831 54.8972 32.859 53.9549 32.8589 52.6172V36.1562C32.8589 35.1225 33.085 34.4385 33.5372 34.1041C33.9895 33.7697 34.5773 33.6025 35.3008 33.6025L36.2955 33.648C37.833 33.648 38.9257 33.9216 39.5738 34.4687C40.2218 35.0158 40.5459 35.9582 40.546 37.2959V53.7569C40.546 54.7907 40.3124 55.4748 39.8451 55.8092Z" fill="#3088C8"/>
<path d="M41.7286 55.103L42.2192 54.7986C43.2757 54.0881 43.804 52.9084 43.8039 51.2596V35.7336C43.8039 34.871 43.9926 34.3002 44.37 34.0211C44.7475 33.742 45.238 33.6025 45.8418 33.6025L46.6719 33.6406C47.955 33.6406 48.8669 33.8689 49.4078 34.3255C49.9486 34.782 50.219 35.5685 50.2191 36.6848V51.8684C50.2191 53.9994 49.7349 55.7118 48.7664 57.0057C47.7979 58.2996 46.4836 58.9464 44.8234 58.9463C44.1205 58.9603 43.4278 58.7758 42.8234 58.4136C42.252 58.0667 41.8032 57.5476 41.5403 56.9295C41.4003 56.6451 41.3231 56.3335 41.314 56.0162C41.3137 55.6102 41.4519 55.3059 41.7286 55.103Z" fill="#3088C8"/>
<path d="M70.8951 41.2926V50.7057C70.9109 51.2959 70.7434 51.8764 70.4158 52.3657C70.0962 52.828 69.5753 53.2692 68.8531 53.6893C67.0753 54.782 64.5334 55.3283 61.2273 55.3283C58.1436 55.3283 55.7615 54.747 54.0811 53.5843C52.4008 52.4216 51.5602 50.7197 51.5596 48.4785C51.5596 46.5457 52.1291 45.0609 53.2681 44.0242C54.4071 42.9875 56.1712 42.3432 58.5603 42.0911L64.0192 41.5029V41.2087C64.0192 39.6959 62.6441 38.9395 59.8938 38.9394C58.6992 38.9394 57.324 39.1355 55.7683 39.5277C55.2127 39.6679 54.8099 39.7379 54.5599 39.7378C54.3032 39.7466 54.0487 39.6871 53.822 39.5655C53.5953 39.4438 53.4043 39.2642 53.2681 39.0446C52.9624 38.5822 52.8096 38.0149 52.8096 37.3426C52.8096 36.6143 52.9693 36.04 53.2888 35.6197C53.6083 35.1994 54.157 34.8212 54.9348 34.4851C56.3794 33.8967 58.3657 33.6025 60.8938 33.6025C64.1164 33.6025 66.5888 34.2539 68.3113 35.5566C70.0337 36.8592 70.8949 38.7712 70.8951 41.2926ZM64.061 49.5713V46.2094L61.0607 46.4615C59.2826 46.5736 58.3936 47.162 58.3937 48.2267C58.3937 49.4873 59.3381 50.1176 61.2269 50.1176C61.7788 50.118 62.3296 50.0687 62.8728 49.9706C63.4149 49.8724 63.8109 49.7393 64.061 49.5713Z" fill="#3088C8"/>
<path d="M78.9942 55.8116C78.4867 56.1551 77.8807 56.3196 77.2708 56.2793L76.3873 56.2348C74.8852 56.2348 73.8175 55.9676 73.1841 55.433C72.5508 54.8985 72.2342 53.9777 72.2344 52.6707V39.3052C72.2344 38.117 72.6615 37.1518 73.5156 36.4094C74.3698 35.667 75.7541 34.9839 77.6685 34.3599C79.3037 33.8702 80.9991 33.6153 82.7049 33.6025C85.7683 33.6025 87.2999 34.7757 87.2999 37.1222C87.2999 37.4786 87.2852 37.6865 87.2558 37.7458C87.1379 38.7853 86.3426 39.3794 84.87 39.5279C83.9123 39.6196 82.9608 39.7685 82.0205 39.9738C81.0632 40.1817 80.3048 40.4044 79.7452 40.6419V53.7841C79.7452 54.7943 79.4949 55.4701 78.9942 55.8116Z" fill="#3088C8"/>
<path d="M43.7598 18.7907V23.8322C43.033 24.1841 42.3342 24.5922 41.6698 25.0527C39.0299 22.7852 36.7021 22.9449 36.7021 22.9449C39.485 18.5818 43.7598 18.7907 43.7598 18.7907Z" fill="#FFC555"/>
<path d="M41.6698 25.0526C37.2701 28.1092 36.7082 32.0993 36.7082 32.0993L36.7021 22.9448C36.7021 22.9448 39.0299 22.7851 41.6698 25.0526Z" fill="url(#paint0_linear)"/>
<path d="M29.6445 18.7907V23.8322C30.3714 24.1841 31.0702 24.5922 31.7347 25.0527C34.3746 22.7852 36.7023 22.9449 36.7023 22.9449C33.9194 18.5818 29.6445 18.7907 29.6445 18.7907Z" fill="#FFC555"/>
<path d="M31.7349 25.0526C36.1346 28.1092 36.6963 32.0993 36.6963 32.0993L36.7025 22.9448C36.7025 22.9448 34.3747 22.7851 31.7349 25.0526Z" fill="#F6931E"/>
<path d="M19.7099 62.1155C19.7071 62.0203 19.7117 61.925 19.7238 61.8305C19.7367 61.7734 19.757 61.7184 19.7841 61.6667C19.8397 61.5794 19.9912 61.5357 20.2384 61.5357C20.3141 61.5292 20.3904 61.5378 20.4628 61.5611C20.5352 61.5843 20.6023 61.6218 20.6603 61.6713C20.7604 61.787 20.8178 61.934 20.8227 62.0874C20.8635 61.9945 20.9234 61.9113 20.9986 61.8436C21.0737 61.7759 21.1623 61.7251 21.2585 61.6946C21.5107 61.6023 21.7777 61.5579 22.046 61.5637C22.2369 61.5574 22.4272 61.5875 22.6069 61.6526C22.773 61.7264 22.9227 61.8328 23.0473 61.9658C23.1983 62.1201 23.3151 62.3049 23.3902 62.5081C23.4256 62.3261 23.5182 62.1605 23.6543 62.0358C23.8213 61.8729 24.0182 61.7443 24.2339 61.6572C24.4412 61.5765 24.6607 61.5323 24.8829 61.5264C25.3711 61.5264 25.745 61.718 26.0047 62.1013C26.2644 62.4846 26.3945 63.041 26.395 63.7705V65.4067C26.4016 65.5356 26.389 65.6648 26.3579 65.79C26.3456 65.827 26.325 65.8606 26.2976 65.8882C26.2703 65.9157 26.2369 65.9365 26.2002 65.9489C26.0733 65.9829 25.9422 65.9987 25.8109 65.9957C25.6795 66.0004 25.5482 65.9846 25.4216 65.9489C25.3865 65.9382 25.3546 65.919 25.3287 65.8929C25.3029 65.8668 25.2837 65.8347 25.2731 65.7994C25.2423 65.6677 25.2298 65.5324 25.236 65.3973V63.7611C25.236 63.4309 25.1665 63.1737 25.0274 62.9898C24.9573 62.8984 24.8663 62.8256 24.7621 62.7775C24.658 62.7295 24.5438 62.7077 24.4294 62.714C23.9903 62.714 23.7369 62.9539 23.6692 63.4339L23.6414 65.4067L23.6504 65.6591C23.6504 65.8025 23.6133 65.8945 23.5391 65.9349C23.4123 65.9848 23.2762 66.0055 23.1405 65.9957C23.012 66.0019 22.8835 65.9861 22.7603 65.9489C22.7275 65.9378 22.6981 65.9182 22.6753 65.8919C22.6525 65.8656 22.6371 65.8337 22.6306 65.7994C22.6131 65.666 22.6038 65.5318 22.6027 65.3973L22.5656 63.7611C22.5596 63.3871 22.4932 63.1191 22.3663 62.9571C22.2394 62.7951 22.037 62.714 21.759 62.714C21.6388 62.7105 21.5192 62.7343 21.4093 62.7837C21.2994 62.833 21.2018 62.9067 21.1239 62.9991C20.9517 63.2139 20.8642 63.4853 20.8782 63.7611V65.416C20.8845 65.5418 20.872 65.6679 20.8411 65.79C20.8289 65.827 20.8082 65.8605 20.7809 65.8881C20.7536 65.9157 20.7203 65.9365 20.6836 65.9489C20.4214 66.0113 20.1484 66.0113 19.8862 65.9489C19.8492 65.9392 19.8155 65.9191 19.7893 65.891C19.763 65.8629 19.7452 65.8279 19.7378 65.79C19.715 65.6636 19.7057 65.5351 19.71 65.4067L19.7099 62.1155Z" fill="#F79844"/>
<path d="M30.9191 61.461C30.9661 61.4573 31.0133 61.4633 31.0579 61.4786C31.1026 61.4938 31.1436 61.5181 31.1787 61.5499C31.2151 61.5817 31.2439 61.6213 31.2632 61.6657C31.2824 61.7102 31.2916 61.7585 31.2899 61.807V65.4066C31.2927 65.5018 31.2881 65.5972 31.276 65.6917C31.2631 65.7487 31.2428 65.8038 31.2157 65.8555C31.1972 65.8929 31.1384 65.9242 31.0396 65.9489C30.909 65.9793 30.7749 65.9919 30.6409 65.9863C30.2761 65.9863 30.0937 65.8555 30.0939 65.5937L30.1029 65.5003C29.8928 65.8181 29.4694 65.977 28.8328 65.9771C28.4918 65.9728 28.1602 65.8635 27.8825 65.6639C27.574 65.4523 27.3211 65.1683 27.1454 64.8364C26.9579 64.5115 26.8587 64.1425 26.8579 63.7665C26.8571 63.3906 26.9547 63.0211 27.1408 62.6954C27.3206 62.3622 27.5764 62.077 27.8872 61.8632C28.1619 61.6607 28.4925 61.5496 28.8328 61.5454C29.0928 61.5455 29.3495 61.6046 29.5838 61.7183C29.8039 61.816 29.9931 61.9729 30.1308 62.1718V61.826C30.1297 61.7856 30.1365 61.7455 30.1509 61.7077C30.1652 61.67 30.1867 61.6356 30.2143 61.6063C30.2708 61.5465 30.3462 61.5085 30.4275 61.4987L30.9191 61.461ZM28.1608 64.2751C28.2552 64.4358 28.3873 64.5707 28.5456 64.6677C28.7035 64.7685 28.8872 64.8206 29.074 64.8174C29.2091 64.8185 29.3429 64.7917 29.4673 64.7386C29.5917 64.6855 29.704 64.6073 29.7972 64.5088C29.8955 64.4133 29.9734 64.2985 30.026 64.1715C30.0786 64.0444 30.1049 63.9078 30.1031 63.7702C30.1055 63.6311 30.0795 63.4929 30.0269 63.3643C29.9743 63.2357 29.8962 63.1193 29.7972 63.0222C29.7025 62.9231 29.5887 62.8446 29.4627 62.7915C29.3367 62.7384 29.2013 62.7119 29.0648 62.7137C28.9271 62.7133 28.7907 62.7404 28.6634 62.7933C28.5361 62.8463 28.4204 62.9241 28.3231 63.0223C28.2257 63.1204 28.1486 63.2371 28.096 63.3654C28.0435 63.4938 28.0167 63.6313 28.0171 63.7702C28.0181 63.9486 28.0678 64.1233 28.1608 64.2751Z" fill="#F79844"/>
<path d="M31.7532 59.8156C31.7506 59.7219 31.7553 59.6281 31.7672 59.5351C31.7802 59.4737 31.8005 59.4141 31.8274 59.3575H31.8184C31.8622 59.3085 31.9209 59.2756 31.9853 59.264C32.1013 59.2422 32.2193 59.2328 32.3372 59.2359C32.4522 59.233 32.5671 59.2424 32.6801 59.264C32.7413 59.277 32.7967 59.3099 32.8377 59.3575V59.3666C32.8647 59.4184 32.885 59.4734 32.898 59.5304C32.9101 59.6281 32.9148 59.7266 32.9119 59.825V61.9379C33.0833 61.8053 33.2809 61.7113 33.4914 61.6621C33.7312 61.5929 33.9792 61.5567 34.2287 61.5546C34.5744 61.5527 34.913 61.6535 35.2022 61.8445C35.5026 62.0419 35.7457 62.3161 35.9068 62.6392C36.0772 62.9912 36.163 63.3788 36.1572 63.7705V65.416C36.1634 65.5418 36.1509 65.6679 36.1201 65.79C36.1107 65.827 36.0921 65.8609 36.0662 65.8887C36.0402 65.9165 36.0077 65.9372 35.9717 65.9489C35.8416 65.9832 35.7074 65.999 35.573 65.9957C35.4409 66.0022 35.3087 65.9832 35.1837 65.9396C35.1488 65.926 35.1173 65.9046 35.0916 65.8771C35.0659 65.8496 35.0467 65.8166 35.0353 65.7806C35.0041 65.6554 34.9916 65.5262 34.9982 65.3973V63.7611C35.0101 63.4821 34.9118 63.2097 34.7247 63.0038C34.6334 62.9078 34.523 62.8324 34.4008 62.7824C34.2786 62.7325 34.1473 62.7091 34.0155 62.714C33.7479 62.7124 33.4878 62.8031 33.2784 62.9711C33.1782 63.0416 33.0939 63.1326 33.0308 63.2381C32.9677 63.3436 32.9273 63.4612 32.9122 63.5835V65.416C32.9185 65.5418 32.906 65.6679 32.8751 65.79C32.8657 65.8269 32.8471 65.8609 32.8212 65.8887C32.7952 65.9165 32.7628 65.9372 32.7267 65.9489C32.5967 65.9832 32.4624 65.999 32.328 65.9957C32.1966 66.0004 32.0653 65.9846 31.9387 65.9489C31.9037 65.9353 31.8723 65.9139 31.8466 65.8864C31.8209 65.8589 31.8016 65.826 31.7903 65.79C31.7591 65.6648 31.7466 65.5356 31.7532 65.4067V59.8156Z" fill="#F79844"/>
<path d="M36.8155 60.3673C36.7778 60.3569 36.7435 60.3368 36.7158 60.3089C36.6882 60.2811 36.6682 60.2464 36.6579 60.2084C36.6247 60.0803 36.6122 59.9477 36.6208 59.8156C36.6141 59.6834 36.6282 59.5508 36.6625 59.423C36.6746 59.3877 36.6948 59.3557 36.7215 59.3297C36.7481 59.3037 36.7805 59.2844 36.8159 59.2734C36.9428 59.24 37.0743 59.2274 37.2052 59.236C37.3366 59.2331 37.4677 59.2489 37.5948 59.2828C37.6296 59.2965 37.661 59.3179 37.6867 59.3454C37.7123 59.3729 37.7316 59.4058 37.743 59.4417C37.7742 59.567 37.7867 59.6962 37.7801 59.8251C37.7887 59.9571 37.7761 60.0897 37.743 60.2177C37.7324 60.253 37.7133 60.2851 37.6874 60.3112C37.6616 60.3373 37.6297 60.3566 37.5948 60.3673C37.3375 60.4172 37.0731 60.4172 36.8159 60.3673H36.8155ZM36.6208 62.125C36.6141 61.9927 36.6282 61.8602 36.6625 61.7323C36.6746 61.697 36.6948 61.6651 36.7215 61.6391C36.7481 61.6131 36.7805 61.5938 36.8159 61.5827C36.9428 61.5494 37.0743 61.5367 37.2052 61.5453C37.4278 61.5453 37.5777 61.5703 37.6549 61.6201C37.696 61.6512 37.7284 61.6926 37.7487 61.7402C37.769 61.7877 37.7767 61.8398 37.7709 61.8913C37.7807 61.975 37.7838 62.0595 37.7799 62.1437V65.4161C37.7883 65.545 37.7758 65.6745 37.7428 65.7994C37.7322 65.8347 37.7131 65.8668 37.6873 65.8929C37.6614 65.919 37.6296 65.9382 37.5946 65.9489C37.3324 66.0114 37.0594 66.0114 36.7972 65.9489C36.7601 65.9392 36.7265 65.9192 36.7002 65.8911C36.674 65.863 36.6561 65.8279 36.6488 65.79C36.6259 65.6636 36.6166 65.5351 36.621 65.4067L36.6208 62.125Z" fill="#F79844"/>
<path d="M38.2433 65.3975V62.1157C38.2366 61.9834 38.2507 61.8509 38.2851 61.7231C38.2972 61.6878 38.3174 61.6558 38.3441 61.6299C38.3707 61.6039 38.4031 61.5846 38.4385 61.5735C38.5655 61.5401 38.697 61.5275 38.8279 61.5361C39.038 61.5361 39.1832 61.5611 39.2637 61.611C39.3439 61.6609 39.3843 61.7574 39.3843 61.9007C39.4399 61.7761 39.5804 61.6764 39.806 61.6015C40.0597 61.5227 40.3241 61.4848 40.5895 61.4894C40.8157 61.4816 41.0416 61.5133 41.2572 61.5829C41.3357 61.604 41.4045 61.6519 41.4518 61.7185C41.4941 61.8005 41.5134 61.8926 41.5075 61.9849C41.509 62.1725 41.4593 62.3569 41.3637 62.5178C41.2679 62.6801 41.1644 62.7611 41.0532 62.7609C40.9758 62.7587 40.8999 62.7395 40.8307 62.7048C40.673 62.6357 40.5017 62.6038 40.33 62.6113C40.0926 62.6099 39.8636 62.7002 39.6902 62.8638C39.604 62.9355 39.5344 63.0254 39.4863 63.1271C39.4382 63.2289 39.4129 63.3401 39.4121 63.4528V65.4162C39.4151 65.5146 39.4104 65.613 39.3982 65.7106C39.3852 65.7677 39.365 65.8227 39.3379 65.8744V65.8653C39.2941 65.9143 39.2354 65.9472 39.171 65.9589C39.0561 65.9886 38.9376 66.0012 38.8191 65.9963C38.6025 65.9963 38.4557 65.9729 38.3787 65.9261C38.3366 65.8959 38.3025 65.8559 38.2791 65.8095C38.2557 65.7631 38.2437 65.7117 38.2442 65.6597L38.2433 65.3975Z" fill="#F79844"/>
<defs>
<linearGradient id="paint0_linear" x1="40.3512" y1="27.5208" x2="36.9535" y2="27.5208" gradientUnits="userSpaceOnUse">
<stop stop-color="#F6931E"/>
<stop offset="0.304" stop-color="#F78E1E"/>
<stop offset="0.552" stop-color="#F9831E"/>
<stop offset="0.779" stop-color="#FB7A1E"/>
<stop offset="0.994" stop-color="#FF681E"/>
</linearGradient>
</defs>
</svg>
