<svg width="24" height="24" viewBox="0 0 24 24" fill="none" xmlns="http://www.w3.org/2000/svg">
<path d="M12 20.7787C11.855 20.5852 11.6751 20.3407 11.4698 20.0523C10.9138 19.2715 10.1728 18.1718 9.43242 16.8965C7.93825 14.3226 6.5 11.1217 6.5 8.39919C6.5 5.36337 8.9605 2.91119 12 2.91119C15.0394 2.91119 17.5 5.36451 17.5 8.39919C17.5 11.1211 16.0618 14.322 14.5676 16.896C13.8272 18.1714 13.0862 19.2712 12.5302 20.0521C12.3248 20.3406 12.1449 20.5852 12 20.7787ZM9.35542 11.117C10.0568 11.8184 11.0081 12.2124 12 12.2124C12.9919 12.2124 13.9432 11.8184 14.6446 11.117C15.346 10.4156 15.74 9.4643 15.74 8.47239C15.74 7.48048 15.346 6.5292 14.6446 5.82782C13.9432 5.12643 12.9919 4.73239 12 4.73239C11.0081 4.73239 10.0568 5.12643 9.35542 5.82782C8.65403 6.5292 8.26 7.48048 8.26 8.47239C8.26 9.4643 8.65403 10.4156 9.35542 11.117Z" stroke="#0F001A"/>
</svg>
