<svg width="50" height="50" viewBox="0 0 50 50" fill="none" xmlns="http://www.w3.org/2000/svg">
<path fill-rule="evenodd" clip-rule="evenodd" d="M36.119 18.9034V12.5109C36.119 11.5639 35.7502 10.7352 35.1355 10.1433L31.8163 6.94704C31.2016 6.35514 30.341 6 29.3576 6H9.44217C7.47521 6 6 7.53894 6 9.31464V40.6854C6 42.5794 7.59815 44 9.44217 44H32.5539C34.5208 44 35.996 42.4611 35.996 40.6854V36.5421C37.4712 35.9502 38.7006 35.1215 39.807 34.1745C40.7905 33.2274 41.651 32.0436 42.1428 30.6231C43.1262 28.1371 43.0033 25.4143 43.0033 23.1651C43.0033 22.9283 43.0033 22.81 43.0033 22.5732C43.0033 21.5078 42.1428 20.6791 41.0364 20.5607C39.0694 20.4424 37.4712 19.8505 35.996 18.785L36.119 18.9034ZM40.5446 30.0312C39.6841 32.3988 37.84 34.0561 34.8896 35.0031C34.8896 35.0031 34.8896 35.0031 34.7667 35.0031C31.8163 34.0561 29.9722 32.3988 29.1117 30.0312C28.3741 28.0187 28.3741 25.6511 28.3741 23.757C28.3741 23.6386 28.3741 23.4019 28.3741 23.1651C28.3741 22.81 28.7429 22.4548 29.1117 22.3364C30.2181 22.2181 31.2016 22.0997 32.1851 21.7445C33.0456 21.3894 33.9061 20.7975 34.6438 20.0872H34.7667C35.5043 20.7975 36.3648 21.271 37.2254 21.7445C38.2089 22.0997 39.1923 22.3364 40.2987 22.3364C40.7905 22.3364 41.0364 22.6916 41.0364 23.1651C41.0364 23.4019 41.0364 23.5202 41.0364 23.757C41.0364 25.7695 41.1593 28.0187 40.2987 30.1495L40.5446 30.0312ZM33.9061 18.5483C32.4309 19.8505 30.7098 20.5607 28.497 20.6791C27.3906 20.6791 26.5301 21.6262 26.5301 22.6916C26.5301 22.9283 26.5301 23.0467 26.5301 23.2835C26.5301 25.5327 26.4071 28.2555 27.3906 30.7414C27.8824 32.162 28.7429 33.3458 29.7264 34.2928C30.8328 35.3583 32.1851 36.1869 33.9061 36.7788V40.3302V40.8037C33.9061 41.3956 33.4144 41.8692 32.7997 41.8692H9.68804C9.07336 41.8692 8.58163 41.3956 8.58163 40.8037V9.43302C8.58163 8.84112 9.07336 8.3676 9.68804 8.3676H27.0218V13.9315C27.0218 14.5234 27.5135 14.9969 28.1282 14.9969H33.9061V17.0093V18.6667V18.5483ZM29.2346 8.24922C29.4805 8.24922 29.8493 8.24922 30.2181 8.60436L33.5373 11.8006C33.9061 12.1558 33.9061 12.5109 33.9061 12.7477H29.2346V8.24922Z" fill="white"/>
<path fill-rule="evenodd" clip-rule="evenodd" d="M23.5795 17.1279H11.5319C11.0402 17.1279 10.6714 17.6014 10.6714 18.1933C10.6714 18.7852 11.0402 19.2587 11.5319 19.2587H23.5795C24.0713 19.2587 24.4401 18.7852 24.4401 18.1933C24.4401 17.6014 24.0713 17.1279 23.5795 17.1279Z" fill="white"/>
<path fill-rule="evenodd" clip-rule="evenodd" d="M23.3336 21.6261H11.7778C11.1631 21.6261 10.6714 22.0996 10.6714 22.6915C10.6714 23.2834 11.1631 23.7569 11.7778 23.7569H23.3336C23.9483 23.7569 24.4401 23.2834 24.4401 22.6915C24.4401 22.0996 23.9483 21.6261 23.3336 21.6261Z" fill="white"/>
<path fill-rule="evenodd" clip-rule="evenodd" d="M23.3336 26.0063H11.7778C11.1631 26.0063 10.6714 26.4798 10.6714 27.0717C10.6714 27.6636 11.1631 28.1371 11.7778 28.1371H23.3336C23.9483 28.1371 24.4401 27.6636 24.4401 27.0717C24.4401 26.4798 23.9483 26.0063 23.3336 26.0063Z" fill="white"/>
<path fill-rule="evenodd" clip-rule="evenodd" d="M23.3336 30.5049H11.7778C11.1631 30.5049 10.6714 30.9784 10.6714 31.5703C10.6714 32.1622 11.1631 32.6357 11.7778 32.6357H23.3336C23.9483 32.6357 24.4401 32.1622 24.4401 31.5703C24.4401 30.9784 23.9483 30.5049 23.3336 30.5049Z" fill="white"/>
<path d="M34.767 23.2833C32.3083 23.2833 30.3413 25.1774 30.3413 27.545C30.3413 29.9126 32.3083 31.8067 34.767 31.8067C37.2256 31.8067 39.1926 29.9126 39.1926 27.545C39.1926 25.1774 37.2256 23.2833 34.767 23.2833ZM34.767 30.8596C32.9229 30.8596 31.3248 29.4391 31.3248 27.545C31.3248 25.7693 32.8 24.2304 34.767 24.2304C36.611 24.2304 38.2091 25.6509 38.2091 27.545C38.2091 29.3207 36.7339 30.8596 34.767 30.8596Z" fill="white"/>
<path d="M35.9962 26.243L33.9063 28.2555L33.2916 27.6636C33.0458 27.4268 32.7999 27.4268 32.554 27.6636C32.3082 27.9004 32.3082 28.1371 32.554 28.3739L33.5375 29.3209C33.6604 29.4393 33.7834 29.4393 33.9063 29.4393C34.0292 29.4393 34.1522 29.4393 34.2751 29.3209L36.7338 26.9533C36.9797 26.7166 36.9797 26.4798 36.7338 26.243C36.4879 26.0063 36.2421 26.0063 35.9962 26.243Z" fill="white"/>
</svg>
