<svg width="50" height="50" viewBox="0 0 50 50" fill="none" xmlns="http://www.w3.org/2000/svg">
<path d="M37.4189 32.4511H39.4137V35.6905C39.4137 38.9052 36.7982 41.5214 33.5828 41.5214H16.0901C13.0937 41.5214 10.6188 39.2499 10.2955 36.3384H7.69238C8.02474 40.6811 11.6639 44.1129 16.0901 44.1129H33.5828C38.2268 44.1129 42.0052 40.3345 42.0052 35.6905V32.4511H44L40.7094 27.7501L37.4189 32.4511Z" fill="white"/>
<path d="M12.5811 17.6618H10.5863V14.4224C10.5863 11.2076 13.2018 8.5915 16.4172 8.5915H33.9098C36.9063 8.5915 39.3811 10.863 39.7044 13.7745H42.3076C41.9752 9.4318 38.3361 6 33.9098 6H16.4172C11.7732 6 7.99481 9.77841 7.99481 14.4224V17.6618H6L9.29056 22.3627L12.5811 17.6618Z" fill="white"/>
<path d="M24.1997 36.2518L21.397 25.6027C21.0705 25.7983 20.7576 26.0141 20.4673 26.2577L19.9102 31.2683L22.0656 31.9868L21.2694 33.58L23.4074 36.2524H24.1997V36.2518Z" fill="white"/>
<path d="M17.9131 31.7167V36.2518H21.7479L19.7394 33.7413L20.239 32.7429L18.5072 32.1657L18.9698 28.0018C18.3038 29.085 17.9131 30.3542 17.9131 31.7167Z" fill="white"/>
<path d="M32.1663 31.7167C32.1663 30.3542 31.7756 29.085 31.1096 28.0018L31.5722 32.1657L29.8404 32.7429L30.34 33.7413L28.3315 36.2518H32.1663V31.7167Z" fill="white"/>
<path d="M28.8096 33.5793L28.0133 31.9862L30.1688 31.2677L29.6116 26.2571C29.3214 26.0135 29.0085 25.7977 28.6819 25.6021L25.8799 36.2518H26.6716L28.8096 33.5793Z" fill="white"/>
<path d="M27.4926 25.0339C26.7262 24.7521 25.9027 24.5901 25.0398 24.5901C24.1768 24.5901 23.3534 24.7521 22.5869 25.0339L25.0398 34.3549L27.4926 25.0339Z" fill="white"/>
<path d="M25.0394 23.2944C27.9019 23.2944 30.2225 20.9738 30.2225 18.1113C30.2225 15.2489 27.9019 12.9283 25.0394 12.9283C22.177 12.9283 19.8564 15.2489 19.8564 18.1113C19.8564 20.9738 22.177 23.2944 25.0394 23.2944Z" fill="white"/>
</svg>
