<svg width="50" height="50" viewBox="0 0 50 50" fill="none" xmlns="http://www.w3.org/2000/svg">
<path d="M9.41406 28.0039H7.11328C6.49793 28.0039 6 28.5149 6 29.1465V42.8574C6 43.489 6.49793 44 7.11328 44H9.41406C10.0294 44 10.5273 43.489 10.5273 42.8574V29.1465C10.5273 28.5149 10.0294 28.0039 9.41406 28.0039Z" fill="white"/>
<path d="M43.0872 28.4381C42.1742 27.7525 40.9051 27.8896 40.1481 28.7351L34.0622 36.4133C33.6391 36.8703 32.8376 37.1445 32.4145 37.1445C32.1535 37.1445 22.2838 37.1445 21.6602 37.1445C21.0366 37.1445 20.5469 36.6417 20.5469 36.0019C20.5469 35.362 21.0366 34.8594 21.6602 34.8594C22.0302 34.8594 31.3978 34.8594 31.6797 34.8594C32.9043 34.8594 33.9063 33.831 33.9063 32.5742C33.9063 31.3174 32.9043 30.289 31.6797 30.289H23.6195C23.3969 30.289 23.0852 30.1748 22.8847 30.0148C21.237 28.5294 19.723 27.5697 17.1624 27.5697C15.6104 27.5697 14.0734 28.0625 12.7539 29.0152V44H31.6797C33.7727 44 35.8509 42.9717 37.0977 41.2578L43.5547 31.6601C44.2895 30.6547 44.0891 29.1921 43.0872 28.4381Z" fill="white"/>
<path d="M27.7833 5.15236C27.4398 4.94921 27.0136 4.94921 26.67 5.15236L18.4438 9.85194L27.2267 15.0563L36.0099 9.85209L27.7833 5.15236Z" fill="white"/>
<path d="M28.3398 17.1119V27.5212L36.541 22.647C36.8857 22.4428 37.0977 22.0657 37.0977 21.6573V11.8315L28.3398 17.1119Z" fill="white"/>
<path d="M17.3555 11.8308V21.6573C17.3555 22.0656 17.5674 22.4428 17.9121 22.647L26.1133 27.5212V17.1115L17.3555 11.8308Z" fill="white"/>
</svg>
