<svg width="53" height="35" viewBox="0 0 53 35" fill="none" xmlns="http://www.w3.org/2000/svg">
<path d="M29.9955 16.4479L30 17.4807C30 21.773 29.7457 25.6862 29.3625 28.2371L29.0269 29.8234C28.8401 30.6636 28.5947 31.6202 28.3387 32.1085C27.4018 33.8948 25.5699 35 23.6091 35H23.4385C22.1603 34.9582 19.4752 33.8498 19.4752 33.8113C15.1545 32.0197 6.81888 26.6125 2.96901 22.7576L1.85026 21.6003C1.5573 21.2866 1.22816 20.9154 1.02382 20.626C0.341275 19.7329 0 18.6277 0 17.5225C0 16.2888 0.383129 15.1418 1.10753 14.2037L2.25695 12.9778L2.51449 12.7162C6.00773 8.97329 15.1288 2.85295 19.9002 0.979897L20.6206 0.707062C21.4874 0.399991 22.702 0.0337342 23.4385 0C24.3754 0 25.2704 0.215256 26.1236 0.639343C27.1893 1.23371 28.0393 2.17184 28.5093 3.27703C28.8088 4.04167 29.2788 6.33881 29.2788 6.38058C29.7097 8.69674 29.9596 12.3516 29.9955 16.4479Z" fill="#FFE81B"/>
<path d="M53 17.5C53 19.9851 50.9961 22 48.5244 22L37.5109 21.0301C35.572 21.0301 34 19.4496 34 17.5C34 15.5472 35.572 13.9699 37.5109 13.9699L48.5244 13C50.9961 13 53 15.0149 53 17.5Z" fill="#FFE81B"/>
</svg>
