<svg width="50" height="50" viewBox="0 0 50 50" fill="none" xmlns="http://www.w3.org/2000/svg">
<path d="M42.6664 15.0635C39.9967 13.0878 36.4739 12 32.7468 12C29.0203 12 25.4979 13.0878 22.8285 15.0635C20.0342 17.1313 18.4954 19.9167 18.4954 22.9069C18.4954 25.6986 19.8747 28.3542 22.3793 30.385C24.6905 32.259 27.7772 33.4413 31.1036 33.732C34.6934 36.3949 39.9604 37.8981 40.3535 38.0073C40.5475 38.0631 40.7489 38.0915 40.9514 38.0915C41.7718 38.0915 42.5254 37.6361 42.9148 36.9085C43.416 35.9823 43.229 34.8349 42.4576 34.1155C41.4787 33.2085 40.9567 32.4967 40.6788 31.9868C42.423 31.1017 43.893 29.93 44.9689 28.5593C46.2976 26.8672 46.9998 24.9124 46.9998 22.9069C46.9998 19.9167 45.461 17.1313 42.6664 15.0635V15.0635ZM37.5156 26.6148H27.9796C27.2673 26.6148 26.6899 26.0259 26.6899 25.2993C26.6899 24.5727 27.2673 23.9838 27.9796 23.9838H37.5156C38.2279 23.9838 38.8053 24.5727 38.8053 25.2993C38.8053 26.0259 38.2279 26.6148 37.5156 26.6148V26.6148ZM37.5156 22.2105H27.9796C27.2673 22.2105 26.6899 21.6216 26.6899 20.895C26.6899 20.1684 27.2673 19.5791 27.9796 19.5791H37.5156C38.2279 19.5791 38.8053 20.1684 38.8053 20.895C38.8053 21.6216 38.2279 22.2105 37.5156 22.2105V22.2105Z" fill="white"/>
<path d="M15.9278 22.7029C15.9278 20.6156 16.5052 18.6053 17.6015 16.7748C16.6801 16.5999 15.7284 16.5088 14.7616 16.5088C11.6987 16.5088 8.8014 17.4049 6.60263 19.0316C4.27965 20.7508 3 23.0734 3 25.5722C3 27.2473 3.5841 28.8778 4.68852 30.2885C5.53111 31.364 6.66372 32.2909 8.00313 33.0079C7.76982 33.3719 7.38479 33.8519 6.74765 34.4422C6.04203 35.1 5.87049 36.1539 6.32803 37C6.68857 37.6731 7.38042 38.0912 8.13371 38.0912C8.32069 38.0912 8.50599 38.0652 8.68525 38.0135C9.04444 37.9132 13.258 36.7031 16.1785 34.5624C18.1769 34.3796 20.043 33.8129 21.6328 32.9305C21.4096 32.7668 21.1907 32.599 20.9776 32.4261C17.721 29.7859 15.9278 26.3327 15.9278 22.7029V22.7029Z" fill="white"/>
</svg>
