<svg width="50" height="50" viewBox="0 0 50 50" fill="none" xmlns="http://www.w3.org/2000/svg">
<path d="M10.1641 8H39.8359C41.5806 8 43 9.34054 43 10.9883V39.0117C43 40.6595 41.5806 42 39.8359 42H10.1641C8.4194 42 7 40.6595 7 39.0117V10.9883C7 9.34054 8.4194 8 10.1641 8ZM40.8906 10.9883C40.8906 10.439 40.4175 9.99219 39.8359 9.99219H34.4922V15.9688H40.8906V10.9883ZM9.10938 39.0117C9.10938 39.561 9.58251 40.0078 10.1641 40.0078H39.8359C40.4175 40.0078 40.8906 39.561 40.8906 39.0117V17.9609H9.10938V39.0117ZM9.10938 15.9688H32.3828V9.99219H10.1641C9.58251 9.99219 9.10938 10.439 9.10938 10.9883V15.9688Z" fill="white"/>
<path d="M12.2734 11.9844H14.4531C15.0356 11.9844 15.5078 12.4304 15.5078 12.9805C15.5078 13.5306 15.0356 13.9766 14.4531 13.9766H12.2734C11.691 13.9766 11.2188 13.5306 11.2188 12.9805C11.2188 12.4304 11.691 11.9844 12.2734 11.9844Z" fill="white"/>
<path d="M18.6719 11.9844H20.7812C21.3637 11.9844 21.8359 12.4304 21.8359 12.9805C21.8359 13.5306 21.3637 13.9766 20.7812 13.9766H18.6719C18.0894 13.9766 17.6172 13.5306 17.6172 12.9805C17.6172 12.4304 18.0894 11.9844 18.6719 11.9844Z" fill="white"/>
<path d="M25 11.9844H27.1094C27.6918 11.9844 28.1641 12.4304 28.1641 12.9805C28.1641 13.5306 27.6918 13.9766 27.1094 13.9766H25C24.4175 13.9766 23.9453 13.5306 23.9453 12.9805C23.9453 12.4304 24.4175 11.9844 25 11.9844Z" fill="white"/>
<path d="M15.5078 32.2104V30.9766C15.5078 29.3288 16.9272 27.9883 18.6719 27.9883H23.9453V25.8248C22.7177 25.4136 21.8359 24.3064 21.8359 23.0078C21.8359 21.3601 23.2553 20.0195 25 20.0195C26.7447 20.0195 28.1641 21.3601 28.1641 23.0078C28.1641 24.3064 27.2823 25.4136 26.0547 25.8248V27.9883H31.3281C33.0728 27.9883 34.4922 29.3288 34.4922 30.9766V32.2104C35.7198 32.6216 36.6016 33.7288 36.6016 35.0273C36.6016 36.6751 35.1822 38.0156 33.4375 38.0156C31.6928 38.0156 30.2734 36.6751 30.2734 35.0273C30.2734 33.7288 31.1552 32.6216 32.3828 32.2104V30.9766C32.3828 30.4273 31.9097 29.9805 31.3281 29.9805H26.0547V32.2104C27.2823 32.6216 28.1641 33.7288 28.1641 35.0273C28.1641 36.6751 26.7447 38.0156 25 38.0156C23.2553 38.0156 21.8359 36.6751 21.8359 35.0273C21.8359 33.7288 22.7177 32.6216 23.9453 32.2104V29.9805H18.6719C18.0903 29.9805 17.6172 30.4273 17.6172 30.9766V32.2104C18.8448 32.6216 19.7266 33.7288 19.7266 35.0273C19.7266 36.6751 18.3072 38.0156 16.5625 38.0156C14.8178 38.0156 13.3984 36.6751 13.3984 35.0273C13.3984 33.7288 14.2802 32.6216 15.5078 32.2104ZM33.4375 36.0234C34.0191 36.0234 34.4922 35.5766 34.4922 35.0273C34.4922 34.4781 34.0191 34.0312 33.4375 34.0312C32.8559 34.0312 32.3828 34.4781 32.3828 35.0273C32.3828 35.5766 32.8559 36.0234 33.4375 36.0234ZM25 36.0234C25.5816 36.0234 26.0547 35.5766 26.0547 35.0273C26.0547 34.4781 25.5816 34.0312 25 34.0312C24.4184 34.0312 23.9453 34.4781 23.9453 35.0273C23.9453 35.5766 24.4184 36.0234 25 36.0234ZM25 24.0039C25.5816 24.0039 26.0547 23.5571 26.0547 23.0078C26.0547 22.4586 25.5816 22.0117 25 22.0117C24.4184 22.0117 23.9453 22.4586 23.9453 23.0078C23.9453 23.5571 24.4184 24.0039 25 24.0039ZM16.5625 36.0234C17.1441 36.0234 17.6172 35.5766 17.6172 35.0273C17.6172 34.4781 17.1441 34.0312 16.5625 34.0312C15.9809 34.0312 15.5078 34.4781 15.5078 35.0273C15.5078 35.5766 15.9809 36.0234 16.5625 36.0234Z" fill="white"/>
</svg>
